<?xml version="1.0" standalone="no"?>
<!DOCTYPE svg PUBLIC "-//W3C//DTD SVG 20010904//EN"
 "http://www.w3.org/TR/2001/REC-SVG-20010904/DTD/svg10.dtd">
<svg version="1.0" xmlns="http://www.w3.org/2000/svg"
 width="512.000000pt" height="512.000000pt" viewBox="0 0 512.000000 512.000000"
 preserveAspectRatio="xMidYMid meet">
<metadata>
Created by potrace 1.11, written by Peter Selinger 2001-2013
</metadata>
<g transform="translate(0.000000,512.000000) scale(0.100000,-0.100000)"
fill="#000000" stroke="none">
<path d="M3146 5102 c-3 -5 -8 -27 -12 -50 -4 -28 -13 -43 -25 -47 -18 -6 -86
1 -123 12 -54 16 -507 24 -630 11 -140 -15 -216 -26 -301 -44 -16 -3 -39 -7
-50 -8 -20 -3 -79 -20 -123 -37 -13 -5 -38 -9 -57 -9 -19 0 -35 -5 -35 -10 0
-6 -6 -10 -12 -8 -15 2 -77 -17 -126 -39 -18 -8 -56 -21 -85 -30 -29 -8 -79
-26 -112 -40 -33 -14 -75 -25 -94 -25 -43 2 -166 -57 -216 -102 -20 -19 -49
-36 -63 -40 -26 -5 -95 -60 -177 -141 -22 -22 -81 -79 -130 -126 -99 -94 -142
-141 -194 -208 -18 -25 -38 -50 -43 -55 -25 -29 -120 -176 -139 -216 -95 -199
-166 -360 -198 -450 -35 -98 -91 -269 -96 -295 -23 -115 -26 -137 -41 -245 -3
-25 -8 -61 -11 -80 -9 -52 -10 -268 -1 -322 3 -26 8 -77 9 -115 1 -37 8 -81
14 -96 10 -23 9 -37 -4 -72 -15 -42 -14 -47 8 -117 13 -40 30 -83 39 -95 8
-13 11 -23 8 -23 -4 0 1 -11 10 -25 22 -34 80 -141 106 -195 11 -25 24 -47 28
-50 4 -3 18 -27 30 -55 12 -27 36 -79 52 -115 33 -72 44 -94 113 -225 27 -49
53 -100 59 -112 6 -13 14 -23 19 -23 4 0 7 -9 7 -19 0 -11 3 -21 8 -23 8 -3
50 -52 97 -113 50 -64 202 -223 310 -324 17 -15 64 -51 106 -80 42 -28 85 -61
94 -71 10 -11 22 -20 27 -20 4 0 39 -22 77 -49 38 -27 82 -56 97 -65 45 -25
67 -39 97 -63 16 -13 34 -23 42 -23 7 0 18 -7 25 -15 6 -8 15 -14 18 -13 4 1
24 -6 44 -15 21 -10 42 -17 48 -17 5 0 10 -4 10 -8 0 -5 19 -15 43 -22 23 -8
47 -16 52 -20 6 -3 36 -15 68 -25 32 -11 64 -28 72 -40 7 -11 24 -32 37 -47
13 -15 36 -43 52 -63 15 -19 32 -33 37 -30 4 3 6 26 4 50 -5 48 -2 51 42 34
15 -6 35 -12 43 -14 8 -2 44 -10 80 -19 82 -19 114 -25 170 -31 25 -3 65 -7
90 -10 134 -15 211 -16 266 -4 32 7 73 13 91 14 18 1 39 8 47 14 8 7 19 10 25
7 5 -4 12 2 15 11 3 10 28 31 55 46 28 15 70 48 96 73 25 25 45 41 45 36 0
-13 -57 -72 -89 -92 -13 -8 -29 -21 -37 -28 -7 -6 -17 -12 -23 -12 -6 0 -11
-5 -11 -11 0 -22 109 8 479 132 79 27 150 49 157 49 7 0 37 11 66 23 29 13 69
30 88 37 87 34 350 198 359 224 3 10 43 49 66 64 20 14 155 170 155 180 0 6 3
12 8 14 4 2 23 23 42 48 19 25 42 54 52 65 15 18 72 88 101 125 7 8 26 33 42
55 16 22 33 42 36 45 14 11 157 233 194 301 101 187 137 259 129 259 -4 0 -2
6 3 13 6 6 31 75 56 152 65 201 83 290 104 505 9 92 8 418 -2 540 -3 41 -11
91 -17 112 -8 26 -8 45 1 69 20 57 14 89 -28 144 -33 43 -56 96 -61 137 -1 7
-69 142 -103 203 -9 17 -41 82 -72 145 -30 63 -69 130 -85 149 -17 18 -30 37
-30 40 0 4 -9 17 -20 29 -11 12 -21 25 -21 29 -1 10 -15 28 -146 193 -91 114
-212 244 -299 320 -16 14 -75 59 -131 99 -57 41 -103 78 -103 83 0 4 -6 8 -14
8 -8 0 -16 4 -18 8 -6 15 -226 152 -245 153 -5 0 -53 22 -108 49 -55 27 -141
62 -190 79 -49 16 -91 35 -93 41 -6 18 -74 86 -99 99 -12 6 -24 7 -27 3z m-34
-4847 c-26 -33 -33 -22 -13 19 12 25 18 30 24 20 5 -9 1 -24 -11 -39z"/>
</g>
</svg>
