<svg xmlns="http://www.w3.org/2000/svg" width="200" height="200"  xmlns:v="https://vecta.io/nano"><path stroke="null" stroke-width="null" stroke-dasharray="null" stroke-opacity="NaN" fill-opacity="0" opacity="NaN" d="M0 .417h200v200H0z"/><path d="M38.644 101.825c.024-.008 2.498-.836 5.77-.836 5.461 0 9.504 2.24 12.017 6.656.544.957 1.763 1.292 2.723.752.035-.019 3.499-1.944 7.158-1.944 3.71 0 6.212 1.977 7.65 6.043a2 2 0 0 0 1.516 1.294 2.01 2.01 0 0 0 1.886-.657c.023-.027 2.349-2.661 5.495-2.661 5.443 0 10.851 7.855 15.229 22.116A2 2 0 0 0 100 134h.042a2 2 0 0 0 1.893-1.493c1.56-5.956 7.272-21.413 14.873-21.413 1.678 0 3.473.769 5.337 2.285a2 2 0 0 0 1.82.366c.63-.183 1.132-.666 1.341-1.288.086-.256 2.175-6.281 7.769-6.281 1.991 0 4.262.741 6.749 2.203.474.279 1.045.346 1.573.192a2.01 2.01 0 0 0 1.224-1.01c.148-.289 3.738-7.079 12.375-7.079 2 0 4.15.367 6.39 1.092.967.311 2.013-.149 2.435-1.073a2 2 0 0 0-.787-2.542c-.229-.138-22.929-13.919-32.531-27.136-.404-.556-1.059-.868-1.75-.82a2 2 0 0 0-1.627 1.042c-.065.12-5.512 10.027-14.259 15.847.253-1.03.384-2.098.384-3.185 0-1.005-.122-1.98-.335-2.921 1.702-1.714 4.681-6.007 2.065-13.45a2 2 0 0 0-2.273-1.299c-.191.038-4.264.904-7.42 5.529a13.16 13.16 0 0 0-10.575 0c-3.156-4.625-7.229-5.491-7.42-5.529-.974-.191-1.943.362-2.273 1.299-2.616 7.443.364 11.736 2.066 13.45-.213.941-.335 1.916-.335 2.921a13.17 13.17 0 0 0 .26 2.605c-4.788-3.372-9.558-8.54-14.239-15.436a2 2 0 0 0-1.541-.874c-.628-.039-1.224.221-1.63.692-.165.191-16.615 19.199-32.522 27.461a2 2 0 0 0 1.565 3.668zm73.131-31.109c.53 2.691.01 4.589-.649 5.822a13.34 13.34 0 0 0-2.461-2.831c1.055-1.516 2.2-2.443 3.11-2.992zm-23.549.001c.912.549 2.056 1.477 3.11 2.99-.948.822-1.777 1.773-2.461 2.831-.659-1.233-1.179-3.131-.649-5.821zm-17.3 4.506c6.427 8.957 13.115 14.94 19.905 17.802a2 2 0 0 0 2.27-3.174c-1.516-1.7-2.351-3.881-2.351-6.142 0-5.101 4.149-9.25 9.25-9.25s9.25 4.149 9.25 9.25c0 2.463-.958 4.781-2.697 6.527a2 2 0 0 0 2.104 3.289c10.185-3.727 17.414-13.352 20.43-18.002 6.781 8.226 17.333 16.148 24.427 21.014-7.312.534-11.53 4.951-13.366 7.477-2.488-1.22-4.861-1.837-7.075-1.837-5.761 0-8.966 3.964-10.475 6.643-1.923-1.146-3.864-1.725-5.791-1.725-8.591 0-14.15 11.218-16.856 18.512-4.735-12.705-10.473-19.136-17.092-19.136-2.614 0-4.78 1.055-6.277 2.09-2.732-4.977-6.975-6.109-10.27-6.109-2.957 0-5.709.92-7.404 1.637-3.479-4.938-8.293-6.608-12.384-7 10.864-7.481 20.575-17.657 24.402-21.865h0z" fill-opacity=".17"/><defs /></svg>