<?xml version="1.0" encoding="UTF-8" standalone="no"?>
<svg xmlns="http://www.w3.org/2000/svg" viewBox="0 0 358.2 62" preserveAspectRatio="xMinYMin meet" class="">
<title>Queensland Government logo</title>
	<path d="M66.2,23.5c-0.2,0.1-0.7,0.2-1.1,0.3c0.7-0.6,1-1.4,1-2.1c-0.3,0.1-0.9,0.3-1.4,0.4c1-0.9,1.6-1.9,1.3-3.2
		c-0.3,0.2-0.7,0.4-1.2,0.6c0.9-1.4,0.9-2.6,0.5-3.3c-0.4,0.4-0.9,0.8-1.4,1.1c0.3-1.6,0.3-2.6-0.3-3.3c-0.7,1.3-1.2,2.2-2.2,3.3
		c0.1-1,0-2.3-0.7-3c0,0-0.2,1.5-0.7,1.9c-0.1-1.4-0.6-2.2-1.2-2.9c0,0,0,1.5-0.4,2.4c-0.3-1.2-1-2.2-1.8-3.1
		c0.1,2.7-0.7,7.9-2.9,11.3c-0.3,2-0.5,5.1-3.8,7c-0.5-0.3-1.3-0.8-2.5-0.7c-0.3-1.5,1.7-3,3.5-4.1c1.8-1.1,2.5-2.1,2.5-3.6
		c0-1.7-1.2-2.3-2.3-2.4c-1.6-0.1-3,1.4-3.3,2c-0.5,0.2-1.9,0.7-2.5,0.8c-0.6,0.2-1.4,0.4-1.8,0.8c0.3,0.2,1,0.2,1.3,0.2
		c0.6-0.1,2.3-0.4,4-0.6c0.6,0.3,1.6,0.9,0.6,1.6c-1.4,0.9-2.1,1.2-4.1,2.2c-3.2,1.7-2.2,5.9-1.4,6.2c0,1.4,1.3,4,2.1,4.9
		c0.4,1.8-0.1,4.5-0.7,5.6c-0.4-1.1-1.2-3.6-1.7-5.1c0.5-2.8-0.3-4-0.9-4.5c-0.6-0.5-1.5-0.3-2.1,0.6c0.9-0.1,1.2,1.1,1.2,2.3
		c0,1.5-0.4,2.7-1.4,2.7c0.1,1.3,1.4,1.6,2.1,1c0.1,0.3,0.7,1.9,1.2,3.4c0.3,0.9,0.6,1.7,0.8,2.1c0.2,0.5,1.8,0.5,2,0
		c0.2-0.7,0.4-1.3,0.8-2.1c0.3-0.6,0.7-1.5,1.3-2.7c0.4,0.7,1,1.9,1.3,2.7c0.2,0.4,0.3,0.7,0.3,0.8c0.1,1.2,0.1,5.5-0.3,8
		c-3.5-1-4.5,0.8-4.2,2c0.5-0.6,1.2-0.5,1.6-0.2c-0.1,0.9,0.2,1.6,1.1,1.9c1-2.7,4.6-2.1,5-1.9c0-0.5,0.5-1.8-1.4-2.1
		c0.1-2.3,0.3-5.1,0.4-5.7c0.1-0.6,0.2-1-0.1-1.9c-0.1-0.3-0.2-0.6-0.3-1c-0.2-0.9-0.5-2.2-0.5-3.5c0.3,0.3,1.1,0.6,1.6,0.5
		c0.4,1.7,1,1.2,1.3,2c0.2,0.4,0.2,0.7,0.2,1c0,0.3,0.1,0.6,0.3,0.8c1.2,0,2.3-0.3,3.1-0.8c0.2-0.2,0.4-0.3,0.6-0.5
		c-0.3-1.9-0.8-2.8-1.8-3.9c-0.3-1.5-1-2.9-1.9-4.1c1.2-0.4,2.5-1.4,3.1-2.1c0.6,0,1.3-0.5,1.3-1.5c0.3,0,0.6-0.1,0.9-0.1
		c0-0.3-0.1-0.7-0.1-0.9c0.5,0,0.9,0,1.3-0.1c-0.1-0.4-0.3-0.7-0.4-1c0.5,0,1,0,1.5-0.1c-0.2-0.5-0.4-0.8-0.6-1.2
		c0.5-0.1,1.3-0.2,2-0.3c-0.2-0.2-0.4-0.5-0.8-0.8c1.7-0.5,2.5-1.7,2.5-2.2c-0.3,0-0.8,0.1-1.1,0.1C65.5,25.1,66.1,24.3,66.2,23.5"></path>
	<path d="M42.3,27.3H20.6v8c0.1,0.1,0.2,0.1,0.3,0.2v-7.9h21.5V35c0.1,0.1,0.2,0.2,0.2,0.3v-8L42.3,27.3"></path>
	<path d="M31.6,54.9C22,51.3,20.8,43.5,20.8,39.9l0,0l0-0.3c0-0.8,0.1-1.3,0.1-1.5c0-0.5-0.1-0.9-0.2-1.2l-0.1-0.2v3.7
		c0,4.1,1.5,7.7,4.5,10.6c2.6,2.5,5.6,3.7,6.4,4l0.1,0l0.1,0c0.8-0.3,3.8-1.5,6.4-4c3-2.9,4.5-6.5,4.5-10.6v-0.7
		c-0.1,0.1-0.2,0.2-0.2,0.3C42.3,42,42,44.8,40.8,47C39.3,50,37,52.5,31.6,54.9"></path>
	<path d="M14.4,5.7c1.4,0.7,1.8-0.6,4.3,1.1c-1.7,0.5-3,2.6-4.9,2.1c1.4-0.7,1.2-1.7,2-2.2C15.4,6.7,14.4,6.4,14.4,5.7z
		 M19.3,19.3c-0.8-0.3-2.1-0.5-2.8,0.4c-0.4-0.7,0.2-1.7,0.5-2c-1.8,0-2.8-0.5-3.1-1.1c0.7-0.4,2.3-1,3.7,0c0.9,0.7,1.4,1,2.5,1.4
		c0.4-0.4,0.3-0.2,0.4-0.3c-0.9-0.6-1.3-5.5-3.1-5.7c0.3-0.6,1.2-0.6,1.9-0.4c0.1-1.1-0.4-2.9-1.1-3.9c1-0.5,1.8,0,2.1,1.3
		c0.4,1.4-0.1,4.8,0.8,7.9l0.6-0.5c-0.3-1.8,1.7-2.5,2.1-3.4c0.2,1.2-0.1,1.8-0.4,2.2c0.7,0.1,1,0.8,0.9,1.3
		c-1.7-0.3-2.7,1.5-2.3,2.9C20.9,19.8,20,19.5,19.3,19.3L19.3,19.3z M27.8,20.3c-1.5,0.1-2.9,2-2.3,4.2c-0.2,0.1-0.9,0.1-1.1-0.4
		c-0.2,0.7-1.6,1.5-2.7,1.4c0.6-0.6,1-2.1,2.1-2.8c1.2-0.8,1.7-1.3,2.1-2.6c-0.5,0.2-3.3,1-4.1,0.1c1.8-0.3,4-1.3,5.1-2l-0.4-0.4
		c-1.1,0.6-2.7,1.2-3.5,1.4c-0.3-2.3,1.9-2.2,2.1-1.6c0.9-1.1,0.3-2.6-0.4-2.8c0.7-1.8,0-2.9-0.6-3.6c-0.1,1.9-2.3,2.2-2.6,3.7
		c-0.1-1.2-0.2-4.4-0.3-5.9c-0.2-2.9-3.8-3.9-4.4-3.9c-2.4,0.1-2.6-0.2-2.6-1.3c-1.2,1.4-0.8,2.6,0.2,3.2c-0.1,0.8-1.5,1.5-2.3,1.7
		c1.9,1.8,4.2,0.7,5.3-0.3l0.2-0.2c0.4,0.7,0.7,1.9,0.7,2.7c-1.8-0.1-2.1,1.3-2.1,1.8c2.3-1,2.6,3.5,3.2,4.2c-0.6,0-1.6-1.4-3.2-1.5
		c-1.8-0.1-2.5,0.9-3.2,0.8c0.1,1.3,1.7,2,2.8,2.2c-0.5,1.3-0.1,2.2,1,2.6c0-1.2,1.5-1.6,3.2-0.6c2,1.2,3,1.3,4.6,0.8
		c-0.3,0.6-1,0.6-1.9,1.5c-1.2,1.2-1.3,2.8-2.7,3.4c1.6,0.8,4.1-0.3,4.4-0.9c0.7,0.4,1.5,0.2,1.8-0.2c-1.1-2.4,0.8-3.9,1.5-3.9
		C27.8,21,28.1,20.2,27.8,20.3"></path>
	<path d="M44.6,7c0.8-0.6,1.3-0.8,1.8-1.1c0.7,0,1.9-0.1,2.6-0.4c-0.8,0.9-0.8,1.3-2.1,1.4c1.6,0.1,2.3,1.6,3.1,1.8
		C47.3,9.5,47,6.9,44.6,7z M47.9,15c0.8,0.7,0.5,1.6,0.4,1.8c-0.7-1.2-3-0.8-5.2,1.7c-0.2,0.2-0.4,0.4-0.6,0.6c0.2-3-2.3-3-3-2.7
		c0.1-0.9,0.6-1.4,0.9-1.5c-0.7-0.8-0.9-1.9-1-2.6c1.2,0.5,3,1.9,3.3,4.3l0.8-0.5c-0.2-4.2-0.2-4.2-0.2-7c0-0.4,0-1.3,1.3-1.2
		c0.1,1.1,0.2,3.9,0.2,7.8h0.5c0.4-1.1,1.9-2.4,3.5-2.3c1.2,0.1,1.5,0.1,2.2-0.2C50.4,14.4,48.4,15,47.9,15L47.9,15z M45.5,13.6
		c0-2.7-0.1-4.9-0.1-5.6L45.7,8c1.9,0.7,2.4,3,6.4,0.4c-2.1,0.3-2.3-1.6-3.2-1.6C50.3,6,50.4,4,50.4,4c-1.3,1-4.1,1.1-4.7,1.4
		c-0.8,0.5-1.7,1-2.3,1.4c-1.7,0.9-0.5,5.9-0.7,7.7c-0.9-2.7-2.7-2.3-3.7-3.8c-0.7,1.3,0,3.5,0.3,4.1c-1,0.8-0.8,2.4-0.5,2.8
		c0.9-0.6,2.3-0.5,2.7,0.6c-1.2,0.7-3.1,0.8-4.4-0.5l-0.5,0.5c0.9,1.2,3.3,1.7,5,0.7c0,0.3-0.1,0.6-0.2,1c-0.9,0.5-2.1,0.7-3.4,0.3
		c0.2,1.4,1.7,2.4,3.2,2.8c-0.5,0.4-1.1,0.5-1.6,0.5c0.3,0.8,0.4,1.8-0.2,2.7c-0.7-0.5-1.1-1-1.4-2.9c-0.3-1.9-1.7-3.9-2.7-4.2
		c-0.1,0.7-0.1,0.4,0.1,0.8c2.8,2.1,1.2,5.8,4.2,7.2c1.1-1.2,1.1-1.7,0.9-2.8c1.1-0.3,1.9-1.2,2.1-1.9c-1,0.5-2.6-0.4-3.1-1
		c1.8-0.1,3.4-1.4,5-3.1c1.5-1.6,3.5-1.3,3.3-0.1c1-0.2,1.4-1.6,1.1-2.5c1.5-0.5,2.7-1.6,2.9-3.3C49.9,13.2,47.4,11.5,45.5,13.6"></path>
	<path d="M34.5,22.8c-0.1,0-0.3,0.1-0.3,0.2l-0.5-0.1l0-0.9c0.2-0.1,0.3-0.2,0.3-0.4c0-0.2-0.2-0.4-0.4-0.4
		s-0.4,0.2-0.4,0.4c0,0.2,0.1,0.3,0.2,0.4l0,0.8l-0.5,0c-0.1-0.2-0.2-0.3-0.4-0.3c-0.2,0-0.4,0.2-0.4,0.4c0,0.2,0.2,0.4,0.4,0.4
		c0.2,0,0.3-0.1,0.4-0.2l0.5,0.1l0,1.3c-0.1,0.1-0.2,0.2-0.2,0.4c0,0.2,0.2,0.4,0.4,0.4c0.2,0,0.4-0.2,0.4-0.4
		c0-0.2-0.1-0.3-0.3-0.4l0-1.2l0.4,0.1c0.1,0.2,0.2,0.3,0.4,0.3c0.2,0,0.4-0.2,0.4-0.4C35,23,34.8,22.8,34.5,22.8"></path>
	<path d="M30.8,22.6c-0.2,0-0.3,0.1-0.4,0.3l-0.5,0l0-0.8c0.1-0.1,0.2-0.2,0.2-0.4c0-0.2-0.2-0.4-0.4-0.4
		c-0.2,0-0.4,0.2-0.4,0.4c0,0.2,0.1,0.3,0.3,0.4l0,0.9L29.1,23c-0.1-0.1-0.2-0.2-0.3-0.2c-0.2,0-0.4,0.2-0.4,0.4
		c0,0.2,0.2,0.4,0.4,0.4c0.2,0,0.4-0.1,0.4-0.3l0.4-0.1l0,1.2c-0.1,0.1-0.3,0.2-0.3,0.4c0,0.2,0.2,0.4,0.4,0.4
		c0.2,0,0.4-0.2,0.4-0.4c0-0.2-0.1-0.3-0.2-0.4l0-1.3l0.5-0.1c0.1,0.1,0.2,0.2,0.4,0.2c0.2,0,0.4-0.2,0.4-0.4
		C31.2,22.8,31,22.6,30.8,22.6"></path>
	<path d="M31.6,26.2c-0.6,1.2-1.8,1.2-2.9,0.5c-0.4-0.3-0.9-0.5-1.3-0.5c0.2-1.2,0.5-3.5,0.7-5.5c1.4-0.6,3-0.8,3.4,0.8
		c0.4-1.6,2.1-1.4,3.4-0.8c0.2,1.9,0.5,4.2,0.7,5.5c-0.4,0.1-0.8,0.2-1.3,0.5C33.5,27.4,32.3,27.5,31.6,26.2z M36.5,26.3
		c-0.3-1.8-0.9-6.7-1-8.3l-0.7,0c0,0.3,0,0.6,0.1,1.1c-0.9-0.3-2.1-0.5-3.3-0.5c-1.2,0-2.4,0.2-3.3,0.5c0-0.4,0.1-0.8,0.1-1.1
		l-0.7,0c-0.1,1.6-0.7,6.5-1,8.3c-0.4,0.2-0.7,0.6-0.7,1.4c0,0,4.1,0.1,5.6,0.1s5.6-0.1,5.6-0.1C37.3,26.9,37,26.5,36.5,26.3"></path>
	<path d="M53.6,61.2h-44c-0.2-1.4-0.5-2.3-0.7-3.1h45.4C54.1,58.9,53.8,59.8,53.6,61.2z M23.8,51.8c0.4,0.6,0.8,1,1,1.5
		c0.2,0.5,0.1,0.8-0.3,1.3c-0.8,1.2-2.3,2.2-3.4,2.8h-4.4C19.4,56.7,23.2,54.3,23.8,51.8L23.8,51.8z M21.1,51
		c0.4-0.7,1.2-0.9,1.8-0.1c0.3,0.3,0.1,1.2-0.9,2.4C21.3,52.6,20.8,51.7,21.1,51L21.1,51z M38.7,54.7c-0.4-0.5-0.5-0.8-0.3-1.3
		c0.2-0.5,0.6-0.9,1-1.5c0.6,2.5,4.4,4.8,7.1,5.6h-4.4C41,56.9,39.5,55.8,38.7,54.7L38.7,54.7z M40.2,50.9c0.6-0.8,1.5-0.6,1.8,0.1
		c0.4,0.7-0.2,1.6-0.9,2.3C40.1,52.2,40,51.3,40.2,50.9L40.2,50.9z M54.5,57.3c-0.5,0.1-1,0.2-1.9,0.2h-1.1
		c-3.7-0.1-7.4-1.2-9.7-3.5c3.2-3.2-0.6-5.9-2.6-3.1c-0.6,0.9-1.1,1.5-1.6,2.3c-0.4,0.7-0.1,1.3,0.7,2.4c0.4,0.6,1.5,1.4,2.4,2H22.5
		c0.9-0.6,2-1.4,2.4-2c0.8-1,1.1-1.7,0.7-2.4c-0.4-0.8-0.9-1.4-1.6-2.3c-2-2.7-5.8-0.1-2.6,3.1c-2.3,2.4-6.1,3.4-9.7,3.5h-1
		c-0.9,0-1.4-0.1-1.9-0.2c-0.8-0.2-0.9,0.1-0.5,1.4C8.5,59.6,8.8,61,8.9,62h45.5c0.1-1,0.3-2.4,0.6-3.3
		C55.4,57.4,55.2,57.1,54.5,57.3"></path>
	<path d="M14.9,60.1L14.9,60.1l0.3-0.9l0,0l0,0l0.3,0.9l0,0H14.9L14.9,60.1z M15.6,60.3L15.6,60.3l0.1,0.3l0,0.1l0,0
		l0.1,0l0.5,0l0.1,0l0,0l-0.1,0c-0.1,0-0.1,0-0.2-0.3c-0.2-0.4-0.6-1.5-0.6-1.6l-0.1-0.1l-0.1,0.1l-0.7,1.6
		c-0.1,0.1-0.1,0.2-0.2,0.2l-0.1,0l0,0l0,0l0.3,0l0.3,0l0,0l0,0h0c-0.1,0-0.1,0-0.1-0.1l0-0.2l0.1-0.1l0,0L15.6,60.3"></path>
	<path d="M16.9,59.9c0,0.4,0.1,0.6,0.2,0.7c0.2,0.2,0.4,0.2,0.6,0.2c0.2,0,0.4,0,0.5-0.2c0.2-0.2,0.3-0.5,0.3-0.8v-0.3
		l0-0.5c0-0.1,0-0.1,0.1-0.2l0.1,0l0,0l-0.1,0l-0.3,0l-0.3,0l-0.1,0l0,0l0.1,0c0.1,0,0.1,0.1,0.1,0.2l0,0.5v0.3c0,0.3,0,0.5-0.1,0.6
		c-0.1,0.1-0.2,0.1-0.4,0.1c-0.1,0-0.2,0-0.3-0.1c-0.1-0.1-0.2-0.3-0.2-0.6v-0.4l0-0.5c0-0.1,0-0.1,0.1-0.2l0.1,0l0,0l-0.1,0l-0.3,0
		l-0.4,0l-0.1,0l0,0l0.1,0c0.1,0,0.1,0.1,0.1,0.2l0,0.5L16.9,59.9"></path>
	<path d="M19.9,59.4l0-0.5l0-0.1l0.2,0c0.2,0,0.5,0,0.7,0.3c0.1,0.1,0.3,0.3,0.3,0.6c0,0.3-0.1,0.5-0.2,0.7
		c-0.2,0.1-0.3,0.2-0.6,0.2c-0.2,0-0.3-0.1-0.3-0.1l0-0.2l0-0.5L19.9,59.4L19.9,59.4z M19.6,59.9c0,0.2,0,0.4,0,0.6
		c0,0.1,0,0.1-0.1,0.1l-0.1,0l0,0l0.1,0l0.3,0l0.6,0c0.5,0,0.8-0.2,0.9-0.3c0.1-0.1,0.3-0.4,0.3-0.7c0-0.3-0.1-0.5-0.3-0.7
		c-0.3-0.3-0.7-0.3-1-0.3l-0.4,0l-0.4,0l-0.1,0l0,0l0.1,0c0.1,0,0.1,0.1,0.1,0.2l0,0.5L19.6,59.9"></path>
	<path d="M22.5,60.1L22.5,60.1l0.3-0.9l0,0l0,0l0.3,0.9l0,0C23.1,60.1,22.5,60.1,22.5,60.1z M23.2,60.3L23.2,60.3
		l0.1,0.3l0,0.1l0,0l0.1,0l0.5,0l0.1,0l0,0l-0.1,0c-0.1,0-0.1,0-0.2-0.3C23.4,60,23,58.9,23,58.8l-0.1-0.1l-0.1,0.1l-0.7,1.6
		c0,0.1-0.1,0.2-0.2,0.2l-0.1,0l0,0l0.1,0l0.3,0l0.3,0l0,0l0,0h0c-0.1,0-0.1,0-0.1-0.1l0-0.2l0.1-0.1l0,0L23.2,60.3"></path>
	<path d="M25.7,59c0.1-0.1,0.1-0.2,0.2-0.2l0.1,0l0,0l0,0l-0.3,0l-0.3,0l-0.1,0l0,0l0.1,0l0,0l0,0.1l-0.4,0.5l-0.3-0.6
		l0-0.1l0,0l0.1,0l0,0l-0.1,0l-0.3,0l-0.4,0l-0.1,0l0,0l0.1,0c0.1,0,0.2,0.1,0.2,0.2l0.5,0.7l-0.5,0.7c-0.1,0.1-0.1,0.2-0.2,0.2
		l-0.1,0l0,0l0,0h0l0.2,0l0.2,0h0l0.1,0l0,0l-0.1,0l-0.1,0l0-0.1l0.4-0.6l0.4,0.7l0,0.1l0,0l0.1,0l0.5,0h0.1l0.1,0l0,0l-0.1,0
		c-0.1,0-0.1-0.1-0.2-0.1c-0.1-0.1-0.5-0.8-0.6-0.9L25.7,59"></path>
	<path d="M29.3,60.1L29.3,60.1l0.3-0.9l0,0l0,0l0.3,0.9l0,0L29.3,60.1L29.3,60.1z M30,60.3L30,60.3l0.1,0.3l0,0.1l0,0
		l0.1,0l0.5,0l0.1,0l0,0l-0.1,0c-0.1,0-0.1,0-0.2-0.3c-0.2-0.4-0.6-1.5-0.6-1.6l-0.1-0.1l-0.1,0.1L29,60.4c-0.1,0.1-0.1,0.2-0.2,0.2
		l-0.1,0l0,0l0,0l0.3,0l0.3,0l0,0l0,0h0c-0.1,0-0.1,0-0.1-0.1l0-0.2l0.1-0.1l0,0L30,60.3"></path>
	<path d="M31.6,59.9c0,0.2,0,0.4,0,0.6c0,0.1,0,0.1-0.1,0.1l-0.1,0l0,0l0.1,0l0.3,0l0.4,0l0,0l0,0l-0.1,0
		c-0.1,0-0.1-0.1-0.1-0.1c0-0.1,0-0.3,0-0.6v-1.1l0.3,0c0.2,0,0.3,0.1,0.3,0.1v0l0,0.1l0,0l0-0.3l0-0.1l-0.2,0h-1l-0.3,0l-0.1,0
		l0,0.1L30.9,59l0,0l0,0l0-0.1c0-0.1,0.1-0.1,0.3-0.1l0.4,0L31.6,59.9"></path>
	<path d="M36.1,59.7L36.1,59.7l0.4,0c0.1,0,0.1,0.1,0.1,0.1l0,0.1l0,0l0-0.1l0-0.2l0-0.2l0,0l0,0l-0.1,0l-0.1,0l-0.3,0
		l0,0v-0.6l0,0l0.4,0c0.1,0,0.2,0,0.2,0.1l0,0.1l0,0l0,0l0-0.2l0-0.1l0,0l0,0l-0.1,0H36l-0.4,0l-0.1,0l0,0l0.1,0
		c0.1,0,0.1,0.1,0.1,0.2l0,0.5v0.5c0,0.3,0,0.4,0,0.6c0,0.1,0,0.1-0.1,0.1l-0.1,0l0,0l0.1,0l0.3,0l0.4,0l0.1,0l0,0l-0.1,0
		c-0.1,0-0.1-0.1-0.1-0.1c0-0.1,0-0.3,0-0.6L36.1,59.7"></path>
	<path d="M37.8,59.9l0,0.6c0,0.1,0,0.1-0.1,0.1l-0.1,0l0,0l0.1,0l0.3,0l0.4,0l0,0l0,0l-0.1,0c-0.1,0-0.1-0.1-0.1-0.1
		l0-0.6v-0.5l0-0.5c0-0.1,0-0.1,0.1-0.2l0.1,0l0,0l-0.1,0l-0.3,0l-0.3,0l-0.1,0l0,0l0.1,0c0.1,0,0.1,0.1,0.1,0.2l0,0.5L37.8,59.9"></path>
	<path d="M39.7,59.4v-0.5l0-0.1l0.2,0c0.2,0,0.5,0,0.7,0.3c0.1,0.1,0.2,0.3,0.2,0.6c0,0.3-0.1,0.5-0.2,0.7
		c-0.2,0.1-0.3,0.2-0.6,0.2c-0.2,0-0.3-0.1-0.3-0.1l0-0.2l0-0.5L39.7,59.4L39.7,59.4z M39.3,59.9c0,0.2,0,0.4,0,0.6
		c0,0.1,0,0.1-0.1,0.1l-0.1,0l0,0l0.1,0l0.3,0l0.6,0c0.5,0,0.8-0.2,0.9-0.3c0.1-0.1,0.3-0.4,0.3-0.7c0-0.3-0.1-0.5-0.3-0.7
		c-0.3-0.3-0.7-0.3-1-0.3l-0.4,0l-0.4,0l-0.1,0l0,0l0.1,0c0.1,0,0.1,0.1,0.1,0.2l0,0.5L39.3,59.9"></path>
	<path d="M42.1,59.9l0,0.6c0,0.1,0,0.1-0.1,0.1l-0.1,0l0,0l0.1,0l0.3,0l0.7,0c0.1,0,0.1,0,0.1-0.1l0-0.3l0,0l0,0
		c0,0.1,0,0.2-0.1,0.2c-0.1,0-0.2,0-0.2,0c-0.3,0-0.3,0-0.3-0.2v-0.6l0,0l0.4,0c0.1,0,0.1,0,0.1,0.1l0,0.1l0,0l0,0l0-0.2l0-0.2l0,0
		l0,0l-0.1,0l-0.4,0l0,0v-0.7l0,0l0.4,0c0.1,0,0.2,0,0.2,0.1l0,0.1l0,0l0,0l0-0.2l0-0.2l0,0l0,0l-0.1,0h-0.7l-0.4,0l-0.1,0l0,0
		l0.1,0c0.1,0,0.1,0.1,0.1,0.2l0,0.5L42.1,59.9"></path>
	<path d="M44.5,59.5l0-0.5c0-0.1,0-0.1,0.1-0.2l0.1,0l0,0l-0.1,0l-0.4,0l-0.4,0l-0.1,0l0,0l0.1,0c0.1,0,0.1,0.1,0.1,0.2
		l0,0.5v0.5c0,0.2,0,0.4,0,0.6c0,0.1,0,0.1-0.1,0.1l-0.1,0l0,0l0.1,0l0.3,0l0.8,0c0.1,0,0.1,0,0.2-0.1l0-0.3l0,0l0,0l-0.1,0.2
		c-0.1,0.1-0.2,0.1-0.3,0.1c-0.2,0-0.3,0-0.3-0.1c-0.1,0-0.1-0.2-0.1-0.6L44.5,59.5"></path>
	<path d="M46.1,59.9l0,0.6c0,0.1,0,0.1-0.1,0.1l-0.1,0l0,0l0,0l0.3,0l0.4,0l0,0l0,0l-0.1,0c-0.1,0-0.1-0.1-0.1-0.1
		c0-0.1,0-0.3,0-0.6v-0.5l0-0.5c0-0.1,0-0.1,0.1-0.2l0.1,0l0,0l-0.1,0l-0.3,0l-0.3,0l-0.1,0l0,0l0.1,0c0.1,0,0.1,0.1,0.1,0.2l0,0.5
		V59.9"></path>
	<path d="M47.9,60.7c0.1,0,0.3,0,0.4-0.1c0.2-0.1,0.2-0.3,0.2-0.5c0-0.2-0.1-0.4-0.4-0.7L48,59.5
		c-0.2-0.2-0.3-0.3-0.3-0.4c0-0.2,0.1-0.3,0.3-0.3c0.2,0,0.2,0.1,0.3,0.1c0.1,0.1,0.1,0.1,0.1,0.2l0,0l0-0.1l0-0.3l0,0
		c-0.1,0-0.2,0-0.3,0c-0.4,0-0.6,0.2-0.6,0.5c0,0.2,0.1,0.4,0.4,0.6l0.1,0.1c0.2,0.2,0.3,0.3,0.3,0.4c0,0.1-0.1,0.3-0.4,0.3
		c-0.2,0-0.3-0.1-0.4-0.3l0-0.1l0-0.1l0,0.1l0,0.3l0,0.1C47.6,60.7,47.7,60.7,47.9,60.7"></path>
	<path d="M31.6,15.3c-1.4,0-2.9,0.3-4.1,0.8c0-0.3,0.1-0.5,0.3-0.7c0.7-0.8,2.5-1.1,3.8-1.1c1.3,0,3.1,0.3,3.8,1.1
		c0.2,0.2,0.3,0.4,0.3,0.7C34.5,15.6,33,15.3,31.6,15.3z M33.9,17.2l-0.4-1c0.6,0.1,1.3,0.3,1.8,0.5l0.2,1
		C35.2,17.6,34.6,17.4,33.9,17.2z M30,17l-0.7-0.7c0.6-0.1,1.2-0.2,1.8-0.3l0.4,0.8C30.9,16.9,30.4,17,30,17L30,17z M27.6,17.8
		l-0.2,0.1c-0.3,0.1-0.5,0-0.6-0.1c-0.1-0.2,0-0.4,0.3-0.6l0.1-0.1l0.7,0.6L27.6,17.8L27.6,17.8z M31.6,12.7l1,0.7c-0.4,0-0.8,0-1,0
		c-0.2,0-0.6,0-1,0L31.6,12.7z M30.5,10.1c-0.4-0.9-0.5-2,0.7-1.5l0.1,1.5H30.5z M31.4,6.9l0.2,0.1l0.2-0.1l0.7-0.5l-0.4,1.4l0,0
		c-0.1-0.2-0.2-0.3-0.4-0.3c-0.2,0-0.4,0.1-0.4,0.3l0,0l-0.4-1.4L31.4,6.9L31.4,6.9z M32.5,12.6l-0.7-0.5l-0.2-0.1l-0.2,0.1
		l-0.7,0.5l0.5-1.5h0.8L32.5,12.6z M32.7,10.1h-0.8L32,8.6C33.3,8.1,33.1,9.2,32.7,10.1z M28.6,10.4l0.5-0.7l0.1-0.2l-0.1-0.2
		l-0.5-0.7l1,0.3c0.1,0.5,0.2,0.8,0.3,1L28.6,10.4L28.6,10.4z M33.6,9l1-0.3l-0.5,0.7L34,9.5l0.1,0.2l0.5,0.7L33.3,10
		C33.4,9.7,33.5,9.4,33.6,9L33.6,9z M40.1,7.2c0-0.4-0.7-0.7-0.9-0.7c-0.3,0-0.7,0.6-1.1,1c-0.3-1.9-0.2-2.7,0-3.5
		c0.8,1.4,1.9,1.7,2.4,1.7c-1.9-1.5-1.6-2.9-2.1-3c-0.3,0-0.6,0-0.7,0c-0.7,0-0.8,1.3-0.8,1.9c-0.4-0.8-0.9-1.5-1.6-2.4
		c-0.7-1.8-1.6-1.3-2.4-2.2c0.7,1,0.1,1.7,1.7,2.4c0.4,0.4,0.9,1,1.2,1.5c-0.3,0.3-0.4,0.6-0.7,0.8c-0.2,0.3-0.3,1.4-0.9,2.2
		C35,6.6,35.4,6,35.7,5.5c2.8,2.1,0.5,7.6-0.1,8.8c-0.6-0.4-1.4-0.7-2.2-0.8l-0.1-0.2l-0.7-2.2H33c0.4,0,0.4-0.2,0.4-0.4l2,0.6
		l0.9,0.3l-0.5-0.7l-0.9-1.3l0.9-1.3l0.5-0.7l-0.9,0.3l-1.8,0.5c-0.1-0.4-0.4-0.6-0.8-0.6l0.6-2l0.3-0.9l-0.7,0.5l-1.3,0.9l-1.3-0.9
		l-0.7-0.5l0.3,0.9l0.6,2c-0.4,0.1-0.7,0.2-0.8,0.6l-1.8-0.5l-0.9-0.3l0.5,0.7l0.9,1.3l-0.9,1.3l-0.5,0.7l0.9-0.3l2-0.6
		c-0.1,0.2,0,0.4,0.4,0.4h0.3l-0.7,2.2l-0.1,0.2c-0.7,0.1-1.6,0.4-2.2,0.8c-1.9-3.7-1.4-7.5,0.2-8.7c0,0.8,0.7,1.9,1,2.1
		c-0.2-0.8,0.2-2.3-0.3-2.6c-0.3-0.3-0.7-0.4-1.2-0.4c0.3-0.5,0.8-1.2,1.5-2.2C30,2,30.3,0.6,30.6,0c-1.2,0.4-2.1,1.1-2.3,2.1
		c-0.4,0.6-0.9,1.3-1.4,2c0-1-0.5-1.3-1.2-1.4c-2.1,0.4-1.9,1.9-3.7,2.9c1.2,0.4,3.1-2.2,3.8-1.9c0.1,1.6-0.3,2.9-0.3,3.8
		C25.1,7.3,25,7,24.7,7c-0.3,0-0.9,0-1.4,0.5c-0.1,0.8-0.1,2.4-0.9,4.2c1.2-1.1,1.7-3.1,1.9-3.7c0.3,0.4,0.6,1.3,0.7,2.1
		c0.1,1.5,1,3.9,1.8,5.1c-0.2,0.4-0.3,0.9-0.2,1.4c-0.6,0.4-0.7,1.1-0.5,1.5c0.2,0.4,0.8,0.8,1.5,0.5l0.2-0.1
		c0.7-0.3,2.1-0.9,3.7-0.9c1.6,0,3,0.6,3.7,0.9l0.2,0.1c0.7,0.3,1.3,0,1.5-0.5c0.2-0.4,0.1-1-0.5-1.5c0.1-0.5,0-1-0.3-1.5l0,0
		c1.4-2,1.5-5.8,2.7-6.9c0.1,1.3,0.8,2.5,1.5,2.6C40,9.9,40,8,40.1,7.2"></path>
	<path d="M22.2,38.5l-0.9,0c-0.1,1.5-0.1,2.9,0.1,4.1c0.5-0.9,1.1-1.8,1.1-2.4C22.5,39.6,22.4,39,22.2,38.5"></path>
	<path d="M25.3,41.1c0.3,0.8,0.7,2.1,1,3.1c-0.3,0-0.5,0-0.7,0.1c-0.1-0.3-0.6-1.4-1-2.5C24.1,40.8,25.1,40.5,25.3,41.1
		L25.3,41.1z M27.2,40.2c0.1-0.5,1.5-0.6,1.2,0.5c-0.3,1.1-0.6,2.4-0.8,3.4l-0.4,0l-0.4,0c-0.3-1.1-0.6-2.4-0.8-3.4
		C25.7,39.6,27.1,39.7,27.2,40.2L27.2,40.2z M29.8,41.8c-0.4,1.1-0.9,2.1-1,2.5c-0.2,0-0.5-0.1-0.7-0.1c0.3-0.9,0.7-2.2,1-3.1
		C29.2,40.5,30.2,40.8,29.8,41.8L29.8,41.8z M25.3,44.8c0.3-0.1,1.5-0.2,1.8-0.2c0.3,0,1.5,0.1,1.8,0.2c0,0.2,0,0.4,0,0.5
		c-0.5,0.1-1.2,0.2-1.8,0.2c-0.6,0-1.4-0.1-1.8-0.2C25.3,45.2,25.3,45,25.3,44.8z M28.6,48.3c-0.4,0.1-1,0.1-1.4,0.1s-1.1,0-1.4-0.1
		l0.2-0.6c-0.3,0-0.6-0.1-0.8-0.2c0.1-0.4,0.3-0.8,0.5-1.4c0.5,0.1,1.1,0.2,1.7,0.2c0.6,0,1.1,0,1.7-0.2c0.2,0.6,0.4,1,0.5,1.4
		c-0.2,0.1-0.5,0.2-0.8,0.2C28.5,47.6,28.6,48.3,28.6,48.3z M22.6,38.5c0.1,0.5,0.3,1.1,0.3,1.7c0,0.7-0.5,1.7-1.1,2.6l-0.2,0.3
		c1.7,8.2,9.7,11,9.7,11V38.5C31.3,38.5,25.3,38.5,22.6,38.5"></path>
	<path d="M40,40l0-0.4l0.4,0c0.5,0,0.8-0.5,0.9-1.1c-2,0-9.4,0-9.4,0v7.6c0.6-0.5,1.2-0.8,2-1.1v-1.7h0.8
		c0-1.8,0.5-3.1,1.3-4l0.2-0.3l0.2,0.3c0.9,0.9,1.3,2.2,1.3,4h0.8v1.8c0.8,0.3,1.4,0.9,1.8,1.4c0.7-1.4,1.2-3,1.4-4.9l-0.1,0
		C40.9,41.7,40.1,41.1,40,40"></path>
	<path d="M41.9,38.5l-0.2,0c-0.2,0.9-0.6,1.5-1.3,1.5c0.1,0.9,0.7,1.3,1.3,1.3l0.1,0C42,40.4,42,39.5,41.9,38.5"></path>
	<path d="M38.1,48.3l-0.7-0.8l-1.1,1l0.5,0.5c0,0,0.5-0.2,0.9,0.3c-0.3,0.3-0.9,0.8-1.2,1c-0.4-0.5-0.1-0.9-0.1-0.9
		L35.9,49l-1.4,1.2L34,49.7l1.4-1.2l-0.5-0.6l-0.5,0.4c-0.4-0.5-0.7-1.1-0.4-1.9c0.8-0.2,1.4,0.2,1.8,0.7l-0.5,0.4l0.5,0.6l1.2-1
		l-0.7-0.8c0.6-0.1,1.1,0.1,1.4,0.5C38.1,47.2,38.2,47.7,38.1,48.3L38.1,48.3z M36.3,45.4C34,45.4,33.2,46,32,47v7.2
		c0,0,5.3-1.8,8.2-6.9C39.4,46.3,38.5,45.4,36.3,45.4"></path>
	<path d="M23.2,32.3c1.1-0.6,1.7-1.1,2.3-2c-0.4-0.2-1-0.6-1.3-1.1c2.1,0.6,3.2,0.9,5.7,0c-0.4,0.6-1,1-1.5,1.3
		c0.6,0.9,1.1,2,1.3,2.8c-0.7-0.1-1.6,0.1-2.2,0.7c-0.9,0-2.1,0.3-2.8-1.8c-0.3,0.2-0.7,0.4-0.7,0.4c0.4,1.4,1.1,2.3,2.9,2.1
		c0.1,0.4,0.2,0.7,0.4,1.1c-0.8,0.4-2.7,1.6-4.1,0.3C23.2,36.1,23.2,32.3,23.2,32.3z M30.2,35.4c-0.2,0.3-1.4,0.6-1.7,0.5
		c-0.5-0.3-0.7-1-0.6-1.2c0.1-0.4,1.5-0.7,1.9-0.6C30.2,34.2,30.4,35.2,30.2,35.4L30.2,35.4z M33.7,33.9v-0.4l-0.9,0
		c0.2-1,2.1-2.2,3-2.5c0-1.1,1.4-1.4,2.5-1.5c1.4,0,1.7,1.5,1.7,1.9c0,0.6-0.2,2-0.9,2.4c-1.1,0.6-2.1-0.2-2.1-1
		c0-0.8,0.6-1.3,1.6-1.2c1,0.1,0.9-0.5,0.2-0.6c-0.4-0.1-2-0.2-2.5,1c-0.3,0-0.6-0.1-0.8-0.3c-0.2,0.3-0.5,0.4-1,0.6
		c0.4,0.8,1.2,0.7,1.7,0.3l0,0.3c0,2,2.1,2.4,3.4,1.7c-0.2,0.6-0.1,1.4,0,2h-5c0.1-0.5,0.8-1.2,1.3-1.5l-0.4-0.7
		c-0.5,0.2-1.1,0.5-1.7,0.6C32.2,35.3,32.3,34.3,33.7,33.9L33.7,33.9z M21.7,34.6c0.6,0.5,0.8,0.8,0.6,2.4c0,0.2,0.1,0.6,0.2,1h19
		c0-0.2,0-0.4,0-0.6c0-0.9-0.1-1.5-0.4-1.8c-0.1-0.1-0.2-0.1-0.4-0.1h0l-0.8,0.1l0.4-0.6c0.4-0.6,1-1,1.6-1v-5.6H21.4v6.3L21.7,34.6
		L21.7,34.6"></path>
	<path d="M21.4,34.9v3h0.7c-0.1-0.4-0.2-0.8-0.2-1C22.1,35.4,21.9,35.2,21.4,34.9"></path>
	<path d="M41.9,37.9v-3.8c-0.4,0-0.9,0.3-1.2,0.9l0.1,0c0.8,0,1.1,1.1,1.1,2.3C41.8,37.5,41.8,37.7,41.9,37.9L41.9,37.9
		"></path>
	<path d="M26.4,32.7c0.4,0.2,0.8,0,1.2,0c-0.1-0.2-0.2-0.3-0.1-0.6c0.1-0.5-0.3-0.7-0.5-0.7c-0.5,0-0.8,0.1-1.3,0
		C26,31.8,25.9,32.5,26.4,32.7"></path>
	<path d="M21.9,36.9c0.2-1.6-0.1-1.7-0.5-2.1c-0.4-0.3-1-0.4-1.7-0.9c-0.5-0.3-0.6-0.8-1.2-1.4c0.1-1.3,1.1-2.9,1.8-3.3
		c0.1-0.1,0.1-2.1,0.1-2.1s0.5,0,0.4,0c-0.6-0.4-1.4-0.1-1.9,0.5c-0.5,0.4-1.7,1.2-2.6,1.5c-1.1-1-2.9-1.8-4.2-3.1
		c0,0,1.7,0,2.5-0.3c0.2-0.1,0.8-1,0.5-1.8c-0.3-0.1-0.6-0.3-1-0.5c-0.5-0.3-0.9-0.6-1.1-0.7c-0.7-0.6-1-1-2.3-1.4
		c0.1-0.6,0.2-0.5,0.8-0.8c0.7-0.5,1.1-1.1,1.4-1.6c0.2-0.5,0-1.4-0.6-0.2c-0.2,0.4-0.8,1-1.4,1.1c0-0.4,0.1-0.6,0.1-0.8
		c1.9-1.3,1.7-2.5,1.5-3.6c-0.1-0.6-0.7-0.9-0.7-0.2c0,0.4,0.4,1.7-0.9,2.4c0-0.5-0.2-0.8-0.3-1.1c1.1-1.5,0.7-3,0.2-3.6
		c-0.3-0.4-1.1-0.6-0.7,0.1c0.3,0.5,0.7,2-0.1,2.6c-0.3-0.4-0.6-0.5-0.7-1C9.3,13,9.2,12,9,11.4c-0.2-0.5-0.7-0.9-0.7-0.1
		c0,0.9,0.1,2,0,2.1c-0.1,0.1-1.3-1.1-1.8-1.4c-0.5-0.3-1.1-0.2-0.5,0.5c0.5,0.6,2.1,1.7,1.9,2.1c-0.1,0.2-1.2-0.7-1.8-0.9
		c-0.6-0.2-0.8,0.1-0.3,0.5c0.8,0.6,1.3,1.1,2.6,1.5c1.3,0.4,1.9,2.2,1.5,4.8c0,0.1-0.2,0.1-0.4,0.1c-0.1-1-0.2-2.1-0.5-2.7
		c-0.3-0.7-0.9-0.7-0.7,0.2c0.2,0.7,0.3,1.5,0.2,2.5c-1.1-0.2-1.5-0.5-1.9-0.7c0-0.5,0.2-1.3,0.3-2c0-0.7-0.4-1.2-0.6-0.3
		c-0.2,0.9-0.4,1.3-0.5,1.9c-0.3-0.1-0.6-0.2-0.8-0.4L5,17.3c-0.1-0.8-0.4-0.8-0.6-0.1c-0.1,0.3-0.2,0.7-0.2,1.3
		c-0.4-0.2-0.6-0.7-0.7-1c0.1-0.8,0.2-1.7,0.3-2.3c0.1-0.4-0.2-1.2-0.5-0.2C3,15.7,3,16.3,2.8,16.8c-0.3,0-0.6-1.6-0.8-2.6
		c-0.1-0.5-0.5-1-0.5,0c-0.1,1.1,0.2,2.3,0.4,2.8c-0.5-0.1-1.1-1-1.5-1.6c-0.3-0.5-0.5,0-0.5,0.2c0.3,2,1.9,2.7,2.7,2.9
		c1.1,1.6,3.3,2.3,5.1,3.1c-2.4,0-3,0.9-4.1,0.3c0,0.9,0.5,1.3,0.9,1.5c0.3,0.1,0.6,0.2,0.7,0.2c0.2,1.1,1.2,1,2.1,1.1
		c-0.2,2.1,0,4.9,1.9,7c-0.1,1.1-0.1,2.5-0.1,3.4c-1.5,1.4-2.9,4.4-3.4,6c-0.4,1.2-1,2.2-1.9,2.6c0.8,0.8,1.9,0.4,2.5,0
		c0,0.7,0.2,1.2,0.3,1.6C6.3,45.9,6,46.3,6,47.1c-0.5,0.1-0.8,0.4-1.1,0.8c-0.2,0.2,0,1.2,0.2,1.6c0.6,1.4,0.1,4.4,0,5.3
		c0.3,0,0.7,0,0.8-0.4c0.1,0.1,0.5,0.4,0.7,1c0,0.3-0.2,1.2,0.3,1.3c0.4,0.1,2.1,0,2.3-0.2c-0.2-0.2-0.5-0.6-0.6-1.1
		c0-0.5,0-1-0.2-1.3c-0.2-0.3-0.7-1.1-1-1.4c-0.1-0.6-0.1-3,0.1-4c0.4-0.3,3.4-2.5,4.1-4.6c0.5,0.2,0.4,1.7,0.4,3.6
		c0,0.5,0.6,0.8,1,0.8c0.8,0.1,2,0.9,3.3,2.8c0.3-0.3,0.6-0.5,0.6-0.5c0.2,0.2,0.4,0.8,0.5,1.1c0.1,0.3,1.2,0.4,2,0.2
		c0.3-0.1,0.4-0.1,0.6-0.4c-1-1.8-1.6-2.9-2.9-3.9c-0.6-0.5-1.4-0.7-2.1-1.1c0.5-0.8,1.7-4.8,0.9-6.3c-0.3-0.5-1.2-1-2.3-0.7
		c1-1.2,2.9-3.4,3.2-4.1c0.2,0.3,1.4,0.1,2.2,0.4c0.3,0.1,1.2,1.3,1.2,1.6c0.1,0.7,0.1,1.5-0.4,3.4c0.3-0.1,0.3-0.1,0.6-0.2
		c0.1,0.5-0.1,0.9-0.5,1.7c0.1,0.7,0.4,1.8,0.7,2c0.4-1.3,2-3.1,2-4.2C22.5,38.7,21.9,37.5,21.9,36.9"></path>
	<path d="M83.8,28.6c-0.3-1-1.3-2.4-3.4-2.4c-1.3,0-2.4,0.7-3,1.7c-0.7,1.2-1,2.9-1,5.3c0,3.3,0.6,5.4,1.7,6.2
		c0.6,0.4,1.4,0.7,2.3,0.7c2.7,0,3.8-2.1,3.8-7C84.3,31.1,84.1,29.7,83.8,28.6L83.8,28.6z M89.8,46c0,0-0.6,0.3-1.7,0.3
		c-1.5,0-2.8-0.9-3.6-1.4c-0.9-0.6-2.4-1.5-3.9-1.9c-2.9,0-4.8-0.8-6.2-2.7c-1.5-1.9-2.2-4.3-2.2-7.2c0-4.2,1.6-7.5,4.4-9
		c1.1-0.6,2.6-0.9,4-0.9c5.1,0,8.3,3.7,8.3,9.8c0,4.2-1.5,7.3-3.8,8.9c0.5,0.2,1.3,0.7,1.7,1c0.7,0.4,1.5,0.8,2.4,0.8
		c0.8,0,1.7-0.1,1.7-0.1L89.8,46"></path>
	<path d="M101.4,43.1c-0.5-0.3-0.9-0.8-1.1-1.4C99.3,42.6,98,43,96.5,43c-2,0-3.7-0.9-4.2-2.3c-0.2-0.6-0.3-1.4-0.3-2.8
		v-9.1l3.7-0.7v9.1c0,1.3,0.1,1.9,0.3,2.3c0.2,0.4,0.8,0.7,1.3,0.7c0.9,0,2-0.7,2.3-1.4v-10l3.6-0.8V39c0,0.9,0.3,1.9,0.9,2.6
		L101.4,43.1"></path>
	<path d="M114.9,33.9c0-1.1-0.1-1.6-0.4-2.1c-0.4-0.6-0.9-0.8-1.6-0.8c-1.4,0-2.2,1.1-2.2,3.1V34h4.3L114.9,33.9
		L114.9,33.9z M110.6,36.7v0.1c0,2.2,1.1,3.4,3,3.4c1.3,0,2.5-0.5,3.6-1.4l1.4,2.2c-1.6,1.3-3.4,2-5.4,2c-4.1,0-6.7-2.9-6.7-7.4
		c0-2.6,0.5-4.2,1.8-5.6c1.2-1.3,2.6-1.9,4.5-1.9c1.6,0,3.2,0.6,4.1,1.5c1.3,1.3,1.9,3.2,1.9,6.2v0.9L110.6,36.7"></path>
	<path d="M129.3,33.9c0-1.1-0.1-1.6-0.4-2.1c-0.4-0.6-0.9-0.8-1.6-0.8c-1.4,0-2.2,1.1-2.2,3.1V34h4.3L129.3,33.9
		L129.3,33.9z M124.9,36.7v0.1c0,2.2,1.1,3.4,3,3.4c1.3,0,2.5-0.5,3.6-1.4l1.4,2.2c-1.6,1.3-3.4,2-5.4,2c-4.1,0-6.7-2.9-6.7-7.4
		c0-2.6,0.5-4.2,1.8-5.6c1.2-1.3,2.6-1.9,4.5-1.9c1.6,0,3.2,0.6,4.1,1.5c1.3,1.3,1.9,3.2,1.9,6.2v0.9L124.9,36.7"></path>
	<path d="M143.7,42.7v-9.2c0-1.6-0.3-2.1-1.2-2.1c-0.8,0-1.7,0.5-2.6,1.3v10h-3.7V32.4c0-1.2-0.2-2.4-0.5-3.3l3.3-0.9
		c0.3,0.6,0.5,1.2,0.5,1.8c0.6-0.4,1-0.7,1.6-1.1c0.8-0.4,1.7-0.6,2.6-0.6c1.6,0,3,0.8,3.4,2.1c0.2,0.5,0.3,1.1,0.3,2v10.4
		L143.7,42.7"></path>
	<path d="M155.8,43.1c-1.7,0-3.7-0.6-5.7-1.6l1.3-2.7c1.1,0.7,3.1,1.6,4.7,1.6c1.1,0,1.9-0.7,1.9-1.6
		c0-1-0.7-1.5-2.2-1.7l-1.7-0.3c-0.9-0.2-2.1-0.8-2.6-1.4c-0.5-0.6-0.8-1.6-0.8-2.6c0-2.8,2.2-4.6,5.5-4.6c2.3,0,3.8,0.7,5.1,1.3
		l-1.2,2.5c-1.4-0.7-2.4-1-3.5-1c-1.1,0-1.8,0.6-1.8,1.4c0,0.7,0.5,1.1,1.8,1.4l1.7,0.4c1.7,0.4,2.3,1,2.8,1.6
		c0.5,0.7,0.8,1.5,0.8,2.4C161.8,41.1,159.4,43.1,155.8,43.1"></path>
	<path d="M168.4,43c-1.6,0-2.9-0.7-3.3-1.9c-0.3-0.7-0.3-1.2-0.3-3.2V27.3c0-1.9-0.1-3-0.2-4.3l3.8-0.9
		c0.1,0.8,0.2,1.7,0.2,3.7v11.1c0,2.4,0,2.8,0.3,3.2c0.1,0.3,0.4,0.4,0.7,0.4c0.1,0,0.2,0,0.4-0.1l0.6,2.2
		C170,42.9,169.2,43,168.4,43"></path>
	<path d="M179.3,36.5c-2.6,0-3.5,0.5-3.5,2.2c0,1.1,0.7,1.9,1.6,1.9c0.7,0,1.4-0.4,1.9-1l0.1-3.1H179.3z M182.4,43.4
		c-0.9-0.4-1.6-1-2-1.7c-0.3,0.3-0.6,0.6-0.9,0.7c-0.7,0.5-1.7,0.8-2.9,0.8c-3.2,0-4.9-1.6-4.9-4.4c0-3.3,2.3-4.9,6.8-4.9
		c0.3,0,0.5,0,0.8,0v-0.6c0-1.6-0.3-2.1-1.7-2.1c-1.2,0-2.6,0.6-4.1,1.6l-1.6-2.7c0.8-0.5,1.3-0.8,2.3-1.2c1.4-0.6,2.6-0.8,3.9-0.8
		c2.4,0,4,0.9,4.6,2.5c0.2,0.6,0.3,1,0.3,2.6l-0.1,4.8c0,1.6,0.1,2.2,1.3,3.2L182.4,43.4"></path>
	<path d="M194.9,42.7v-9.2c0-1.6-0.3-2.1-1.3-2.1c-0.8,0-1.7,0.5-2.6,1.3v10h-3.7V32.4c0-1.2-0.2-2.4-0.5-3.3l3.3-0.9
		c0.3,0.6,0.5,1.2,0.5,1.8c0.6-0.4,1-0.7,1.6-1.1c0.8-0.4,1.7-0.6,2.6-0.6c1.6,0,3,0.8,3.4,2.1c0.2,0.5,0.3,1.1,0.3,2v10.4
		L194.9,42.7"></path>
	<path d="M210.5,32.2c-0.7-0.6-1.4-0.9-2-0.9c-1.7,0-2.4,1.4-2.4,4.6c0,3.1,0.6,4.1,2.6,4.1c0.7,0,1.5-0.5,1.8-0.9
		L210.5,32.2L210.5,32.2z M211.3,42.7c-0.1-0.2-0.2-0.4-0.2-0.8c-0.9,0.8-2,1.2-3.3,1.2c-3.6,0-5.9-2.8-5.9-7.2
		c0-4.4,2.5-7.5,6.1-7.5c1,0,1.8,0.3,2.5,0.8c-0.1-0.3-0.1-1.3-0.1-2.1v-4.9l3.7,0.6v14.8c0,3.5,0.3,4.6,0.5,5.2H211.3"></path>
	<path d="M231.6,43c-2.4,0-4.4-0.8-5.9-2.4c-1.6-1.8-2.4-4.1-2.4-7.4c0-3.6,1-6.2,2.9-8c1.4-1.2,3-1.8,5-1.8
		c2,0,3.8,0.6,5.2,1.9l-1,1.4c-1.6-1.1-2.7-1.5-4.1-1.5c-2.2,0-4,1-4.7,3.2c-0.5,1.4-0.8,3-0.8,4.8c0,2.5,0.5,4.5,1.3,5.8
		c0.9,1.2,2.8,2,4.6,2c1.2,0,2.2-0.3,3-0.8v-5.8H231l-0.4-1.9h6.4v8.9C235.6,42.4,233.6,43,231.6,43"></path>
	<path d="M248.8,32c-0.6-1.2-1.8-1.8-2.9-1.8c-1.2,0-2.4,0.6-2.8,1.5c-0.4,0.9-0.7,2-0.7,3.6c0,1.9,0.3,3.7,0.9,4.5
		c0.5,0.8,1.6,1.4,2.8,1.4c1.4,0,2.5-0.8,3-2.1c0.3-0.9,0.4-1.6,0.4-3C249.5,34.2,249.3,32.9,248.8,32L248.8,32z M246,43
		c-3.8,0-6-2.8-6-7.4c0-4.5,2.2-7.2,5.9-7.2c2.3,0,3.8,1.1,4.7,2.4c0.9,1.3,1.3,2.9,1.3,5.1C251.9,40.6,249.5,43,246,43"></path>
	<path d="M259.9,42.8h-2.1l-5-13.9l2.2-0.5l3.2,9.5c0.4,1.1,0.7,2.4,0.7,2.4h0.1c0,0,0.2-1.1,0.7-2.3l3.2-9.2h2.3
		L259.9,42.8"></path>
	<path d="M274.4,31.4c-0.5-0.8-1.4-1.2-2.5-1.2c-2,0-3.1,1.4-3.2,4.3h6.3C275,33,274.8,32.1,274.4,31.4z M268.7,36.1
		v0.3c0,1.3,0.2,2.3,0.6,3c0.8,1.2,2.1,1.7,3.4,1.7c1.3,0,2.4-0.4,3.4-1.3l0.8,1.4c-1.2,1.1-2.9,1.7-4.7,1.7c-3.8,0-6.1-2.8-6.1-7.4
		c0-2.3,0.5-3.8,1.7-5.2c1.1-1.3,2.5-1.9,4.1-1.9c1.5,0,2.8,0.5,3.7,1.5c1.2,1.2,1.6,2.5,1.6,5.8v0.3L268.7,36.1"></path>
	<path d="M286.4,30.9c-0.1-0.1-0.4-0.1-0.6-0.1c-0.8,0-1.7,0.4-2.3,1c-0.6,0.6-0.8,1.1-0.8,2.2v8.7h-2.2V32
		c0-2-0.5-2.9-0.5-2.9l2.2-0.6c0,0,0.5,1.1,0.4,2.2c1-1.4,2.5-2.3,3.9-2.3c0.4,0,0.7,0.1,0.7,0.1L286.4,30.9"></path>
	<path d="M296.5,42.7v-9.4c0-1.5-0.1-1.8-0.5-2.3c-0.3-0.4-0.9-0.6-1.5-0.6c-1.1,0-2.8,0.9-3.8,1.9v10.3h-2.1V32
		c0-2-0.5-2.9-0.5-2.9l2.1-0.6c0,0,0.5,1,0.5,2.2c1.4-1.4,2.9-2.1,4.4-2.1c1.5,0,2.8,0.8,3.4,2c0.2,0.5,0.3,1.1,0.3,1.6v10.5
		L296.5,42.7"></path>
	<path d="M318,42.7V32.5c0-1.3-0.6-2-1.8-2c-1.2,0-2.2,0.8-3.7,2.1v10.1h-2.2v-9.8c0-0.8-0.1-1.4-0.4-1.8
		c-0.3-0.4-0.8-0.6-1.4-0.6c-1.1,0-2.1,0.5-3.5,1.8v10.3H303V32c0-2-0.5-2.9-0.5-2.9l2.1-0.5c0,0,0.5,1.1,0.5,2.1
		c0.9-1,2.6-2.1,4-2.1c1.4,0,2.7,0.8,3.2,2.3c1.3-1.4,3-2.3,4.4-2.3c2.1,0,3.5,1.6,3.5,3.7v10.4L318,42.7"></path>
	<path d="M331.9,31.4c-0.5-0.8-1.4-1.2-2.5-1.2c-2,0-3.1,1.4-3.2,4.3h6.3C332.5,33,332.3,32.1,331.9,31.4z M326.2,36.1
		v0.3c0,1.3,0.2,2.3,0.6,3c0.8,1.2,2.1,1.7,3.4,1.7c1.3,0,2.4-0.4,3.4-1.3l0.8,1.4c-1.2,1.1-2.9,1.7-4.7,1.7c-3.8,0-6.1-2.8-6.1-7.4
		c0-2.3,0.5-3.8,1.7-5.2c1.1-1.3,2.5-1.9,4.1-1.9c1.5,0,2.8,0.5,3.7,1.5c1.2,1.2,1.6,2.5,1.6,5.8v0.3L326.2,36.1"></path>
	<path d="M346,42.7v-9.4c0-1.5-0.1-1.8-0.5-2.3c-0.3-0.4-0.9-0.6-1.5-0.6c-1.1,0-2.8,0.9-3.8,1.9v10.3H338V32
		c0-2-0.5-2.9-0.5-2.9l2.1-0.6c0,0,0.5,1,0.5,2.2c1.4-1.4,2.9-2.1,4.4-2.1c1.5,0,2.8,0.8,3.4,2c0.2,0.5,0.3,1.1,0.3,1.6v10.5
		L346,42.7"></path>
	<path d="M357.5,30.5h-2.9v8.9c0,1.5,0.4,2.1,1.8,2.1c0.6,0,1-0.1,1.4-0.3l0.3,1.4c-0.7,0.4-1.5,0.6-2.4,0.6
		c-0.7,0-1.3-0.1-1.8-0.4c-1-0.5-1.3-1.4-1.3-2.7v-9.5h-1.8v-1.6h1.8c0-1.3,0.2-3.5,0.2-3.5l2.3-0.5c0,0-0.3,2.2-0.3,4h3.5
		L357.5,30.5"></path>
</svg>