<?xml version="1.0" encoding="UTF-8" standalone="no"?>
<svg
   xmlns:dc="http://purl.org/dc/elements/1.1/"
   xmlns:cc="http://creativecommons.org/ns#"
   xmlns:rdf="http://www.w3.org/1999/02/22-rdf-syntax-ns#"
   xmlns:svg="http://www.w3.org/2000/svg"
   xmlns="http://www.w3.org/2000/svg"
   xmlns:sodipodi="http://sodipodi.sourceforge.net/DTD/sodipodi-0.dtd"
   xmlns:inkscape="http://www.inkscape.org/namespaces/inkscape"
   inkscape:version="1.0.2 (e86c870879, 2021-01-15)"
   sodipodi:docname="logo-text.svg"
   id="svg8"
   version="1.1"
   viewBox="0 0 104.43515 19.040583"
   height="19.040585mm"
   width="104.43516mm">
  <defs
     id="defs2">
    <rect
       x="31.971518"
       y="140.23048"
       width="144.20036"
       height="81.721939"
       id="rect837" />
  </defs>
  <sodipodi:namedview
     id="base"
     pagecolor="#ffffff"
     bordercolor="#666666"
     borderopacity="1.0"
     inkscape:pageopacity="0.0"
     inkscape:pageshadow="2"
     inkscape:zoom="1.0323759"
     inkscape:cx="200.05429"
     inkscape:cy="118.18123"
     inkscape:document-units="mm"
     inkscape:current-layer="text861"
     inkscape:document-rotation="0"
     showgrid="false"
     showguides="true"
     inkscape:guide-bbox="true"
     inkscape:window-width="1128"
     inkscape:window-height="694"
     inkscape:window-x="0"
     inkscape:window-y="0"
     inkscape:window-maximized="1"
     fit-margin-top="0"
     fit-margin-left="0"
     fit-margin-right="0"
     fit-margin-bottom="0">
    <sodipodi:guide
       position="0.5716871,331.32538"
       orientation="1,0"
       id="guide863" />
    <sodipodi:guide
       position="105.33347,14.361064"
       orientation="1,0"
       id="guide837" />
  </sodipodi:namedview>
  <metadata
     id="metadata5">
    <rdf:RDF>
      <cc:Work
         rdf:about="">
        <dc:format>image/svg+xml</dc:format>
        <dc:type
           rdf:resource="http://purl.org/dc/dcmitype/StillImage" />
        <dc:title />
      </cc:Work>
    </rdf:RDF>
  </metadata>
  <g
     inkscape:label="Layer 1"
     inkscape:groupmode="layer"
     id="layer1"
     transform="translate(-16.879552,-96.913399)">
    <g
       aria-label="Bats and Trees
"
       id="text855"
       style="font-style:normal;font-variant:normal;font-weight:normal;font-stretch:normal;font-size:10.5833px;line-height:1.25;font-family:Copperplate;-inkscape-font-specification:'Copperplate, Normal';font-variant-ligatures:normal;font-variant-caps:normal;font-variant-numeric:normal;font-variant-east-asian:normal;fill:#000000;fill-opacity:1;stroke:none;stroke-width:0.264583">
      <path
         d="m 17.407665,104.30052 v -0.17053 q 0.193786,-0.0465 0.260965,-0.14211 0.06718,-0.0982 0.06718,-0.30231 v -5.829079 q 0,-0.206705 -0.06718,-0.302306 -0.06718,-0.0956 -0.260965,-0.14211 v -0.170531 h 4.201281 q 0.550352,0 0.979265,0.08527 0.431497,0.08527 0.767393,0.338479 0.338479,0.25063 0.52193,0.635618 0.186035,0.384988 0.186035,0.813901 0,1.049032 -0.994769,1.514112 0.58911,0.20154 0.91467,0.63304 0.325561,0.43149 0.325561,1.04903 0,0.45216 -0.183451,0.86557 -0.183451,0.41341 -0.537433,0.66921 -0.405659,0.2868 -0.899167,0.37207 -0.490925,0.0827 -1.175635,0.0827 z m 1.142046,-4.01008 h 2.720755 q 0.953427,0 1.397843,-0.17053 0.286804,-0.126605 0.454752,-0.382403 0.167947,-0.258381 0.167947,-0.571022 0,-0.33848 -0.160196,-0.622699 -0.160196,-0.28422 -0.462503,-0.423746 -0.454751,-0.201537 -1.449519,-0.201537 h -2.669079 z m 0,3.34346 h 2.826692 q 1.005103,0 1.459854,-0.20154 0.310058,-0.14211 0.483173,-0.42633 0.173116,-0.2868 0.173116,-0.63045 0,-0.38757 -0.165364,-0.70538 -0.165364,-0.31781 -0.490925,-0.48059 -0.315225,-0.15761 -0.653705,-0.19379 -0.338479,-0.0387 -0.857826,-0.0387 h -2.775015 z"
         style="font-style:normal;font-variant:normal;font-weight:normal;font-stretch:normal;font-size:10.5833px;font-family:Copperplate;-inkscape-font-specification:'Copperplate, Normal';font-variant-ligatures:normal;font-variant-caps:normal;font-variant-numeric:normal;font-variant-east-asian:normal;stroke-width:0.264583"
         id="path871" />
      <path
         d="m 29.621351,102.67014 h -3.03598 l -0.444416,0.97409 q -0.07493,0.16278 -0.07493,0.29714 0.01292,0.14986 0.263549,0.22221 v 0.13694 h -1.428849 v -0.13694 q 0.335896,-0.0724 0.519347,-0.45475 l 1.999871,-4.361478 q 0.160197,-0.364318 0.160197,-0.496093 0,-0.170531 -0.266133,-0.191202 v -0.149861 h 1.682063 v 0.149861 q -0.253214,0.04393 -0.253214,0.211873 0,0.08527 0.03101,0.178283 0.03359,0.09043 0.08526,0.193786 0.05168,0.103353 0.0956,0.188618 l 1.831923,3.999743 q 0.165364,0.34882 0.294555,0.52193 0.129191,0.17312 0.372069,0.20929 v 0.13694 H 29.93916 v -0.13694 q 0.242879,-0.0465 0.242879,-0.1912 0,-0.0336 -0.0078,-0.0543 -0.0078,-0.0233 -0.01809,-0.0439 -0.0078,-0.0207 -0.0155,-0.0387 z m -0.253213,-0.56069 -1.260901,-2.837029 -1.278988,2.837029 z"
         style="font-style:normal;font-variant:normal;font-weight:normal;font-stretch:normal;font-size:10.5833px;font-family:Copperplate;-inkscape-font-specification:'Copperplate, Normal';font-variant-ligatures:normal;font-variant-caps:normal;font-variant-numeric:normal;font-variant-east-asian:normal;stroke-width:0.264583"
         id="path873" />
      <path
         d="m 33.758036,99.073467 v 4.645693 q 0,0.20154 0.06976,0.29456 0.06976,0.0904 0.268716,0.14986 v 0.13694 h -1.408178 v -0.13694 q 0.19637,-0.0568 0.260965,-0.14728 0.06718,-0.093 0.06718,-0.29714 v -4.645693 h -1.8836 q -0.204121,0 -0.299722,0.07235 -0.0956,0.06976 -0.144694,0.266133 h -0.136942 v -1.227311 h 0.136942 q 0.04909,0.186034 0.144694,0.255797 0.09819,0.06976 0.299722,0.06976 h 4.51909 q 0.198953,0 0.294555,-0.06976 0.0956,-0.07235 0.139526,-0.255797 h 0.147277 v 1.227311 h -0.147277 q -0.04393,-0.193786 -0.14211,-0.266133 -0.09819,-0.07235 -0.302306,-0.07235 z"
         style="font-style:normal;font-variant:normal;font-weight:normal;font-stretch:normal;font-size:10.5833px;font-family:Copperplate;-inkscape-font-specification:'Copperplate, Normal';font-variant-ligatures:normal;font-variant-caps:normal;font-variant-numeric:normal;font-variant-east-asian:normal;stroke-width:0.264583"
         id="path875" />
      <path
         d="m 42.540418,98.81767 -0.560687,1.121375 -0.126607,-0.05168 q 0.02067,-0.149862 0.02067,-0.222208 0,-0.09302 -0.09818,-0.157613 -0.09818,-0.06718 -0.229959,-0.129191 -0.702797,-0.37982 -1.692398,-0.37982 -0.741554,0 -1.377172,0.260965 -0.633035,0.258381 -0.633035,0.891418 0,0.25063 0.139526,0.45216 0.14211,0.19896 0.390156,0.28939 0.279052,0.0904 0.707965,0.12661 0.253214,0.008 0.552936,0.0233 0.302306,0.0155 0.485757,0.0207 0.69763,0.0233 1.105872,0.0775 0.408243,0.0517 0.754474,0.25063 0.32556,0.18603 0.490924,0.51676 0.165364,0.32814 0.165364,0.72088 0,0.62012 -0.41341,1.02578 -0.41341,0.40307 -1.030941,0.58911 -0.614948,0.18345 -1.211809,0.18345 -1.030941,0 -1.95853,-0.36949 -0.449584,-0.18086 -0.782896,-0.35915 -0.07235,-0.0543 -0.116271,-0.0543 -0.07235,0 -0.188619,0.11627 l -0.05426,0.0646 -0.116272,-0.0749 0.656289,-1.1007 0.126607,0.0646 q -0.05168,0.0517 -0.05168,0.22221 0,0.0543 0.06201,0.12144 0.0646,0.0646 0.160197,0.1266 0.0956,0.062 0.18345,0.10852 0.09043,0.0465 0.12144,0.0646 0.888831,0.46767 1.927524,0.46767 0.428913,0 0.883665,-0.1111 0.454751,-0.11369 0.775144,-0.37982 0.320392,-0.26872 0.320392,-0.70539 0,-0.24029 -0.139525,-0.44183 -0.136943,-0.20412 -0.359151,-0.28938 -0.219624,-0.0724 -0.457335,-0.10336 -0.23771,-0.031 -0.612363,-0.0413 -0.372069,-0.0129 -0.390156,-0.0129 -0.757057,-0.0362 -1.108456,-0.0698 -0.348815,-0.0336 -0.77256,-0.1757 -0.423746,-0.14469 -0.689878,-0.45992 -0.266133,-0.31522 -0.266133,-0.85007 0,-0.620118 0.410826,-1.020609 0.410826,-0.403075 1.020606,-0.586526 0.60978,-0.183451 1.204057,-0.183451 1.178219,0 2.266005,0.488341 0.155029,0.06201 0.180867,0.06201 0.103352,0 0.198953,-0.188619 z"
         style="font-style:normal;font-variant:normal;font-weight:normal;font-stretch:normal;font-size:10.5833px;font-family:Copperplate;-inkscape-font-specification:'Copperplate, Normal';font-variant-ligatures:normal;font-variant-caps:normal;font-variant-numeric:normal;font-variant-east-asian:normal;stroke-width:0.264583"
         id="path877" />
      <path
         d="m 51.537256,102.67014 h -3.03598 l -0.444416,0.97409 q -0.07493,0.16278 -0.07493,0.29714 0.01292,0.14986 0.263549,0.22221 v 0.13694 h -1.428849 v -0.13694 q 0.335896,-0.0724 0.519347,-0.45475 l 1.999871,-4.361478 q 0.160197,-0.364318 0.160197,-0.496093 0,-0.170531 -0.266133,-0.191202 v -0.149861 h 1.682063 v 0.149861 q -0.253214,0.04393 -0.253214,0.211873 0,0.08527 0.03101,0.178283 0.03359,0.09043 0.08526,0.193786 0.05168,0.103353 0.0956,0.188618 l 1.831923,3.999743 q 0.165364,0.34882 0.294555,0.52193 0.129191,0.17312 0.372069,0.20929 v 0.13694 h -1.514115 v -0.13694 q 0.242879,-0.0465 0.242879,-0.1912 0,-0.0336 -0.0078,-0.0543 -0.0078,-0.0233 -0.01809,-0.0439 -0.0078,-0.0207 -0.0155,-0.0387 z m -0.253213,-0.56069 -1.260901,-2.837029 -1.278988,2.837029 z"
         style="font-style:normal;font-variant:normal;font-weight:normal;font-stretch:normal;font-size:10.5833px;font-family:Copperplate;-inkscape-font-specification:'Copperplate, Normal';font-variant-ligatures:normal;font-variant-caps:normal;font-variant-numeric:normal;font-variant-east-asian:normal;stroke-width:0.264583"
         id="path879" />
      <path
         d="m 54.901381,99.422282 v 4.296878 q 0,0.20413 0.0646,0.29714 0.06718,0.0904 0.263549,0.14728 v 0.13694 h -1.278988 v -0.13694 q 0.19637,-0.0568 0.260965,-0.14728 0.06718,-0.093 0.06718,-0.29714 v -4.614687 q 0,-0.206705 -0.06718,-0.302306 -0.06718,-0.0956 -0.260965,-0.14211 v -0.149861 h 1.8836 v 0.149861 q -0.276468,0.06718 -0.276468,0.242879 0,0.170531 0.201537,0.392739 l 3.40805,3.818875 v -4.010077 q 0,-0.206705 -0.06718,-0.302306 -0.06718,-0.0956 -0.260965,-0.14211 v -0.149861 h 1.281571 v 0.149861 q -0.193786,0.04651 -0.260965,0.14211 -0.06718,0.0956 -0.06718,0.302306 v 4.614687 q 0,0.20413 0.06459,0.29714 0.06718,0.0904 0.263549,0.14728 v 0.13694 H 58.60657 v -0.13694 q 0.147277,-0.0491 0.204121,-0.0801 0.05943,-0.031 0.05943,-0.12144 0,-0.1111 -0.05943,-0.18603 -0.05943,-0.0749 -0.193786,-0.21704 z"
         style="font-style:normal;font-variant:normal;font-weight:normal;font-stretch:normal;font-size:10.5833px;font-family:Copperplate;-inkscape-font-specification:'Copperplate, Normal';font-variant-ligatures:normal;font-variant-caps:normal;font-variant-numeric:normal;font-variant-east-asian:normal;stroke-width:0.264583"
         id="path881" />
      <path
         d="m 61.368664,104.30052 v -0.13694 q 0.19637,-0.0568 0.260965,-0.14728 0.06718,-0.093 0.06718,-0.29714 v -4.614687 q 0,-0.206705 -0.06718,-0.302306 -0.06718,-0.0956 -0.260965,-0.14211 v -0.149861 h 2.930045 q 0.485757,0 0.875912,0.04651 0.390156,0.04651 0.762225,0.193786 0.374653,0.147277 0.669208,0.428913 0.289387,0.276468 0.490925,0.640785 0.204121,0.364321 0.30489,0.772561 0.103352,0.40566 0.103352,0.81907 0,0.63303 -0.232543,1.22731 -0.229959,0.59428 -0.666624,0.99477 -0.449583,0.41082 -0.992184,0.54001 -0.542601,0.12661 -1.315161,0.12661 z m 1.067115,-0.56069 h 1.821589 q 0.410826,0 0.746722,-0.0465 0.338479,-0.0465 0.645953,-0.18862 0.310058,-0.14211 0.532266,-0.41083 0.550352,-0.65112 0.550352,-1.68206 0,-1.0697 -0.550352,-1.694983 -0.335896,-0.387572 -0.803566,-0.509011 -0.465087,-0.124023 -1.121375,-0.124023 h -1.821589 z"
         style="font-style:normal;font-variant:normal;font-weight:normal;font-stretch:normal;font-size:10.5833px;font-family:Copperplate;-inkscape-font-specification:'Copperplate, Normal';font-variant-ligatures:normal;font-variant-caps:normal;font-variant-numeric:normal;font-variant-east-asian:normal;stroke-width:0.264583"
         id="path883" />
      <path
         d="m 75.814767,97.918503 v 5.767067 q 0,0.20154 0.06976,0.29973 0.06976,0.0982 0.258381,0.14469 v 0.17053 h -1.470189 v -0.17053 q 0.193786,-0.0439 0.260965,-0.14211 0.06718,-0.0982 0.06718,-0.30231 V 97.918503 H 72.61859 q -0.204121,0 -0.299722,0.06718 -0.0956,0.06718 -0.144694,0.260965 h -0.167948 v -1.333248 h 0.167948 q 0.04909,0.193786 0.144694,0.260966 0.0956,0.06718 0.299722,0.06718 h 5.588788 q 0.198954,0 0.297139,-0.06718 0.100769,-0.06718 0.147277,-0.260966 h 0.160197 v 1.333248 h -0.160197 q -0.04651,-0.193786 -0.147277,-0.260965 -0.09819,-0.06718 -0.297139,-0.06718 z"
         style="font-style:normal;font-variant:normal;font-weight:normal;font-stretch:normal;font-size:10.5833px;font-family:Copperplate;-inkscape-font-specification:'Copperplate, Normal';font-variant-ligatures:normal;font-variant-caps:normal;font-variant-numeric:normal;font-variant-east-asian:normal;stroke-width:0.264583"
         id="path885" />
      <path
         d="m 79.96437,101.6857 v 2.03346 q 0,0.20154 0.06976,0.29456 0.06976,0.0904 0.268717,0.14986 v 0.13694 h -1.405595 v -0.13694 q 0.19637,-0.0568 0.260966,-0.14728 0.06718,-0.093 0.06718,-0.29714 v -4.614687 q 0,-0.206705 -0.06718,-0.302306 -0.06718,-0.0956 -0.260966,-0.14211 v -0.149861 h 3.439056 q 0.514179,0 0.901751,0.07235 0.387572,0.06976 0.695046,0.299722 0.289387,0.206705 0.447,0.524514 0.157612,0.317809 0.157612,0.682131 0,1.37458 -1.651057,1.54512 l 1.44952,2.29701 q 0.121439,0.19378 0.41341,0.24287 v 0.12661 h -1.428849 v -0.13694 q 0.201537,-0.0568 0.201537,-0.12661 0,-0.0439 -0.116271,-0.25579 l -1.335832,-2.09548 z m 0,-0.57102 h 2.211745 q 0.79323,0 1.222143,-0.16795 0.428913,-0.16795 0.428913,-0.82682 0,-0.229958 -0.100768,-0.444414 -0.09819,-0.214457 -0.279052,-0.348815 -0.364318,-0.242878 -1.196306,-0.242878 H 79.96437 Z"
         style="font-style:normal;font-variant:normal;font-weight:normal;font-stretch:normal;font-size:10.5833px;font-family:Copperplate;-inkscape-font-specification:'Copperplate, Normal';font-variant-ligatures:normal;font-variant-caps:normal;font-variant-numeric:normal;font-variant-east-asian:normal;stroke-width:0.264583"
         id="path887" />
      <path
         d="m 86.71588,101.5901 v 2.1394 h 3.578581 q 0.204122,0 0.302307,-0.0672 0.09818,-0.0698 0.142109,-0.26097 h 0.147278 v 1.22732 h -0.147278 q -0.04393,-0.19121 -0.142109,-0.26097 -0.09819,-0.0672 -0.302307,-0.0672 h -4.645696 v -0.14728 q 0.193786,-0.0491 0.260965,-0.14469 0.06718,-0.0956 0.06718,-0.29972 v -4.614692 q 0,-0.206705 -0.06718,-0.302306 -0.06718,-0.0956 -0.260965,-0.14211 v -0.139526 h 4.612107 q 0.204121,0 0.299722,-0.06976 0.09819,-0.07235 0.144694,-0.255797 h 0.139526 v 1.227311 h -0.139526 q -0.04393,-0.193786 -0.14211,-0.266133 -0.0956,-0.07235 -0.302306,-0.07235 H 86.71588 v 1.955943 h 2.255669 q 0.204121,0 0.299722,-0.0723 0.09819,-0.0724 0.144694,-0.26614 h 0.147277 v 1.22732 h -0.147277 q -0.04651,-0.18604 -0.144694,-0.2558 -0.0956,-0.0724 -0.299722,-0.0724 z"
         style="font-style:normal;font-variant:normal;font-weight:normal;font-stretch:normal;font-size:10.5833px;font-family:Copperplate;-inkscape-font-specification:'Copperplate, Normal';font-variant-ligatures:normal;font-variant-caps:normal;font-variant-numeric:normal;font-variant-east-asian:normal;stroke-width:0.264583"
         id="path889" />
      <path
         d="m 93.022963,101.5901 v 2.1394 h 3.578581 q 0.204122,0 0.302307,-0.0672 0.09819,-0.0698 0.142109,-0.26097 h 0.147278 v 1.22732 H 97.04596 q -0.04392,-0.19121 -0.142109,-0.26097 -0.09819,-0.0672 -0.302307,-0.0672 h -4.645696 v -0.14728 q 0.193786,-0.0491 0.260965,-0.14469 0.06718,-0.0956 0.06718,-0.29972 v -4.614692 q 0,-0.206705 -0.06718,-0.302306 -0.06718,-0.0956 -0.260965,-0.14211 v -0.139526 h 4.612107 q 0.204121,0 0.299722,-0.06976 0.09819,-0.07235 0.144694,-0.255797 h 0.139526 v 1.227311 h -0.139526 q -0.04393,-0.193786 -0.14211,-0.266133 -0.0956,-0.07235 -0.302306,-0.07235 h -3.544992 v 1.955943 h 2.255669 q 0.204121,0 0.299722,-0.0723 0.09819,-0.0724 0.144694,-0.26614 h 0.147277 v 1.22732 h -0.147277 q -0.04651,-0.18604 -0.144694,-0.2558 -0.0956,-0.0724 -0.299722,-0.0724 z"
         style="font-style:normal;font-variant:normal;font-weight:normal;font-stretch:normal;font-size:10.5833px;font-family:Copperplate;-inkscape-font-specification:'Copperplate, Normal';font-variant-ligatures:normal;font-variant-caps:normal;font-variant-numeric:normal;font-variant-east-asian:normal;stroke-width:0.264583"
         id="path891" />
      <path
         d="m 103.76388,98.81767 -0.56069,1.121375 -0.12661,-0.05168 q 0.0207,-0.149862 0.0207,-0.222208 0,-0.09302 -0.0982,-0.157613 -0.0982,-0.06718 -0.22996,-0.129191 -0.7028,-0.37982 -1.6924,-0.37982 -0.74155,0 -1.377171,0.260965 -0.633034,0.258381 -0.633034,0.891418 0,0.25063 0.139526,0.45216 0.142109,0.19896 0.390155,0.28939 0.279052,0.0904 0.707964,0.12661 0.25322,0.008 0.55294,0.0233 0.3023,0.0155 0.48575,0.0207 0.69763,0.0233 1.10588,0.0775 0.40824,0.0517 0.75447,0.25063 0.32556,0.18603 0.49092,0.51676 0.16537,0.32814 0.16537,0.72088 0,0.62012 -0.41341,1.02578 -0.41341,0.40307 -1.03094,0.58911 -0.61495,0.18345 -1.21181,0.18345 -1.03094,0 -1.958532,-0.36949 -0.449584,-0.18086 -0.782896,-0.35915 -0.07235,-0.0543 -0.116271,-0.0543 -0.07235,0 -0.188619,0.11627 l -0.05426,0.0646 -0.116271,-0.0749 0.656288,-1.1007 0.126607,0.0646 q -0.05168,0.0517 -0.05168,0.22221 0,0.0543 0.06201,0.12144 0.0646,0.0646 0.160197,0.1266 0.0956,0.062 0.183451,0.10852 0.09043,0.0465 0.121439,0.0646 0.888832,0.46767 1.927522,0.46767 0.42892,0 0.88367,-0.1111 0.45475,-0.11369 0.77514,-0.37982 0.32039,-0.26872 0.32039,-0.70539 0,-0.24029 -0.13952,-0.44183 -0.13694,-0.20412 -0.35915,-0.28938 -0.21963,-0.0724 -0.45734,-0.10336 -0.23771,-0.031 -0.61236,-0.0413 -0.37207,-0.0129 -0.39016,-0.0129 -0.75705,-0.0362 -1.10845,-0.0698 -0.348818,-0.0336 -0.772563,-0.1757 -0.423745,-0.14469 -0.689878,-0.45992 -0.266133,-0.31522 -0.266133,-0.85007 0,-0.620118 0.410826,-1.020609 0.410827,-0.403075 1.020607,-0.586526 0.609781,-0.183451 1.204061,-0.183451 1.17821,0 2.266,0.488341 0.15503,0.06201 0.18087,0.06201 0.10335,0 0.19895,-0.188619 z"
         style="font-style:normal;font-variant:normal;font-weight:normal;font-stretch:normal;font-size:10.5833px;font-family:Copperplate;-inkscape-font-specification:'Copperplate, Normal';font-variant-ligatures:normal;font-variant-caps:normal;font-variant-numeric:normal;font-variant-east-asian:normal;stroke-width:0.264583"
         id="path893" />
    </g>
    <g
       aria-label="Society of Cairns"
       id="text861"
       style="font-style:normal;font-variant:normal;font-weight:normal;font-stretch:normal;font-size:10.5833px;line-height:1.25;font-family:Copperplate;-inkscape-font-specification:'Copperplate, Normal';font-variant-ligatures:normal;font-variant-caps:normal;font-variant-numeric:normal;font-variant-east-asian:normal;fill:#000000;fill-opacity:1;stroke:none;stroke-width:0.264583">
      <path
         d="m 23.853264,109.01128 -0.741554,1.33324 -0.147277,-0.0853 q 0.08526,-0.17053 0.08526,-0.27389 0,-0.16794 -0.382404,-0.33847 -1.041277,-0.48835 -2.126478,-0.48835 -1.02319,0 -1.736323,0.3514 -0.310058,0.15245 -0.524514,0.42375 -0.214457,0.2713 -0.214457,0.59169 0,0.27389 0.152445,0.50901 0.152445,0.23513 0.408243,0.34882 0.353982,0.15761 0.738971,0.18862 0.229959,0.0258 1.165299,0.0749 1.154965,0.0207 1.725988,0.10593 0.790647,0.12919 1.24023,0.58394 0.452168,0.45476 0.452168,1.23507 0,0.28938 -0.103353,0.56844 -0.100769,0.27905 -0.279052,0.51676 -0.175699,0.23513 -0.410826,0.41858 -0.912086,0.67696 -2.433952,0.67696 -1.545121,0 -2.837027,-0.67696 -0.485757,-0.28681 -0.614948,-0.28681 -0.07235,0 -0.253214,0.18087 l -0.136942,-0.0853 0.77256,-1.28932 0.147278,0.0724 q -0.0956,0.19637 -0.0956,0.2868 0,0.0904 0.121439,0.1912 0.124023,0.0982 0.299722,0.19379 0.178283,0.093 0.235127,0.12144 0.602029,0.31264 1.100705,0.43408 0.519346,0.14986 1.237646,0.14986 1.315161,0 1.99212,-0.57102 0.444416,-0.38757 0.444416,-0.8785 0,-1.05678 -1.715652,-1.13429 l -1.080034,-0.0413 q -0.767392,-0.0207 -1.297074,-0.10336 -0.529682,-0.0827 -0.989601,-0.34106 -0.369485,-0.21446 -0.581358,-0.58911 -0.211872,-0.37724 -0.211872,-0.7984 0,-0.76739 0.511595,-1.24798 0.514179,-0.48059 1.266068,-0.68471 0.754474,-0.20412 1.514115,-0.20412 1.322912,0 2.68975,0.61236 0.175699,0.0749 0.209289,0.0749 0.07235,0 0.255797,-0.20153 z"
         style="font-style:normal;font-variant:normal;font-weight:normal;font-stretch:normal;font-size:10.5833px;font-family:Copperplate;-inkscape-font-specification:'Copperplate, Normal';font-variant-ligatures:normal;font-variant-caps:normal;font-variant-numeric:normal;font-variant-east-asian:normal;stroke-width:0.264583"
         id="path896" />
      <path
         d="m 31.834664,112.73714 q 0,0.63561 -0.263549,1.21956 -0.260965,0.58135 -0.741554,0.99218 -0.953427,0.80357 -2.477877,0.80357 -1.534785,0 -2.485629,-0.80357 -0.478005,-0.40824 -0.744138,-0.99218 -0.263549,-0.58395 -0.263549,-1.21956 0,-0.64079 0.263549,-1.22215 0.266133,-0.58394 0.744138,-0.9896 0.488341,-0.41599 1.129127,-0.60978 0.640785,-0.19637 1.356502,-0.19637 1.52445,0 2.477877,0.80615 0.480589,0.40824 0.741554,0.9896 0.263549,0.58136 0.263549,1.22215 z m -0.77256,0 q 0,-0.73122 -0.372069,-1.28158 -0.369486,-0.55035 -0.994768,-0.83973 -0.622699,-0.29198 -1.343583,-0.29198 -0.726052,0 -1.353919,0.29198 -0.625282,0.28938 -0.997352,0.83973 -0.369485,0.55036 -0.369485,1.28158 0,0.73122 0.369485,1.28157 0.37207,0.55035 0.997352,0.84232 0.627867,0.28939 1.353919,0.28939 0.720884,0 1.343583,-0.28939 0.625282,-0.29197 0.994768,-0.84232 0.372069,-0.55035 0.372069,-1.28157 z"
         style="font-style:normal;font-variant:normal;font-weight:normal;font-stretch:normal;font-size:10.5833px;font-family:Copperplate;-inkscape-font-specification:'Copperplate, Normal';font-variant-ligatures:normal;font-variant-caps:normal;font-variant-numeric:normal;font-variant-east-asian:normal;stroke-width:0.264583"
         id="path898" />
      <path
         d="m 39.11585,110.26959 -0.645954,1.11363 -0.126606,-0.0749 q 0.04134,-0.14986 0.04134,-0.17053 0,-0.14728 -0.129191,-0.23513 -0.126607,-0.0904 -0.356566,-0.20929 -0.741555,-0.36949 -1.661392,-0.36949 -1.11104,0 -1.852595,0.60203 -0.82682,0.67955 -0.82682,1.86293 0,0.51676 0.25063,0.99735 0.25063,0.47801 0.671792,0.80357 0.707964,0.56069 1.767328,0.56069 0.509011,0 1.012855,-0.17053 0.503843,-0.17312 0.891415,-0.48576 0.0801,-0.0568 0.144694,-0.10852 0.06718,-0.0543 0.124023,-0.12402 0.05943,-0.0698 0.05943,-0.13953 0,-0.0517 -0.03876,-0.14728 -0.03876,-0.0982 -0.05684,-0.11627 l 0.116271,-0.0749 0.816485,1.02836 -0.105936,0.093 q -0.16278,-0.15762 -0.255798,-0.15762 -0.05684,0 -0.136942,0.0646 -0.568439,0.45475 -1.245398,0.69763 -0.676959,0.24288 -1.400427,0.24288 -1.426265,0 -2.328016,-0.74156 -0.490924,-0.40307 -0.775144,-0.99477 -0.284219,-0.59169 -0.284219,-1.22731 0,-0.72088 0.266133,-1.2919 0.268716,-0.57361 0.741554,-0.97152 0.475422,-0.39791 1.090369,-0.60203 0.617532,-0.20412 1.320329,-0.20412 1.260901,0 2.392611,0.61495 0.136942,0.0517 0.157613,0.0517 0.08268,0 0.235127,-0.17829 z"
         style="font-style:normal;font-variant:normal;font-weight:normal;font-stretch:normal;font-size:10.5833px;font-family:Copperplate;-inkscape-font-specification:'Copperplate, Normal';font-variant-ligatures:normal;font-variant-caps:normal;font-variant-numeric:normal;font-variant-east-asian:normal;stroke-width:0.264583"
         id="path900" />
      <path
         d="m 41.792681,115.4889 v 0.13694 h -1.405595 v -0.13694 q 0.19637,-0.0568 0.260965,-0.14728 0.06718,-0.093 0.06718,-0.29714 v -4.61469 q 0,-0.2067 -0.06718,-0.30231 -0.06718,-0.0956 -0.260965,-0.14211 v -0.14986 h 1.405595 v 0.14986 q -0.19637,0.0465 -0.268717,0.14211 -0.06976,0.0956 -0.06976,0.30231 v 4.61469 q 0,0.20154 0.06976,0.29456 0.06976,0.0904 0.268717,0.14986 z"
         style="font-style:normal;font-variant:normal;font-weight:normal;font-stretch:normal;font-size:10.5833px;font-family:Copperplate;-inkscape-font-specification:'Copperplate, Normal';font-variant-ligatures:normal;font-variant-caps:normal;font-variant-numeric:normal;font-variant-east-asian:normal;stroke-width:0.264583"
         id="path902" />
      <path
         d="m 44.100027,112.91542 v 2.1394 h 3.578582 q 0.204121,0 0.302306,-0.0672 0.09818,-0.0698 0.14211,-0.26097 h 0.147277 v 1.22731 h -0.147277 q -0.04393,-0.1912 -0.14211,-0.26096 -0.09819,-0.0672 -0.302306,-0.0672 h -4.645696 v -0.14728 q 0.193786,-0.0491 0.260965,-0.14469 0.06718,-0.0956 0.06718,-0.29972 v -4.61469 q 0,-0.20671 -0.06718,-0.30231 -0.06718,-0.0956 -0.260965,-0.14211 v -0.13953 h 4.612106 q 0.204122,0 0.299723,-0.0698 0.09819,-0.0724 0.144693,-0.2558 h 0.139526 v 1.22731 h -0.139526 q -0.04393,-0.19378 -0.142109,-0.26613 -0.0956,-0.0724 -0.302307,-0.0724 h -3.544992 v 1.95595 h 2.25567 q 0.204121,0 0.299722,-0.0724 0.09819,-0.0723 0.144693,-0.26613 h 0.147278 v 1.22731 h -0.147278 q -0.04651,-0.18603 -0.144693,-0.25579 -0.0956,-0.0724 -0.299722,-0.0724 z"
         style="font-style:normal;font-variant:normal;font-weight:normal;font-stretch:normal;font-size:10.5833px;font-family:Copperplate;-inkscape-font-specification:'Copperplate, Normal';font-variant-ligatures:normal;font-variant-caps:normal;font-variant-numeric:normal;font-variant-east-asian:normal;stroke-width:0.264583"
         id="path904" />
      <path
         d="m 52.122766,110.39878 v 4.6457 q 0,0.20154 0.06976,0.29456 0.06976,0.0904 0.268717,0.14986 v 0.13694 h -1.408178 v -0.13694 q 0.19637,-0.0568 0.260965,-0.14728 0.06718,-0.093 0.06718,-0.29714 v -4.6457 h -1.8836 q -0.204121,0 -0.299722,0.0724 -0.0956,0.0698 -0.144694,0.26613 h -0.136942 v -1.22731 h 0.136942 q 0.04909,0.18604 0.144694,0.2558 0.09819,0.0698 0.299722,0.0698 h 4.51909 q 0.198953,0 0.294554,-0.0698 0.0956,-0.0724 0.139526,-0.2558 h 0.147278 v 1.22731 h -0.147278 q -0.04392,-0.19378 -0.142109,-0.26613 -0.09819,-0.0724 -0.302307,-0.0724 z"
         style="font-style:normal;font-variant:normal;font-weight:normal;font-stretch:normal;font-size:10.5833px;font-family:Copperplate;-inkscape-font-specification:'Copperplate, Normal';font-variant-ligatures:normal;font-variant-caps:normal;font-variant-numeric:normal;font-variant-east-asian:normal;stroke-width:0.264583"
         id="path906" />
      <path
         d="m 58.515119,113.07562 v 1.96886 q 0,0.20154 0.06976,0.29456 0.06976,0.0904 0.268716,0.14986 v 0.13694 H 57.44542 v -0.13694 q 0.19637,-0.0568 0.260965,-0.14728 0.06718,-0.093 0.06718,-0.29714 v -1.96886 l -1.777663,-2.32802 q -0.28422,-0.3669 -0.441833,-0.52968 -0.155028,-0.16537 -0.405658,-0.23255 v -0.14986 h 1.630386 v 0.14986 q -0.222208,0.0207 -0.222208,0.19121 0,0.14727 0.136942,0.32814 l 1.52445,1.99987 1.377173,-1.99987 q 0.147277,-0.20154 0.147277,-0.29714 0,-0.20153 -0.232543,-0.22221 v -0.14986 h 1.514114 v 0.14986 q -0.25063,0.0646 -0.41341,0.24288 -0.258381,0.25838 -0.560687,0.67696 z"
         style="font-style:normal;font-variant:normal;font-weight:normal;font-stretch:normal;font-size:10.5833px;font-family:Copperplate;-inkscape-font-specification:'Copperplate, Normal';font-variant-ligatures:normal;font-variant-caps:normal;font-variant-numeric:normal;font-variant-east-asian:normal;stroke-width:0.264583"
         id="path908" />
      <path
         d="m 72.242922,112.73714 q 0,0.63561 -0.263549,1.21956 -0.260966,0.58135 -0.741555,0.99218 -0.953427,0.80357 -2.477877,0.80357 -1.534785,0 -2.485628,-0.80357 -0.478006,-0.40824 -0.744139,-0.99218 -0.263549,-0.58395 -0.263549,-1.21956 0,-0.64079 0.263549,-1.22215 0.266133,-0.58394 0.744139,-0.9896 0.48834,-0.41599 1.129126,-0.60978 0.640786,-0.19637 1.356502,-0.19637 1.52445,0 2.477877,0.80615 0.480589,0.40824 0.741555,0.9896 0.263549,0.58136 0.263549,1.22215 z m -0.772561,0 q 0,-0.73122 -0.372069,-1.28158 -0.369485,-0.55035 -0.994768,-0.83973 -0.622699,-0.29198 -1.343583,-0.29198 -0.726051,0 -1.353918,0.29198 -0.625283,0.28938 -0.997352,0.83973 -0.369485,0.55036 -0.369485,1.28158 0,0.73122 0.369485,1.28157 0.372069,0.55035 0.997352,0.84232 0.627867,0.28939 1.353918,0.28939 0.720884,0 1.343583,-0.28939 0.625283,-0.29197 0.994768,-0.84232 0.372069,-0.55035 0.372069,-1.28157 z"
         style="font-style:normal;font-variant:normal;font-weight:normal;font-stretch:normal;font-size:10.5833px;font-family:Copperplate;-inkscape-font-specification:'Copperplate, Normal';font-variant-ligatures:normal;font-variant-caps:normal;font-variant-numeric:normal;font-variant-east-asian:normal;stroke-width:0.264583"
         id="path910" />
      <path
         d="m 74.41074,112.91542 v 2.12906 q 0,0.20154 0.06976,0.29456 0.06976,0.0904 0.268716,0.14986 v 0.13694 h -1.405594 v -0.13694 q 0.196369,-0.0568 0.260965,-0.14728 0.06718,-0.093 0.06718,-0.29714 v -4.61469 q 0,-0.2067 -0.06718,-0.30231 -0.06718,-0.0956 -0.260965,-0.14211 v -0.14986 h 4.697372 q 0.206705,0 0.302307,-0.0672 0.09818,-0.0672 0.142109,-0.25838 h 0.139526 v 1.22731 h -0.139526 q -0.04392,-0.19378 -0.142109,-0.26096 -0.0956,-0.0672 -0.302307,-0.0672 H 74.41074 v 1.93528 h 2.361605 q 0.204121,0 0.302306,-0.0672 0.09819,-0.0698 0.14211,-0.26097 h 0.136942 v 1.22731 h -0.136942 q -0.04393,-0.1912 -0.14211,-0.25838 -0.09819,-0.0698 -0.302306,-0.0698 z"
         style="font-style:normal;font-variant:normal;font-weight:normal;font-stretch:normal;font-size:10.5833px;font-family:Copperplate;-inkscape-font-specification:'Copperplate, Normal';font-variant-ligatures:normal;font-variant-caps:normal;font-variant-numeric:normal;font-variant-east-asian:normal;stroke-width:0.264583"
         id="path912" />
      <path
         d="m 90.985907,109.19214 -0.759642,1.26866 -0.139526,-0.0853 q 0.04393,-0.13694 0.04393,-0.24288 0,-0.15503 -0.204121,-0.28422 -0.204121,-0.13177 -0.452167,-0.24546 -0.912086,-0.44442 -1.999872,-0.44442 -0.669208,0 -1.263485,0.19896 -0.594277,0.19637 -1.041276,0.57877 -0.447,0.38241 -0.69763,0.93276 -0.248046,0.55035 -0.248046,1.23248 0,0.60719 0.248046,1.15755 0.25063,0.55035 0.705381,0.95859 0.91467,0.82682 2.338351,0.82682 1.242814,0 2.253085,-0.76222 0.05684,-0.0439 0.170532,-0.12919 0.113688,-0.0879 0.198954,-0.18087 0.08785,-0.093 0.08785,-0.16795 0,-0.0801 -0.0956,-0.25321 l 0.136942,-0.10594 0.909503,1.12138 -0.126607,0.10593 q -0.157613,-0.1266 -0.232543,-0.1266 -0.06201,0 -0.201538,0.10593 -0.852658,0.63304 -1.47019,0.83716 -0.769976,0.26355 -1.715652,0.26355 -1.767328,0 -2.878368,-0.99477 -0.286803,-0.25838 -0.50126,-0.55035 -0.211872,-0.29198 -0.364317,-0.62529 -0.152445,-0.33589 -0.232544,-0.70021 -0.07751,-0.36432 -0.07751,-0.72605 0,-1.14463 0.547769,-1.98437 0.547768,-0.83974 1.483108,-1.27899 0.935341,-0.44183 2.067051,-0.44183 1.188554,0 2.16782,0.39016 0.343647,0.13694 0.643369,0.29713 0.299722,0.1602 0.310058,0.1602 0.04392,0 0.09043,-0.031 0.04651,-0.031 0.08268,-0.0723 0.03876,-0.0413 0.0801,-0.0879 z"
         style="font-style:normal;font-variant:normal;font-weight:normal;font-stretch:normal;font-size:10.5833px;font-family:Copperplate;-inkscape-font-specification:'Copperplate, Normal';font-variant-ligatures:normal;font-variant-caps:normal;font-variant-numeric:normal;font-variant-east-asian:normal;stroke-width:0.264583"
         id="path914" />
      <path
         d="m 96.48943,113.99545 h -3.035981 l -0.444416,0.9741 q -0.07493,0.16278 -0.07493,0.29714 0.01292,0.14986 0.263549,0.22221 v 0.13694 h -1.428848 v -0.13694 q 0.335895,-0.0724 0.519346,-0.45475 l 1.999872,-4.36148 q 0.160196,-0.36432 0.160196,-0.49609 0,-0.17053 -0.266133,-0.19121 v -0.14986 h 1.682063 v 0.14986 q -0.253214,0.0439 -0.253214,0.21188 0,0.0853 0.03101,0.17828 0.03359,0.0904 0.08527,0.19379 0.05168,0.10335 0.0956,0.18861 l 1.831923,3.99975 q 0.165364,0.34881 0.294555,0.52193 0.129191,0.17311 0.372069,0.20929 v 0.13694 h -1.514114 v -0.13694 q 0.242878,-0.0465 0.242878,-0.19121 0,-0.0336 -0.0078,-0.0543 -0.0078,-0.0233 -0.01809,-0.0439 -0.0078,-0.0207 -0.0155,-0.0388 z m -0.253214,-0.56068 -1.260901,-2.83703 -1.278988,2.83703 z"
         style="font-style:normal;font-variant:normal;font-weight:normal;font-stretch:normal;font-size:10.5833px;font-family:Copperplate;-inkscape-font-specification:'Copperplate, Normal';font-variant-ligatures:normal;font-variant-caps:normal;font-variant-numeric:normal;font-variant-east-asian:normal;stroke-width:0.264583"
         id="path916" />
      <path
         d="m 100.3083,115.4889 v 0.13694 h -1.405591 v -0.13694 q 0.19637,-0.0568 0.260965,-0.14728 0.06718,-0.093 0.06718,-0.29714 v -4.61469 q 0,-0.2067 -0.06718,-0.30231 -0.06718,-0.0956 -0.260965,-0.14211 v -0.14986 h 1.405591 v 0.14986 q -0.19637,0.0465 -0.26871,0.14211 -0.06977,0.0956 -0.06977,0.30231 v 4.61469 q 0,0.20154 0.06977,0.29456 0.0698,0.0904 0.26871,0.14986 z"
         style="font-style:normal;font-variant:normal;font-weight:normal;font-stretch:normal;font-size:10.5833px;font-family:Copperplate;-inkscape-font-specification:'Copperplate, Normal';font-variant-ligatures:normal;font-variant-caps:normal;font-variant-numeric:normal;font-variant-east-asian:normal;stroke-width:0.264583"
         id="path918" />
      <path
         d="m 102.62598,113.01102 v 2.03346 q 0,0.20154 0.0698,0.29456 0.0698,0.0904 0.26872,0.14986 v 0.13694 h -1.40559 v -0.13694 q 0.19636,-0.0568 0.26096,-0.14728 0.0672,-0.093 0.0672,-0.29714 v -4.61469 q 0,-0.2067 -0.0672,-0.30231 -0.0672,-0.0956 -0.26096,-0.14211 v -0.14986 h 3.43905 q 0.51418,0 0.90175,0.0724 0.38757,0.0698 0.69505,0.29972 0.28938,0.20671 0.447,0.52452 0.15761,0.31781 0.15761,0.68212 0,1.37459 -1.65106,1.54512 l 1.44952,2.29701 q 0.12144,0.19379 0.41341,0.24288 v 0.12661 h -1.42885 v -0.13694 q 0.20154,-0.0568 0.20154,-0.12661 0,-0.0439 -0.11627,-0.2558 l -1.33583,-2.09547 z m 0,-0.57102 h 2.21174 q 0.79324,0 1.22215,-0.16795 0.42891,-0.16795 0.42891,-0.82682 0,-0.22996 -0.10077,-0.44442 -0.0982,-0.21445 -0.27905,-0.34881 -0.36432,-0.24288 -1.19631,-0.24288 h -2.28667 z"
         style="font-style:normal;font-variant:normal;font-weight:normal;font-stretch:normal;font-size:10.5833px;font-family:Copperplate;-inkscape-font-specification:'Copperplate, Normal';font-variant-ligatures:normal;font-variant-caps:normal;font-variant-numeric:normal;font-variant-east-asian:normal;stroke-width:0.264583"
         id="path920" />
      <path
         d="m 109.26121,110.7476 v 4.29688 q 0,0.20412 0.0646,0.29714 0.0672,0.0904 0.26355,0.14728 v 0.13694 h -1.27899 v -0.13694 q 0.19637,-0.0568 0.26097,-0.14728 0.0672,-0.093 0.0672,-0.29714 v -4.61469 q 0,-0.2067 -0.0672,-0.30231 -0.0672,-0.0956 -0.26097,-0.14211 v -0.14986 h 1.8836 v 0.14986 q -0.27647,0.0672 -0.27647,0.24288 0,0.17053 0.20154,0.39274 l 3.40805,3.81888 v -4.01008 q 0,-0.2067 -0.0672,-0.30231 -0.0672,-0.0956 -0.26096,-0.14211 v -0.14986 h 1.28157 v 0.14986 q -0.19379,0.0465 -0.26097,0.14211 -0.0672,0.0956 -0.0672,0.30231 v 4.61469 q 0,0.20412 0.0646,0.29714 0.0672,0.0904 0.26355,0.14728 v 0.13694 h -1.51412 v -0.13694 q 0.14728,-0.0491 0.20412,-0.0801 0.0594,-0.031 0.0594,-0.12144 0,-0.1111 -0.0594,-0.18603 -0.0594,-0.0749 -0.19378,-0.21705 z"
         style="font-style:normal;font-variant:normal;font-weight:normal;font-stretch:normal;font-size:10.5833px;font-family:Copperplate;-inkscape-font-specification:'Copperplate, Normal';font-variant-ligatures:normal;font-variant-caps:normal;font-variant-numeric:normal;font-variant-east-asian:normal;stroke-width:0.264583"
         id="path922" />
      <path
         d="m 121.21911,110.14299 -0.56069,1.12137 -0.12661,-0.0517 q 0.0207,-0.14987 0.0207,-0.22221 0,-0.093 -0.0982,-0.15761 -0.0982,-0.0672 -0.22996,-0.1292 -0.7028,-0.37982 -1.6924,-0.37982 -0.74155,0 -1.37717,0.26097 -0.63303,0.25838 -0.63303,0.89141 0,0.25063 0.13952,0.45217 0.14211,0.19896 0.39016,0.28939 0.27905,0.0904 0.70796,0.12661 0.25322,0.008 0.55294,0.0233 0.3023,0.0155 0.48576,0.0207 0.69762,0.0233 1.10587,0.0775 0.40824,0.0517 0.75447,0.25063 0.32556,0.18603 0.49093,0.51676 0.16536,0.32814 0.16536,0.72088 0,0.62012 -0.41341,1.02578 -0.41341,0.40307 -1.03094,0.58911 -0.61495,0.18345 -1.21181,0.18345 -1.03094,0 -1.95853,-0.36949 -0.44958,-0.18087 -0.7829,-0.35915 -0.0723,-0.0543 -0.11627,-0.0543 -0.0724,0 -0.18862,0.11627 l -0.0543,0.0646 -0.11627,-0.0749 0.65629,-1.10071 0.12661,0.0646 q -0.0517,0.0517 -0.0517,0.22221 0,0.0543 0.062,0.12143 0.0646,0.0646 0.1602,0.12661 0.0956,0.062 0.18345,0.10852 0.0904,0.0465 0.12144,0.0646 0.88883,0.46767 1.92752,0.46767 0.42892,0 0.88367,-0.11111 0.45475,-0.11368 0.77514,-0.37982 0.32039,-0.26871 0.32039,-0.70538 0,-0.24029 -0.13952,-0.44183 -0.13694,-0.20412 -0.35915,-0.28939 -0.21963,-0.0723 -0.45734,-0.10335 -0.23771,-0.031 -0.61236,-0.0413 -0.37207,-0.0129 -0.39016,-0.0129 -0.75705,-0.0362 -1.10845,-0.0698 -0.34882,-0.0336 -0.77256,-0.1757 -0.42375,-0.1447 -0.68988,-0.45992 -0.26613,-0.31523 -0.26613,-0.85008 0,-0.62011 0.41082,-1.0206 0.41083,-0.40308 1.02061,-0.58653 0.60978,-0.18345 1.20406,-0.18345 1.17822,0 2.266,0.48834 0.15503,0.062 0.18087,0.062 0.10335,0 0.19895,-0.18861 z"
         style="font-style:normal;font-variant:normal;font-weight:normal;font-stretch:normal;font-size:10.5833px;font-family:Copperplate;-inkscape-font-specification:'Copperplate, Normal';font-variant-ligatures:normal;font-variant-caps:normal;font-variant-numeric:normal;font-variant-east-asian:normal;stroke-width:0.264583"
         id="path924" />
    </g>
  </g>
</svg>
