<svg xmlns="http://www.w3.org/2000/svg" xmlns:xlink="http://www.w3.org/1999/xlink" viewBox="0 0 358.2 62" preserveAspectRatio="xMinYMin meet" xmlns:v="https://vecta.io/nano"><path d="M66.2 23.5c-.2.1-.7.2-1.1.3.7-.6 1-1.4 1-2.1l-1.4.4c1-.9 1.6-1.9 1.3-3.2-.3.2-.7.4-1.2.6.9-1.4.9-2.6.5-3.3a7.55 7.55 0 0 1-1.4 1.1c.3-1.6.3-2.6-.3-3.3-.7 1.3-1.2 2.2-2.2 3.3.1-1 0-2.3-.7-3 0 0-.2 1.5-.7 1.9-.1-1.4-.6-2.2-1.2-2.9 0 0 0 1.5-.4 2.4-.3-1.2-1-2.2-1.8-3.1.1 2.7-.7 7.9-2.9 11.3-.3 2-.5 5.1-3.8 7-.5-.3-1.3-.8-2.5-.7-.3-1.5 1.7-3 3.5-4.1s2.5-2.1 2.5-3.6c0-1.7-1.2-2.3-2.3-2.4-1.6-.1-3 1.4-3.3 2-.5.2-1.9.7-2.5.8-.6.2-1.4.4-1.8.8.3.2 1 .2 1.3.2.6-.1 2.3-.4 4-.6.6.3 1.6.9.6 1.6-1.4.9-2.1 1.2-4.1 2.2-3.2 1.7-2.2 5.9-1.4 6.2 0 1.4 1.3 4 2.1 4.9.4 1.8-.1 4.5-.7 5.6-.4-1.1-1.2-3.6-1.7-5.1.5-2.8-.3-4-.9-4.5s-1.5-.3-2.1.6c.9-.1 1.2 1.1 1.2 2.3 0 1.5-.4 2.7-1.4 2.7.1 1.3 1.4 1.6 2.1 1 .1.3.7 1.9 1.2 3.4.3.9.6 1.7.8 2.1.2.5 1.8.5 2 0a11.12 11.12 0 0 1 .8-2.1c.3-.6.7-1.5 1.3-2.7.4.7 1 1.9 1.3 2.7.2.4.3.7.3.8.1 1.2.1 5.5-.3 8-3.5-1-4.5.8-4.2 2 .5-.6 1.2-.5 1.6-.2-.1.9.2 1.6 1.1 1.9 1-2.7 4.6-2.1 5-1.9 0-.5.5-1.8-1.4-2.1.1-2.3.3-5.1.4-5.7s.2-1-.1-1.9a12.59 12.59 0 0 1-.3-1c-.2-.9-.5-2.2-.5-3.5.3.3 1.1.6 1.6.5.4 1.7 1 1.2 1.3 2 .2.4.2.7.2 1s.1.6.3.8c1.2 0 2.3-.3 3.1-.8.2-.2.4-.3.6-.5-.3-1.9-.8-2.8-1.8-3.9-.3-1.5-1-2.9-1.9-4.1 1.2-.4 2.5-1.4 3.1-2.1.6 0 1.3-.5 1.3-1.5.3 0 .6-.1.9-.1 0-.3-.1-.7-.1-.9.5 0 .9 0 1.3-.1-.1-.4-.3-.7-.4-1 .5 0 1 0 1.5-.1-.2-.5-.4-.8-.6-1.2.5-.1 1.3-.2 2-.3-.2-.2-.4-.5-.8-.8 1.7-.5 2.5-1.7 2.5-2.2-.3 0-.8.1-1.1.1 1-.3 1.6-1.1 1.7-1.9"/><path d="M42.3 27.3H20.6v8c.1.1.2.1.3.2v-7.9h21.5V35c.1.1.2.2.2.3v-8h-.3M31.6 54.9c-9.6-3.6-10.8-11.4-10.8-15h0v-.3c0-.8.1-1.3.1-1.5a3.73 3.73 0 0 0-.2-1.2l-.1-.2v3.7c0 4.1 1.5 7.7 4.5 10.6 2.6 2.5 5.6 3.7 6.4 4h.2c.8-.3 3.8-1.5 6.4-4 3-2.9 4.5-6.5 4.5-10.6v-.7c-.1.1-.2.2-.2.3-.1 2-.4 4.8-1.6 7-1.5 3-3.8 5.5-9.2 7.9M14.4 5.7c1.4.7 1.8-.6 4.3 1.1-1.7.5-3 2.6-4.9 2.1 1.4-.7 1.2-1.7 2-2.2-.4 0-1.4-.3-1.4-1zm4.9 13.6c-.8-.3-2.1-.5-2.8.4-.4-.7.2-1.7.5-2-1.8 0-2.8-.5-3.1-1.1.7-.4 2.3-1 3.7 0 .9.7 1.4 1 2.5 1.4.4-.4.3-.2.4-.3-.9-.6-1.3-5.5-3.1-5.7.3-.6 1.2-.6 1.9-.4.1-1.1-.4-2.9-1.1-3.9 1-.5 1.8 0 2.1 1.3.4 1.4-.1 4.8.8 7.9l.6-.5c-.3-1.8 1.7-2.5 2.1-3.4.2 1.2-.1 1.8-.4 2.2.7.1 1 .8.9 1.3-1.7-.3-2.7 1.5-2.3 2.9-1.1.4-2 .1-2.7-.1h0zm8.5 1c-1.5.1-2.9 2-2.3 4.2-.2.1-.9.1-1.1-.4-.2.7-1.6 1.5-2.7 1.4.6-.6 1-2.1 2.1-2.8 1.2-.8 1.7-1.3 2.1-2.6-.5.2-3.3 1-4.1.1 1.8-.3 4-1.3 5.1-2l-.4-.4a18.14 18.14 0 0 1-3.5 1.4c-.3-2.3 1.9-2.2 2.1-1.6.9-1.1.3-2.6-.4-2.8.7-1.8 0-2.9-.6-3.6-.1 1.9-2.3 2.2-2.6 3.7L21.2 9c-.2-2.9-3.8-3.9-4.4-3.9-2.4.1-2.6-.2-2.6-1.3-1.2 1.4-.8 2.6.2 3.2-.1.8-1.5 1.5-2.3 1.7 1.9 1.8 4.2.7 5.3-.3l.2-.2c.4.7.7 1.9.7 2.7-1.8-.1-2.1 1.3-2.1 1.8 2.3-1 2.6 3.5 3.2 4.2-.6 0-1.6-1.4-3.2-1.5-1.8-.1-2.5.9-3.2.8.1 1.3 1.7 2 2.8 2.2-.5 1.3-.1 2.2 1 2.6 0-1.2 1.5-1.6 3.2-.6 2 1.2 3 1.3 4.6.8-.3.6-1 .6-1.9 1.5-1.2 1.2-1.3 2.8-2.7 3.4 1.6.8 4.1-.3 4.4-.9.7.4 1.5.2 1.8-.2-1.1-2.4.8-3.9 1.5-3.9.1-.1.4-.9.1-.8M44.6 7c.8-.6 1.3-.8 1.8-1.1.7 0 1.9-.1 2.6-.4-.8.9-.8 1.3-2.1 1.4 1.6.1 2.3 1.6 3.1 1.8-2.7.8-3-1.8-5.4-1.7zm3.3 8c.8.7.5 1.6.4 1.8-.7-1.2-3-.8-5.2 1.7l-.6.6c.2-3-2.3-3-3-2.7.1-.9.6-1.4.9-1.5-.7-.8-.9-1.9-1-2.6 1.2.5 3 1.9 3.3 4.3l.8-.5-.2-7c0-.4 0-1.3 1.3-1.2.1 1.1.2 3.9.2 7.8h.5c.4-1.1 1.9-2.4 3.5-2.3 1.2.1 1.5.1 2.2-.2-.6 1.2-2.6 1.8-3.1 1.8h0zm-2.4-1.4L45.4 8h.3c1.9.7 2.4 3 6.4.4-2.1.3-2.3-1.6-3.2-1.6C50.3 6 50.4 4 50.4 4c-1.3 1-4.1 1.1-4.7 1.4l-2.3 1.4c-1.7.9-.5 5.9-.7 7.7-.9-2.7-2.7-2.3-3.7-3.8-.7 1.3 0 3.5.3 4.1-1 .8-.8 2.4-.5 2.8.9-.6 2.3-.5 2.7.6-1.2.7-3.1.8-4.4-.5l-.5.5c.9 1.2 3.3 1.7 5 .7 0 .3-.1.6-.2 1-.9.5-2.1.7-3.4.3.2 1.4 1.7 2.4 3.2 2.8-.5.4-1.1.5-1.6.5.3.8.4 1.8-.2 2.7-.7-.5-1.1-1-1.4-2.9s-1.7-3.9-2.7-4.2c-.1.7-.1.4.1.8 2.8 2.1 1.2 5.8 4.2 7.2 1.1-1.2 1.1-1.7.9-2.8 1.1-.3 1.9-1.2 2.1-1.9-1 .5-2.6-.4-3.1-1 1.8-.1 3.4-1.4 5-3.1 1.5-1.6 3.5-1.3 3.3-.1 1-.2 1.4-1.6 1.1-2.5 1.5-.5 2.7-1.6 2.9-3.3-1.9.8-4.4-.9-6.3 1.2"/><path d="M34.5 22.8c-.1 0-.3.1-.3.2l-.5-.1V22c.2-.1.3-.2.3-.4s-.2-.4-.4-.4-.4.2-.4.4.1.3.2.4v.8h-.5c-.1-.2-.2-.3-.4-.3s-.4.2-.4.4.2.4.4.4.3-.1.4-.2l.5.1v1.3c-.1.1-.2.2-.2.4s.2.4.4.4.4-.2.4-.4-.1-.3-.3-.4v-1.2l.4.1c.1.2.2.3.4.3s.4-.2.4-.4c.1-.3-.1-.5-.4-.5m-3.7-.2c-.2 0-.3.1-.4.3h-.5v-.8c.1-.1.2-.2.2-.4s-.2-.4-.4-.4-.4.2-.4.4.1.3.3.4v.9h-.5c-.1-.1-.2-.2-.3-.2-.2 0-.4.2-.4.4s.2.4.4.4.4-.1.4-.3l.4-.1v1.2c-.1.1-.3.2-.3.4s.2.4.4.4.4-.2.4-.4-.1-.3-.2-.4v-1.3l.5-.1c.1.1.2.2.4.2s.4-.2.4-.4c0 0-.2-.2-.4-.2m.8 3.6c-.6 1.2-1.8 1.2-2.9.5-.4-.3-.9-.5-1.3-.5l.7-5.5c1.4-.6 3-.8 3.4.8.4-1.6 2.1-1.4 3.4-.8l.7 5.5c-.4.1-.8.2-1.3.5-.8.7-2 .8-2.7-.5zm4.9.1l-1-8.3h-.7c0 .3 0 .6.1 1.1-.9-.3-2.1-.5-3.3-.5s-2.4.2-3.3.5c0-.4.1-.8.1-1.1h-.7c-.1 1.6-.7 6.5-1 8.3-.4.2-.7.6-.7 1.4l5.6.1 5.6-.1c.1-.8-.2-1.2-.7-1.4m17.1 34.9h-44c-.2-1.4-.5-2.3-.7-3.1h45.4c-.2.8-.5 1.7-.7 3.1zm-29.8-9.4c.4.6.8 1 1 1.5s.1.8-.3 1.3c-.8 1.2-2.3 2.2-3.4 2.8h-4.4c2.7-.7 6.5-3.1 7.1-5.6h0zm-2.7-.8c.4-.7 1.2-.9 1.8-.1.3.3.1 1.2-.9 2.4-.7-.7-1.2-1.6-.9-2.3h0zm17.6 3.7c-.4-.5-.5-.8-.3-1.3s.6-.9 1-1.5c.6 2.5 4.4 4.8 7.1 5.6h-4.4c-1.1-.6-2.6-1.7-3.4-2.8h0zm1.5-3.8c.6-.8 1.5-.6 1.8.1.4.7-.2 1.6-.9 2.3-1-1.1-1.1-2-.9-2.4h0zm14.3 6.4c-.5.1-1 .2-1.9.2h-1.1c-3.7-.1-7.4-1.2-9.7-3.5 3.2-3.2-.6-5.9-2.6-3.1-.6.9-1.1 1.5-1.6 2.3-.4.7-.1 1.3.7 2.4.4.6 1.5 1.4 2.4 2H22.5c.9-.6 2-1.4 2.4-2 .8-1 1.1-1.7.7-2.4-.4-.8-.9-1.4-1.6-2.3-2-2.7-5.8-.1-2.6 3.1-2.3 2.4-6.1 3.4-9.7 3.5h-1c-.9 0-1.4-.1-1.9-.2-.8-.2-.9.1-.5 1.4.2.9.5 2.3.6 3.3h45.5c.1-1 .3-2.4.6-3.3.4-1.3.2-1.6-.5-1.4"/><use xlink:href="#B"/><path d="M16.9 59.9c0 .4.1.6.2.7.2.2.4.2.6.2s.4 0 .5-.2c.2-.2.3-.5.3-.8V59c0-.1 0-.1.1-.2h.1-.8c.2 0 .2.1.2.2v.8c0 .3 0 .5-.1.6s-.2.1-.4.1c-.1 0-.2 0-.3-.1s-.2-.3-.2-.6v-.9c0-.1 0-.1.1-.2h.1-.9c.2 0 .2.1.2.2v.5l.3.5m3-.5v-.6h.2c.2 0 .5 0 .7.3.1.1.3.3.3.6s-.1.5-.2.7c-.2.1-.3.2-.6.2-.2 0-.3-.1-.3-.1v-.7l-.1-.4zm-.3.5v.6c0 .1 0 .1-.1.1h-.1 1c.5 0 .8-.2.9-.3s.3-.4.3-.7-.1-.5-.3-.7c-.3-.3-.7-.3-1-.3h-.9c.2 0 .2.1.2.2v1.1m2.9.2h0l.3-.9.3.9h-.6zm.7.2h0l.1.3v.1h.7c-.2 0-.2 0-.3-.3-.3-.4-.7-1.5-.7-1.6l-.1-.1-.1.1-.7 1.6c0 .1-.1.2-.2.2h-.1.7c-.1 0-.1 0-.1-.1v-.2l.1-.1.7.1"/><path d="M25.7 59c.1-.1.1-.2.2-.2h.1-.7l.1.1-.4.5-.3-.6v-.1h.1-.9c.2 0 .3.1.3.2l.5.7-.5.7c-.1.1-.1.2-.2.2h-.1.5l-.2-.1.4-.6.4.7v.1h.8c-.2 0-.2-.1-.3-.1-.1-.1-.5-.8-.6-.9l.8-.6"/><use xlink:href="#B" x="14.4"/><path d="M31.6 59.9v.6c0 .1 0 .1-.1.1h-.1.8c-.2 0-.2-.1-.2-.1v-1.7h.3c.2 0 .3.1.3.1h0v.1-.4H31v.1l-.1.3v-.1c0-.1.1-.1.3-.1h.4v1.1m4.5-.2h.4c.1 0 .1.1.1.1v.1-.5h-.5v-.6h.4c.1 0 .2 0 .2.1v.1-.3h-1.2c.2 0 .2.1.2.2v1.6c0 .1 0 .1-.1.1h-.1.9c-.2 0-.2-.1-.2-.1v-.6l-.1-.2m1.7.2v.6c0 .1 0 .1-.1.1h-.1.8c-.2 0-.2-.1-.2-.1v-1.6c0-.1 0-.1.1-.2h.1-.8c.2 0 .2.1.2.2v1m1.9-.5v-.6h.2c.2 0 .5 0 .7.3.1.1.2.3.2.6s-.1.5-.2.7c-.2.1-.3.2-.6.2-.2 0-.3-.1-.3-.1v-1.1zm-.4.5v.6c0 .1 0 .1-.1.1h-.1 1c.5 0 .8-.2.9-.3s.3-.4.3-.7-.1-.5-.3-.7c-.3-.3-.7-.3-1-.3h-.9c.2 0 .2.1.2.2v1.1m2.8 0v.6c0 .1 0 .1-.1.1h-.1H43c.1 0 .1 0 .1-.1v-.3c0 .1 0 .2-.1.2h-.2c-.3 0-.3 0-.3-.2v-.6h.4c.1 0 .1 0 .1.1v.1-.4h-.5v-.7h.4c.1 0 .2 0 .2.1v.1-.4h-1.3c.2 0 .2.1.2.2v.5l.1.7m2.4-.4V59c0-.1 0-.1.1-.2h.1-1c.2 0 .2.1.2.2v1.6c0 .1 0 .1-.1.1h-.1 1.2c.1 0 .1 0 .2-.1v-.3l-.1.2c-.1.1-.2.1-.3.1-.2 0-.3 0-.3-.1-.1 0-.1-.2-.1-.6l.2-.4m1.6.4v.6c0 .1 0 .1-.1.1h-.1.7c-.2 0-.2-.1-.2-.1v-1.6c0-.1 0-.1.1-.2h.1-.8c.2 0 .2.1.2.2v1m1.9.8c.1 0 .3 0 .4-.1.2-.1.2-.3.2-.5s-.1-.4-.4-.7l-.1.1c-.2-.2-.3-.3-.3-.4 0-.2.1-.3.3-.3s.2.1.3.1c.1.1.1.1.1.2h0v-.4h-.3c-.4 0-.6.2-.6.5 0 .2.1.4.4.6l.1.1c.2.2.3.3.3.4s-.1.3-.4.3c-.2 0-.3-.1-.4-.3v-.2.5c.1.1.2.1.4.1M31.6 15.3c-1.4 0-2.9.3-4.1.8 0-.3.1-.5.3-.7.7-.8 2.5-1.1 3.8-1.1s3.1.3 3.8 1.1c.2.2.3.4.3.7-1.2-.5-2.7-.8-4.1-.8zm2.3 1.9l-.4-1c.6.1 1.3.3 1.8.5l.2 1-1.6-.5zM30 17l-.7-.7 1.8-.3.4.8-1.5.2zm-2.4.8l-.2.1c-.3.1-.5 0-.6-.1-.1-.2 0-.4.3-.6l.1-.1.7.6-.3.1zm4-5.1l1 .7h-2l1-.7zm-1.1-2.6c-.4-.9-.5-2 .7-1.5l.1 1.5h-.8zm.9-3.2l.2.1.2-.1.7-.5-.4 1.4c-.1-.2-.2-.3-.4-.3s-.4.1-.4.3h0l-.4-1.4.5.5zm1.1 5.7l-.7-.5-.2-.1-.2.1-.7.5.5-1.5h.8l.5 1.5zm.2-2.5h-.8l.1-1.5c1.3-.5 1.1.6.7 1.5zm-4.1.3l.5-.7.1-.2-.1-.2-.5-.7 1 .3c.1.5.2.8.3 1l-1.3.5zm5-1.4l1-.3-.5.7-.1.1.1.2.5.7-1.3-.4.3-1zm6.5-1.8c0-.4-.7-.7-.9-.7-.3 0-.7.6-1.1 1-.3-1.9-.2-2.7 0-3.5.8 1.4 1.9 1.7 2.4 1.7-1.9-1.5-1.6-2.9-2.1-3h-.7c-.7 0-.8 1.3-.8 1.9-.4-.8-.9-1.5-1.6-2.4C34.6.4 33.7.9 32.9 0c.7 1 .1 1.7 1.7 2.4.4.4.9 1 1.2 1.5-.3.3-.4.6-.7.8-.2.3-.3 1.4-.9 2.2.8-.3 1.2-.9 1.5-1.4 2.8 2.1.5 7.6-.1 8.8-.6-.4-1.4-.7-2.2-.8l-.1-.2-.7-2.2h.4c.4 0 .4-.2.4-.4l2 .6.9.3-.5-.7-.9-1.3.9-1.3.5-.7-.9.3-1.8.5c-.1-.4-.4-.6-.8-.6l.6-2 .3-.9-.7.5-1.3.9-1.3-.9-.7-.5.3.9.6 2c-.4.1-.7.2-.8.6L28 7.9l-.9-.3.5.7.9 1.3-.9 1.3-.5.7.9-.3 2-.6c-.1.2 0 .4.4.4h.3l-.7 2.2-.1.2c-.7.1-1.6.4-2.2.8-1.9-3.7-1.4-7.5.2-8.7 0 .8.7 1.9 1 2.1-.2-.8.2-2.3-.3-2.6-.3-.3-.7-.4-1.2-.4.3-.5.8-1.2 1.5-2.2C30 2 30.3.6 30.6 0c-1.2.4-2.1 1.1-2.3 2.1l-1.4 2c0-1-.5-1.3-1.2-1.4-2.1.4-1.9 1.9-3.7 2.9 1.2.4 3.1-2.2 3.8-1.9.1 1.6-.3 2.9-.3 3.8-.4-.2-.5-.5-.8-.5s-.9 0-1.4.5c-.1.8-.1 2.4-.9 4.2 1.2-1.1 1.7-3.1 1.9-3.7.3.4.6 1.3.7 2.1.1 1.5 1 3.9 1.8 5.1a2.2 2.2 0 0 0-.2 1.4c-.6.4-.7 1.1-.5 1.5s.8.8 1.5.5l.2-.1c.7-.3 2.1-.9 3.7-.9s3 .6 3.7.9l.2.1c.7.3 1.3 0 1.5-.5.2-.4.1-1-.5-1.5.1-.5 0-1-.3-1.5h0c1.4-2 1.5-5.8 2.7-6.9.1 1.3.8 2.5 1.5 2.6-.3-.9-.3-2.8-.2-3.6M22.2 38.5h-.9c-.1 1.5-.1 2.9.1 4.1.5-.9 1.1-1.8 1.1-2.4s-.1-1.2-.3-1.7m3.1 2.6l1 3.1c-.3 0-.5 0-.7.1-.1-.3-.6-1.4-1-2.5-.5-1 .5-1.3.7-.7h0zm1.9-.9c.1-.5 1.5-.6 1.2.5l-.8 3.4h-.8l-.8-3.4c-.3-1.1 1.1-1 1.2-.5h0zm2.6 1.6l-1 2.5c-.2 0-.5-.1-.7-.1l1-3.1c.1-.6 1.1-.3.7.7h0zm-4.5 3c.3-.1 1.5-.2 1.8-.2s1.5.1 1.8.2v.5c-.5.1-1.2.2-1.8.2a8.97 8.97 0 0 1-1.8-.2v-.5zm3.3 3.5c-.4.1-1 .1-1.4.1s-1.1 0-1.4-.1l.2-.6c-.3 0-.6-.1-.8-.2.1-.4.3-.8.5-1.4.5.1 1.1.2 1.7.2s1.1 0 1.7-.2l.5 1.4c-.2.1-.5.2-.8.2-.3-.1-.2.6-.2.6zm-6-9.8c.1.5.3 1.1.3 1.7 0 .7-.5 1.7-1.1 2.6l-.2.3c1.7 8.2 9.7 11 9.7 11V38.5h-8.7M40 40v-.4h.4c.5 0 .8-.5.9-1.1h-9.4v7.6c.6-.5 1.2-.8 2-1.1v-1.7h.8c0-1.8.5-3.1 1.3-4l.2-.3.2.3c.9.9 1.3 2.2 1.3 4h.8v1.8c.8.3 1.4.9 1.8 1.4.7-1.4 1.2-3 1.4-4.9h-.1c-.7.1-1.5-.5-1.6-1.6"/><path d="M41.9 38.5h-.2c-.2.9-.6 1.5-1.3 1.5.1.9.7 1.3 1.3 1.3h.1c.2-.9.2-1.8.1-2.8m-3.8 9.8l-.7-.8-1.1 1 .5.5s.5-.2.9.3c-.3.3-.9.8-1.2 1-.4-.5-.1-.9-.1-.9l-.5-.4-1.4 1.2-.5-.5 1.4-1.2-.5-.6-.5.4c-.4-.5-.7-1.1-.4-1.9.8-.2 1.4.2 1.8.7l-.5.4.5.6 1.2-1-.7-.8c.6-.1 1.1.1 1.4.5.4.4.5.9.4 1.5h0zm-1.8-2.9c-2.3 0-3.1.6-4.3 1.6v7.2s5.3-1.8 8.2-6.9c-.8-1-1.7-1.9-3.9-1.9M23.2 32.3c1.1-.6 1.7-1.1 2.3-2-.4-.2-1-.6-1.3-1.1 2.1.6 3.2.9 5.7 0-.4.6-1 1-1.5 1.3.6.9 1.1 2 1.3 2.8-.7-.1-1.6.1-2.2.7-.9 0-2.1.3-2.8-1.8-.3.2-.7.4-.7.4.4 1.4 1.1 2.3 2.9 2.1.1.4.2.7.4 1.1-.8.4-2.7 1.6-4.1.3v-3.8zm7 3.1c-.2.3-1.4.6-1.7.5-.5-.3-.7-1-.6-1.2.1-.4 1.5-.7 1.9-.6s.6 1.1.4 1.3h0zm3.5-1.5v-.4h-.9c.2-1 2.1-2.2 3-2.5 0-1.1 1.4-1.4 2.5-1.5 1.4 0 1.7 1.5 1.7 1.9 0 .6-.2 2-.9 2.4-1.1.6-2.1-.2-2.1-1s.6-1.3 1.6-1.2.9-.5.2-.6c-.4-.1-2-.2-2.5 1-.3 0-.6-.1-.8-.3-.2.3-.5.4-1 .6.4.8 1.2.7 1.7.3v.3c0 2 2.1 2.4 3.4 1.7-.2.6-.1 1.4 0 2h-5c.1-.5.8-1.2 1.3-1.5l-.4-.7c-.5.2-1.1.5-1.7.6-1.6.3-1.5-.7-.1-1.1h0zm-12 .7c.6.5.8.8.6 2.4 0 .2.1.6.2 1h19v-.6c0-.9-.1-1.5-.4-1.8-.1-.1-.2-.1-.4-.1h0l-.8.1.4-.6c.4-.6 1-1 1.6-1v-5.6H21.4v6.3l.3-.1"/><path d="M21.4 34.9v3h.7l-.2-1c.2-1.5 0-1.7-.5-2m20.5 3v-3.8c-.4 0-.9.3-1.2.9h.1c.8 0 1.1 1.1 1.1 2.3-.1.2-.1.4 0 .6h0"/><path d="M26.4 32.7c.4.2.8 0 1.2 0-.1-.2-.2-.3-.1-.6.1-.5-.3-.7-.5-.7-.5 0-.8.1-1.3 0 .3.4.2 1.1.7 1.3m-4.5 4.2c.2-1.6-.1-1.7-.5-2.1-.4-.3-1-.4-1.7-.9-.5-.3-.6-.8-1.2-1.4.1-1.3 1.1-2.9 1.8-3.3.1-.1.1-2.1.1-2.1h.4c-.6-.4-1.4-.1-1.9.5-.5.4-1.7 1.2-2.6 1.5-1.1-1-2.9-1.8-4.2-3.1 0 0 1.7 0 2.5-.3.2-.1.8-1 .5-1.8-.3-.1-.6-.3-1-.5l-1.1-.7c-.7-.6-1-1-2.3-1.4.1-.6.2-.5.8-.8.7-.5 1.1-1.1 1.4-1.6.2-.5 0-1.4-.6-.2-.2.4-.8 1-1.4 1.1 0-.4.1-.6.1-.8 1.9-1.3 1.7-2.5 1.5-3.6-.1-.6-.7-.9-.7-.2 0 .4.4 1.7-.9 2.4 0-.5-.2-.8-.3-1.1 1.1-1.5.7-3 .2-3.6-.3-.4-1.1-.6-.7.1.3.5.7 2-.1 2.6-.3-.4-.6-.5-.7-1 0-1.6-.1-2.6-.3-3.2-.2-.5-.7-.9-.7-.1 0 .9.1 2 0 2.1S7 12.3 6.5 12s-1.1-.2-.5.5c.5.6 2.1 1.7 1.9 2.1-.1.2-1.2-.7-1.8-.9s-.8.1-.3.5c.8.6 1.3 1.1 2.6 1.5s1.9 2.2 1.5 4.8c0 .1-.2.1-.4.1-.1-1-.2-2.1-.5-2.7-.3-.7-.9-.7-.7.2.2.7.3 1.5.2 2.5-1.1-.2-1.5-.5-1.9-.7 0-.5.2-1.3.3-2 0-.7-.4-1.2-.6-.3l-.5 1.9c-.3-.1-.6-.2-.8-.4v-1.8c-.1-.8-.4-.8-.6-.1-.1.3-.2.7-.2 1.3-.4-.2-.6-.7-.7-1l.3-2.3c.1-.4-.2-1.2-.5-.2-.3.7-.3 1.3-.5 1.8-.3 0-.6-1.6-.8-2.6-.1-.5-.5-1-.5 0-.1 1.1.2 2.3.4 2.8-.5-.1-1.1-1-1.5-1.6-.3-.5-.5 0-.5.2.3 2 1.9 2.7 2.7 2.9 1.1 1.6 3.3 2.3 5.1 3.1-2.4 0-3 .9-4.1.3 0 .9.5 1.3.9 1.5l.7.2c.2 1.1 1.2 1 2.1 1.1-.2 2.1 0 4.9 1.9 7-.1 1.1-.1 2.5-.1 3.4-1.5 1.4-2.9 4.4-3.4 6-.4 1.2-1 2.2-1.9 2.6.8.8 1.9.4 2.5 0 0 .7.2 1.2.3 1.6-.3.6-.6 1-.6 1.8-.5.1-.8.4-1.1.8-.2.2 0 1.2.2 1.6.6 1.4.1 4.4 0 5.3.3 0 .7 0 .8-.4.1.1.5.4.7 1 0 .3-.2 1.2.3 1.3.4.1 2.1 0 2.3-.2a2.27 2.27 0 0 1-.6-1.1c0-.5 0-1-.2-1.3s-.7-1.1-1-1.4c-.1-.6-.1-3 .1-4 .4-.3 3.4-2.5 4.1-4.6.5.2.4 1.7.4 3.6 0 .5.6.8 1 .8.8.1 2 .9 3.3 2.8.3-.3.6-.5.6-.5.2.2.4.8.5 1.1s1.2.4 2 .2c.3-.1.4-.1.6-.4-1-1.8-1.6-2.9-2.9-3.9-.6-.5-1.4-.7-2.1-1.1.5-.8 1.7-4.8.9-6.3-.3-.5-1.2-1-2.3-.7l3.2-4.1c.2.3 1.4.1 2.2.4.3.1 1.2 1.3 1.2 1.6.1.7.1 1.5-.4 3.4l.6-.2c.1.5-.1.9-.5 1.7.1.7.4 1.8.7 2 .4-1.3 2-3.1 2-4.2-.1-1.6-.7-2.8-.7-3.4m61.9-8.3c-.3-1-1.3-2.4-3.4-2.4-1.3 0-2.4.7-3 1.7-.7 1.2-1 2.9-1 5.3 0 3.3.6 5.4 1.7 6.2.6.4 1.4.7 2.3.7 2.7 0 3.8-2.1 3.8-7 .1-2-.1-3.4-.4-4.5h0zm6 17.4s-.6.3-1.7.3c-1.5 0-2.8-.9-3.6-1.4-.9-.6-2.4-1.5-3.9-1.9-2.9 0-4.8-.8-6.2-2.7-1.5-1.9-2.2-4.3-2.2-7.2 0-4.2 1.6-7.5 4.4-9 1.1-.6 2.6-.9 4-.9 5.1 0 8.3 3.7 8.3 9.8 0 4.2-1.5 7.3-3.8 8.9.5.2 1.3.7 1.7 1 .7.4 1.5.8 2.4.8.8 0 1.7-.1 1.7-.1L89.8 46m11.6-2.9c-.5-.3-.9-.8-1.1-1.4-1 .9-2.3 1.3-3.8 1.3-2 0-3.7-.9-4.2-2.3-.2-.6-.3-1.4-.3-2.8v-9.1l3.7-.7v9.1c0 1.3.1 1.9.3 2.3s.8.7 1.3.7c.9 0 2-.7 2.3-1.4v-10l3.6-.8v11c0 .9.3 1.9.9 2.6l-2.7 1.5m13.5-9.2c0-1.1-.1-1.6-.4-2.1-.4-.6-.9-.8-1.6-.8-1.4 0-2.2 1.1-2.2 3.1V34h4.3l-.1-.1zm-4.3 2.8v.1c0 2.2 1.1 3.4 3 3.4 1.3 0 2.5-.5 3.6-1.4l1.4 2.2c-1.6 1.3-3.4 2-5.4 2-4.1 0-6.7-2.9-6.7-7.4 0-2.6.5-4.2 1.8-5.6 1.2-1.3 2.6-1.9 4.5-1.9 1.6 0 3.2.6 4.1 1.5 1.3 1.3 1.9 3.2 1.9 6.2v.9h-8.2m18.7-2.8c0-1.1-.1-1.6-.4-2.1-.4-.6-.9-.8-1.6-.8-1.4 0-2.2 1.1-2.2 3.1V34h4.3l-.1-.1zm-4.4 2.8v.1c0 2.2 1.1 3.4 3 3.4 1.3 0 2.5-.5 3.6-1.4l1.4 2.2c-1.6 1.3-3.4 2-5.4 2-4.1 0-6.7-2.9-6.7-7.4 0-2.6.5-4.2 1.8-5.6 1.2-1.3 2.6-1.9 4.5-1.9 1.6 0 3.2.6 4.1 1.5 1.3 1.3 1.9 3.2 1.9 6.2v.9h-8.2m18.8 6v-9.2c0-1.6-.3-2.1-1.2-2.1-.8 0-1.7.5-2.6 1.3v10h-3.7V32.4c0-1.2-.2-2.4-.5-3.3l3.3-.9c.3.6.5 1.2.5 1.8l1.6-1.1c.8-.4 1.7-.6 2.6-.6 1.6 0 3 .8 3.4 2.1.2.5.3 1.1.3 2v10.4l-3.7-.1m12.1.4c-1.7 0-3.7-.6-5.7-1.6l1.3-2.7c1.1.7 3.1 1.6 4.7 1.6 1.1 0 1.9-.7 1.9-1.6 0-1-.7-1.5-2.2-1.7l-1.7-.3c-.9-.2-2.1-.8-2.6-1.4s-.8-1.6-.8-2.6c0-2.8 2.2-4.6 5.5-4.6 2.3 0 3.8.7 5.1 1.3l-1.2 2.5c-1.4-.7-2.4-1-3.5-1s-1.8.6-1.8 1.4c0 .7.5 1.1 1.8 1.4l1.7.4c1.7.4 2.3 1 2.8 1.6.5.7.8 1.5.8 2.4-.1 2.9-2.5 4.9-6.1 4.9m12.6-.1c-1.6 0-2.9-.7-3.3-1.9-.3-.7-.3-1.2-.3-3.2V27.3l-.2-4.3 3.8-.9c.1.8.2 1.7.2 3.7v11.1c0 2.4 0 2.8.3 3.2.1.3.4.4.7.4.1 0 .2 0 .4-.1l.6 2.2c-.6.3-1.4.4-2.2.4m10.9-6.5c-2.6 0-3.5.5-3.5 2.2 0 1.1.7 1.9 1.6 1.9.7 0 1.4-.4 1.9-1l.1-3.1h-.1zm3.1 6.9c-.9-.4-1.6-1-2-1.7-.3.3-.6.6-.9.7-.7.5-1.7.8-2.9.8-3.2 0-4.9-1.6-4.9-4.4 0-3.3 2.3-4.9 6.8-4.9h.8v-.6c0-1.6-.3-2.1-1.7-2.1-1.2 0-2.6.6-4.1 1.6l-1.6-2.7c.8-.5 1.3-.8 2.3-1.2 1.4-.6 2.6-.8 3.9-.8 2.4 0 4 .9 4.6 2.5.2.6.3 1 .3 2.6l-.1 4.8c0 1.6.1 2.2 1.3 3.2l-1.8 2.2m12.5-.7v-9.2c0-1.6-.3-2.1-1.3-2.1-.8 0-1.7.5-2.6 1.3v10h-3.7V32.4c0-1.2-.2-2.4-.5-3.3l3.3-.9c.3.6.5 1.2.5 1.8l1.6-1.1c.8-.4 1.7-.6 2.6-.6 1.6 0 3 .8 3.4 2.1.2.5.3 1.1.3 2v10.4l-3.6-.1m15.6-10.5c-.7-.6-1.4-.9-2-.9-1.7 0-2.4 1.4-2.4 4.6 0 3.1.6 4.1 2.6 4.1.7 0 1.5-.5 1.8-.9v-6.9zm.8 10.5c-.1-.2-.2-.4-.2-.8-.9.8-2 1.2-3.3 1.2-3.6 0-5.9-2.8-5.9-7.2s2.5-7.5 6.1-7.5c1 0 1.8.3 2.5.8-.1-.3-.1-1.3-.1-2.1v-4.9l3.7.6v14.8c0 3.5.3 4.6.5 5.2h-3.3m20.3.2c-2.4 0-4.4-.8-5.9-2.4-1.6-1.8-2.4-4.1-2.4-7.4 0-3.6 1-6.2 2.9-8 1.4-1.2 3-1.8 5-1.8s3.8.6 5.2 1.9l-1 1.4c-1.6-1.1-2.7-1.5-4.1-1.5-2.2 0-4 1-4.7 3.2-.5 1.4-.8 3-.8 4.8 0 2.5.5 4.5 1.3 5.8.9 1.2 2.8 2 4.6 2 1.2 0 2.2-.3 3-.8v-5.8H231l-.4-1.9h6.4v8.9c-1.4 1-3.4 1.6-5.4 1.6m17.2-11c-.6-1.2-1.8-1.8-2.9-1.8-1.2 0-2.4.6-2.8 1.5s-.7 2-.7 3.6c0 1.9.3 3.7.9 4.5.5.8 1.6 1.4 2.8 1.4 1.4 0 2.5-.8 3-2.1.3-.9.4-1.6.4-3 0-1.9-.2-3.2-.7-4.1h0zM246 43c-3.8 0-6-2.8-6-7.4 0-4.5 2.2-7.2 5.9-7.2 2.3 0 3.8 1.1 4.7 2.4s1.3 2.9 1.3 5.1c0 4.7-2.4 7.1-5.9 7.1m13.9-.2h-2.1l-5-13.9 2.2-.5 3.2 9.5c.4 1.1.7 2.4.7 2.4h.1s.2-1.1.7-2.3l3.2-9.2h2.3l-5.3 14"/><use xlink:href="#C"/><path d="M286.4 30.9c-.1-.1-.4-.1-.6-.1-.8 0-1.7.4-2.3 1s-.8 1.1-.8 2.2v8.7h-2.2V32c0-2-.5-2.9-.5-2.9l2.2-.6s.5 1.1.4 2.2c1-1.4 2.5-2.3 3.9-2.3a2.44 2.44 0 0 1 .7.1l-.8 2.4m10.1 11.8v-9.4c0-1.5-.1-1.8-.5-2.3-.3-.4-.9-.6-1.5-.6-1.1 0-2.8.9-3.8 1.9v10.3h-2.1V32c0-2-.5-2.9-.5-2.9l2.1-.6s.5 1 .5 2.2c1.4-1.4 2.9-2.1 4.4-2.1s2.8.8 3.4 2a4.53 4.53 0 0 1 .3 1.6v10.5h-2.3m21.5 0V32.5c0-1.3-.6-2-1.8-2s-2.2.8-3.7 2.1v10.1h-2.2v-9.8c0-.8-.1-1.4-.4-1.8s-.8-.6-1.4-.6c-1.1 0-2.1.5-3.5 1.8v10.3h-2V32c0-2-.5-2.9-.5-2.9l2.1-.5s.5 1.1.5 2.1c.9-1 2.6-2.1 4-2.1s2.7.8 3.2 2.3c1.3-1.4 3-2.3 4.4-2.3 2.1 0 3.5 1.6 3.5 3.7v10.4H318"/><use xlink:href="#C" x="57.5"/><path d="M346 42.7v-9.4c0-1.5-.1-1.8-.5-2.3-.3-.4-.9-.6-1.5-.6-1.1 0-2.8.9-3.8 1.9v10.3H338V32c0-2-.5-2.9-.5-2.9l2.1-.6s.5 1 .5 2.2c1.4-1.4 2.9-2.1 4.4-2.1s2.8.8 3.4 2a4.53 4.53 0 0 1 .3 1.6v10.5H346m11.5-12.2h-2.9v8.9c0 1.5.4 2.1 1.8 2.1.6 0 1-.1 1.4-.3l.3 1.4c-.7.4-1.5.6-2.4.6-.7 0-1.3-.1-1.8-.4-1-.5-1.3-1.4-1.3-2.7v-9.5h-1.8V29h1.8c0-1.3.2-3.5.2-3.5l2.3-.5s-.3 2.2-.3 4h3.5l-.8 1.5"/><defs ><path id="B" d="M14.9 60.1h0l.3-.9.3.9h-.6zm.7.2h0l.1.3v.1h.7c-.2 0-.2 0-.3-.3-.2-.4-.6-1.5-.6-1.6l-.1-.1-.1.1-.7 1.6c-.1.1-.1.2-.2.2h-.1.6c-.1 0-.1 0-.1-.1v-.2l.1-.1.7.1"/><path id="C" d="M274.4 31.4c-.5-.8-1.4-1.2-2.5-1.2-2 0-3.1 1.4-3.2 4.3h6.3c0-1.5-.2-2.4-.6-3.1zm-5.7 4.7v.3c0 1.3.2 2.3.6 3 .8 1.2 2.1 1.7 3.4 1.7s2.4-.4 3.4-1.3l.8 1.4c-1.2 1.1-2.9 1.7-4.7 1.7-3.8 0-6.1-2.8-6.1-7.4 0-2.3.5-3.8 1.7-5.2 1.1-1.3 2.5-1.9 4.1-1.9 1.5 0 2.8.5 3.7 1.5 1.2 1.2 1.6 2.5 1.6 5.8v.3l-8.5.1"/></defs></svg>