<svg xmlns="http://www.w3.org/2000/svg" xmlns:xlink="http://www.w3.org/1999/xlink" viewBox="0 0 104.435 19.041" height="71.966" width="394.715" xmlns:v="https://vecta.io/nano"><path d="M.528 7.388v-.171q.194-.046.261-.142.067-.098.067-.302V.943q0-.207-.067-.302Q.721.546.528.499v-.17h4.201q.55 0 .979.085.431.085.767.338.338.251.522.636.186.385.186.814 0 1.049-.995 1.514.589.202.915.633.326.431.326 1.049 0 .452-.183.866-.183.413-.537.669-.406.287-.899.372-.491.083-1.176.083zm1.142-4.01h2.72q.953 0 1.398-.171.287-.127.455-.382.168-.258.168-.571 0-.338-.16-.623-.16-.284-.463-.424-.455-.202-1.45-.202H1.67zm0 3.343h2.827q1.005 0 1.46-.202.31-.142.483-.426.173-.287.173-.63 0-.388-.165-.705-.165-.318-.491-.481-.315-.158-.654-.194-.338-.039-.858-.039H1.67zm11.071-.964H9.705l-.444.974q-.075.163-.075.297.013.15.264.222v.137H8.021V7.25q.336-.072.519-.455l2-4.361q.16-.364.16-.496 0-.171-.266-.191v-.15h1.682v.15q-.253.044-.253.212 0 .085.031.178.034.09.085.194.052.103.096.189l1.832 4q.165.349.295.522.129.173.372.209v.137H13.06v-.137q.243-.046.243-.191 0-.034-.008-.054-.008-.023-.018-.044-.008-.021-.015-.039zm-.253-.561l-1.261-2.837-1.279 2.837zm4.39-3.036v4.646q0 .202.07.295.07.09.269.15v.137h-1.408v-.137q.196-.057.261-.147.067-.093.067-.297V2.16h-1.884q-.204 0-.3.072-.096.07-.145.266h-.137V1.272h.137q.049.186.145.256.098.07.3.07h4.519q.199 0 .295-.07.096-.072.14-.256h.147v1.227h-.147q-.044-.194-.142-.266-.098-.072-.302-.072zm8.782-.255l-.56 1.121-.127-.052q.021-.15.021-.222 0-.093-.098-.158-.098-.067-.23-.129-.703-.38-1.692-.38-.742 0-1.377.261-.633.258-.633.891 0 .251.14.452.142.199.39.289.279.09.708.127.253.008.553.023.302.016.486.021.698.023 1.106.078.408.052.754.251.326.186.491.517.165.328.165.721 0 .62-.413 1.026-.413.403-1.031.589-.615.183-1.212.183-1.031 0-1.959-.369-.45-.181-.783-.359-.072-.054-.116-.054-.072 0-.189.116L20 6.913l-.116-.075.656-1.101.127.065q-.052.052-.052.222 0 .054.062.121.065.065.16.127.096.062.183.109.09.046.121.065.889.468 1.928.468.429 0 .884-.111.455-.114.775-.38.32-.269.32-.705 0-.24-.14-.442-.137-.204-.359-.289-.22-.072-.457-.103-.238-.031-.612-.041-.372-.013-.39-.013-.757-.036-1.108-.07-.349-.034-.773-.176-.424-.145-.69-.46-.266-.315-.266-.85 0-.62.411-1.021.411-.403 1.021-.587.61-.183 1.204-.183 1.178 0 2.266.488.155.062.181.062.103 0 .199-.189z"/><use xlink:href="#B"/><path d="M38.021 2.509v4.297q0 .204.065.297.067.09.264.147v.137h-1.279V7.25q.196-.057.261-.147.067-.093.067-.297V2.191q0-.207-.067-.302-.067-.096-.261-.142v-.15h1.884v.15q-.276.067-.276.243 0 .171.202.393l3.408 3.819v-4.01q0-.207-.067-.302-.067-.096-.261-.142v-.15h1.282v.15q-.194.047-.261.142-.067.096-.067.302v4.615q0 .204.065.297.067.09.264.147v.137H41.73v-.137q.147-.049.204-.08.059-.031.059-.121 0-.111-.059-.186-.059-.075-.194-.217zm6.468 4.879v-.137q.196-.057.261-.147.067-.093.067-.297V2.191q0-.207-.067-.302-.067-.096-.261-.142v-.15h2.93q.486 0 .876.047.39.047.762.194.375.147.669.429.289.276.491.641.204.364.305.773.103.406.103.819 0 .633-.233 1.227-.23.594-.667.995-.45.411-.992.54-.543.127-1.315.127zm1.067-.561h1.822q.411 0 .747-.046.338-.046.646-.189.31-.142.532-.411.55-.651.55-1.682 0-1.07-.55-1.695-.336-.388-.804-.509-.465-.124-1.121-.124h-1.822zm13.379-5.821v5.767q0 .202.07.3.07.098.258.145v.171h-1.47v-.171q.194-.044.261-.142.067-.098.067-.302V1.006h-2.382q-.204 0-.3.067-.096.067-.145.261h-.168V0h.168q.049.194.145.261.096.067.3.067h5.589q.199 0 .297-.067.101-.067.147-.261h.16v1.333h-.16q-.047-.194-.147-.261-.098-.067-.297-.067zm4.149 3.767v2.033q0 .202.07.295.07.09.269.15v.137h-1.406v-.137q.196-.057.261-.147.067-.093.067-.297V2.191q0-.207-.067-.302-.067-.096-.261-.142v-.15h3.439q.514 0 .902.072.388.07.695.3.289.207.447.525.158.318.158.682 0 1.375-1.651 1.545l1.45 2.297q.121.194.413.243v.127h-1.429v-.137q.202-.057.202-.127 0-.044-.116-.256L65.19 4.773zm0-.571h2.212q.793 0 1.222-.168.429-.168.429-.827 0-.23-.101-.444-.098-.214-.279-.349-.364-.243-1.196-.243h-2.287z"/><use xlink:href="#C"/><use xlink:href="#C" x="6.307"/><use xlink:href="#D"/><path d="M6.973 12.098l-.742 1.333-.147-.085q.085-.171.085-.274 0-.168-.382-.338-1.041-.488-2.126-.488-1.023 0-1.736.351-.31.152-.525.424-.214.271-.214.592 0 .274.152.509.152.235.408.349.354.158.739.189.23.026 1.165.075 1.155.021 1.726.106.791.129 1.24.584.452.455.452 1.235 0 .289-.103.568-.101.279-.279.517-.176.235-.411.419-.912.677-2.434.677-1.545 0-2.837-.677-.486-.287-.615-.287-.072 0-.253.181L0 17.971l.773-1.289.147.072q-.096.196-.096.287 0 .09.121.191.124.098.3.194.178.093.235.121.602.313 1.101.434.519.15 1.238.15 1.315 0 1.992-.571.444-.388.444-.879 0-1.057-1.716-1.134l-1.08-.041q-.767-.021-1.297-.103-.53-.083-.99-.341-.369-.214-.581-.589-.212-.377-.212-.798 0-.767.512-1.248.514-.481 1.266-.685.754-.204 1.514-.204 1.323 0 2.69.612.176.075.209.075.072 0 .256-.202z"/><use xlink:href="#E"/><path d="M22.236 13.357l-.646 1.114-.127-.075q.041-.15.041-.171 0-.147-.129-.235-.127-.09-.357-.209-.742-.369-1.661-.369-1.111 0-1.853.602-.827.68-.827 1.863 0 .517.251.997.251.478.672.804.708.561 1.767.561.509 0 1.013-.171.504-.173.891-.486.08-.057.145-.109.067-.054.124-.124.059-.07.059-.14 0-.052-.039-.147-.039-.098-.057-.116l.116-.075.816 1.028-.106.093q-.163-.158-.256-.158-.057 0-.137.065-.568.455-1.245.698-.677.243-1.4.243-1.426 0-2.328-.742-.491-.403-.775-.995-.284-.592-.284-1.227 0-.721.266-1.292.269-.574.742-.972.475-.398 1.09-.602.618-.204 1.32-.204 1.261 0 2.393.615.137.052.158.052.083 0 .235-.178z"/><use xlink:href="#F"/><path d="M27.22 16.002v2.139h3.579q.204 0 .302-.067.098-.07.142-.261h.147v1.227h-.147q-.044-.191-.142-.261-.098-.067-.302-.067h-4.646v-.147q.194-.049.261-.145.067-.096.067-.3v-4.615q0-.207-.067-.302-.067-.096-.261-.142v-.14h4.612q.204 0 .3-.07.098-.072.145-.256h.14v1.227h-.14q-.044-.194-.142-.266-.096-.072-.302-.072H27.22v1.956h2.256q.204 0 .3-.072.098-.072.145-.266h.147v1.227h-.147q-.047-.186-.145-.256-.096-.072-.3-.072zm8.023-2.516v4.646q0 .202.07.295.07.09.269.15v.137h-1.408v-.137q.196-.057.261-.147.067-.093.067-.297v-4.646h-1.884q-.204 0-.3.072-.096.07-.145.266h-.137v-1.227h.137q.049.186.145.256.098.07.3.07h4.519q.199 0 .295-.07.096-.072.14-.256h.147v1.227h-.147q-.044-.194-.142-.266-.098-.072-.302-.072zm6.392 2.677v1.969q0 .202.07.295.07.09.269.15v.137h-1.408v-.137q.196-.057.261-.147.067-.093.067-.297v-1.969l-1.778-2.328q-.284-.367-.442-.53-.155-.165-.406-.233v-.15h1.63v.15q-.222.021-.222.191 0 .147.137.328l1.524 2 1.377-2q.147-.202.147-.297 0-.202-.233-.222v-.15h1.514v.15q-.251.065-.413.243-.258.258-.561.677z"/><use xlink:href="#E" x="40.408"/><path d="M57.531 16.002v2.129q0 .202.07.295.07.09.269.15v.137h-1.406v-.137q.196-.057.261-.147.067-.093.067-.297v-4.615q0-.207-.067-.302-.067-.096-.261-.142v-.15h4.697q.207 0 .302-.067.098-.067.142-.258h.14v1.227h-.14q-.044-.194-.142-.261-.096-.067-.302-.067h-3.63v1.935h2.362q.204 0 .302-.067.098-.07.142-.261h.137v1.227h-.137q-.044-.191-.142-.258-.098-.07-.302-.07zm16.575-3.723l-.76 1.269-.14-.085q.044-.137.044-.243 0-.155-.204-.284-.204-.132-.452-.245-.912-.444-2-.444-.669 0-1.263.199-.594.196-1.041.579-.447.382-.698.933-.248.55-.248 1.232 0 .607.248 1.158.251.55.705.959.915.827 2.338.827 1.243 0 2.253-.762.057-.044.171-.129.114-.088.199-.181.088-.093.088-.168 0-.08-.096-.253l.137-.106.91 1.121-.127.106q-.158-.127-.233-.127-.062 0-.202.106-.853.633-1.47.837-.77.264-1.716.264-1.767 0-2.878-.995-.287-.258-.501-.55-.212-.292-.364-.625-.152-.336-.233-.7-.078-.364-.078-.726 0-1.145.548-1.984.548-.84 1.483-1.279.935-.442 2.067-.442 1.189 0 2.168.39.344.137.643.297.3.16.31.16.044 0 .09-.031.047-.031.083-.072.039-.041.08-.088z"/><use xlink:href="#B" x="44.952" y="11.325"/><use xlink:href="#F" x="58.515"/><path d="M85.746 16.098v2.033q0 .202.07.295.07.09.269.15v.137h-1.406v-.137q.196-.057.261-.147.067-.093.067-.297v-4.615q0-.207-.067-.302-.067-.096-.261-.142v-.15h3.439q.514 0 .902.072.388.07.695.3.289.207.447.525.158.318.158.682 0 1.375-1.651 1.545l1.45 2.297q.121.194.413.243v.127h-1.429v-.137q.202-.057.202-.127 0-.044-.116-.256l-1.336-2.095zm0-.571h2.212q.793 0 1.222-.168.429-.168.429-.827 0-.23-.101-.444-.098-.214-.279-.349-.364-.243-1.196-.243h-2.287zm6.635-1.692v4.297q0 .204.065.297.067.09.264.147v.137h-1.28v-.137q.196-.057.261-.147.067-.093.067-.297v-4.615q0-.207-.067-.302-.067-.096-.261-.142v-.15h1.884v.15q-.276.067-.276.243 0 .171.202.393l3.408 3.819v-4.01q0-.207-.067-.302-.067-.096-.261-.142v-.15h1.282v.15q-.194.046-.261.142-.067.096-.067.302v4.615q0 .204.065.297.067.09.264.147v.137h-1.514v-.137q.147-.049.204-.08.059-.031.059-.121 0-.111-.059-.186-.059-.075-.194-.217z"/><use xlink:href="#D" x="17.455" y="11.325"/><defs ><path id="B" d="M34.657 5.757h-3.036l-.444.974q-.075.163-.075.297.013.15.264.222v.137h-1.429v-.137q.336-.072.519-.455l2-4.361q.16-.364.16-.496 0-.171-.266-.191v-.15h1.682v.15q-.253.044-.253.212 0 .085.031.178.034.09.085.194.052.103.096.189l1.832 4q.165.349.295.522.129.173.372.209v.137h-1.514v-.137q.243-.046.243-.191 0-.034-.008-.054-.008-.023-.018-.044-.008-.021-.016-.039zm-.253-.561l-1.261-2.837-1.279 2.837z"/><path id="C" d="M69.836 4.677v2.139h3.579q.204 0 .302-.067.098-.07.142-.261h.147v1.227h-.147q-.044-.191-.142-.261-.098-.067-.302-.067h-4.646V7.24q.194-.049.261-.145.067-.096.067-.3V2.181q0-.207-.067-.302-.067-.096-.261-.142v-.14h4.612q.204 0 .3-.07.098-.072.145-.256h.14v1.227h-.14q-.044-.194-.142-.266-.096-.072-.302-.072h-3.545v1.956h2.256q.204 0 .3-.072.098-.072.145-.266h.147v1.227h-.147q-.047-.186-.145-.256-.096-.072-.3-.072z"/><path id="D" d="M86.884 1.905l-.561 1.121-.127-.052q.021-.15.021-.222 0-.093-.098-.158-.098-.067-.23-.129-.703-.38-1.692-.38-.742 0-1.377.261-.633.258-.633.891 0 .251.14.452.142.199.39.289.279.09.708.127.253.008.553.023.302.016.486.021.698.023 1.106.078.408.052.754.251.326.186.491.517.165.328.165.721 0 .62-.413 1.026-.413.403-1.031.589-.615.183-1.212.183-1.031 0-1.959-.369-.45-.181-.783-.359-.072-.054-.116-.054-.072 0-.189.116l-.054.065-.116-.075.656-1.101.127.065q-.052.052-.052.222 0 .054.062.121.065.065.16.127.096.062.183.109.09.046.121.065.889.468 1.928.468.429 0 .884-.111.455-.114.775-.38.32-.269.32-.705 0-.24-.14-.442-.137-.204-.359-.289-.22-.072-.457-.103-.238-.031-.612-.041-.372-.013-.39-.013-.757-.036-1.108-.07-.349-.034-.773-.176-.424-.145-.69-.46-.266-.315-.266-.85 0-.62.411-1.021.411-.403 1.021-.587.61-.183 1.204-.183 1.178 0 2.266.488.155.062.181.062.103 0 .199-.189z"/><path id="E" d="M14.955 15.824q0 .636-.264 1.22-.261.581-.742.992-.953.804-2.478.804-1.535 0-2.486-.804-.478-.408-.744-.992-.264-.584-.264-1.22 0-.641.264-1.222.266-.584.744-.99.488-.416 1.129-.61.641-.196 1.357-.196 1.524 0 2.478.806.481.408.742.99.264.581.264 1.222zm-.773 0q0-.731-.372-1.282-.369-.55-.995-.84-.623-.292-1.344-.292-.726 0-1.354.292-.625.289-.997.84-.369.55-.369 1.282 0 .731.369 1.282.372.55.997.842.628.289 1.354.289.721 0 1.344-.289.625-.292.995-.842.372-.55.372-1.282z"/><path id="F" d="M24.913 18.576v.137h-1.406v-.137q.196-.057.261-.147.067-.093.067-.297v-4.615q0-.207-.067-.302-.067-.096-.261-.142v-.15h1.406v.15q-.196.046-.269.142-.07.096-.07.302v4.615q0 .202.07.295.07.09.269.15z"/></defs></svg>