<?xml version="1.0" encoding="utf-8"?>
<!-- Generator: Adobe Illustrator 20.1.0, SVG Export Plug-In . SVG Version: 6.00 Build 0)  -->
<svg version="1.1" id="Layer_1" xmlns="http://www.w3.org/2000/svg" xmlns:xlink="http://www.w3.org/1999/xlink" x="0px" y="0px"
	 viewBox="0 0 255.2 72" style="enable-background:new 0 0 255.2 72;" xml:space="preserve">
<style type="text/css">
	.st0{fill:#FFFFFF;}
	.st1{fill:#006838;}
	.st2{fill:none;stroke:#FFFFFF;stroke-width:0.1663;stroke-linejoin:bevel;stroke-miterlimit:10;}
	.st3{fill:none;stroke:#FFFFFF;stroke-width:1.9925;}
</style>
<g>
	<ellipse class="st0" cx="36.1" cy="36" rx="33.6" ry="33.5"/>
	<path class="st1" d="M36.2,70.3c18.9,0,34.2-15.4,34.2-34.2c0-18.9-15.4-34.2-34.2-34.2C17.4,1.8,2,17.2,2,36
		C2,54.9,17.4,70.3,36.2,70.3 M36.2,68.9c-10.5,0-19.9-5-25.9-12.7h2l0.2,0.5c0.1,0.2,0.2,0.4,0.3,0.5l0.5,0.7
		c0.1,0.1,0.2,0.3,0.4,0.4l0.6,0.4c0.2,0.1,0.4,0,0.4-0.2c0,0,0-0.1,0-0.1l-0.4-0.5c-0.1-0.1-0.1-0.2-0.2-0.4l-0.2-0.6
		c-0.1-0.2-0.1-0.4-0.1-0.6v-0.1h13.5L27,56.4c-0.1,0.3-0.2,0.5-0.4,0.8l-0.3,0.6c-0.1,0.2-0.3,0.4-0.5,0.6l-0.1,0.1
		c-0.4,0.3-0.9,0.5-1.4,0.5c-0.1,0-0.3,0-0.4,0l-0.3,0c-0.5-0.1-0.9-0.3-1.3-0.6l0,0c-0.3-0.2-0.5-0.4-0.7-0.7
		c-0.1-0.1-0.2-0.3-0.2-0.4c-0.1-0.1-0.2-0.3-0.3-0.4l-0.2-0.5h-1.5l0.1,0.3c0.1,0.2,0.2,0.4,0.3,0.6l0.6,1.1l0.5,0.8
		c0.2,0.4,0.6,0.7,1,1l0.3,0.2c0.4,0.3,0.9,0.4,1.4,0.5l0.8,0.1c0.1,0,0.3,0,0.4,0l1.1-0.1c0.3,0,0.5-0.1,0.8-0.2l0.7-0.3
		c0.2-0.1,0.4-0.3,0.6-0.5l0.4-0.4c0.2-0.2,0.3-0.4,0.4-0.6l0.4-0.9c0-0.1,0.1-0.2,0.1-0.3l0.4-1.3h17.1l-0.1,0.1l-1,1.1
		c-0.1,0.1-0.2,0.2-0.3,0.2L44.8,58c-0.2,0.1-0.3,0.2-0.5,0.3L44,58.4c-0.2,0.1-0.4,0.1-0.5,0.1l-0.6,0c-0.3,0-0.5-0.1-0.7-0.2l0,0
		c-0.4-0.2-0.7-0.4-0.9-0.8c-0.1-0.2-0.3-0.5-0.3-0.6c0-0.1-0.1-0.1-0.1-0.2l-0.1-0.3h-2.7l0.4,1c0.1,0.2,0.2,0.4,0.3,0.6l0.3,0.6
		c0.3,0.4,0.6,0.8,1,1.1l0,0c0.4,0.3,0.9,0.5,1.3,0.6c0.2,0.1,0.5,0.1,0.7,0.2c0.1,0,0.3,0.1,0.4,0.1l1.5,0c0.2,0,0.3,0,0.5-0.1
		c0.9-0.2,1.7-0.7,2.4-1.3l0,0c0.3-0.3,0.7-0.6,0.9-1l1.2-1.7l0.2-0.3h8v0.5c0,0.2,0,0.4-0.1,0.6c-0.1,0.2-0.2,0.3-0.3,0.4l-0.6,0.5
		l-2,1.3c-0.3,0.2-0.7,0.3-1,0.3c-0.2,0-0.4,0-0.5,0.1L52,60c-0.2,0.1-0.4,0.2-0.6,0.4l-0.1,0c-0.2,0.2-0.4,0.5-0.5,0.7
		c-0.1,0.3-0.1,0.5-0.1,0.8l0.1,0.5c0,0.1,0,0.1-0.1,0.1l-0.3,0.1c-0.1,0.1-0.3,0.3-0.3,0.4c0,0.1,0.1-0.1,0.2-0.2
		c0.1,0-0.2,0.4-0.1,0.3c0,0,0.1-0.1,0.2-0.2c0.1-0.1,0.2-0.2,0.3-0.2l0.1-0.1c0.1,0,0.2,0,0.2,0c0.2,0,0.3,0,0.5,0l0.2-0.1
		c0.1-0.1,0.3-0.1,0.4-0.2l0.9-0.7c0.1-0.1,0.2-0.1,0.2-0.2l0.6-0.3l3-2.1c0.1,0,0.1-0.1,0.2-0.1l0.5-0.2c0.2-0.1,0.4-0.3,0.5-0.5
		l0.4-0.7c0.1-0.1,0.1-0.3,0.2-0.4l0.1-0.5c0-0.1,0-0.2,0-0.4l0,0h3.5C56.1,63.9,46.8,68.9,36.2,68.9 M32.7,35.7l-0.1-0.2
		c0-0.1-0.1-0.2-0.1-0.3v-0.6c0-0.6,0.2-1.1,0.5-1.5l0.2-0.2c0,0,0.1-0.1,0.1-0.1l0.1-0.3c0.1-0.2,0.3-0.4,0.5-0.5l0.4-0.3
		c0.1,0,0.1-0.1,0.2-0.2l0.7-0.8l0.2-0.2c0.1-0.2,0.2-0.4,0.3-0.6c0,0,0-0.1,0.1-0.1l0.5-0.1c0,0,0.1,0,0.1,0l0.5,0.1
		c0,0,0.1,0,0.1,0.1c0,0.2,0.1,0.4,0.3,0.6l0.2,0.2l0.7,0.8c0.1,0.1,0.1,0.1,0.2,0.2l0.4,0.3c0.2,0.1,0.3,0.3,0.4,0.5l0.1,0.3
		c0,0,0.1,0.1,0.1,0.1c0.4,0.6,0.7,1.3,0.7,2v0.4c0,0.1,0,0.2-0.1,0.3l-0.1,0.2c0,0,0,0.1-0.1,0.1l-0.1,0.3
		c-0.1,0.1-0.1,0.3-0.1,0.4v0.3c0,0.1-0.1,0.3-0.2,0.4l-0.1,0.1c-0.2,0.2-0.5,0.2-0.7,0l-0.1-0.1l-0.4-0.4c-0.1-0.1-0.2-0.2-0.3-0.2
		l-0.1,0c-0.2-0.1-0.3-0.1-0.5-0.1h-0.8h-0.8c-0.2,0-0.3,0-0.5,0.1l-0.1,0c-0.1,0.1-0.2,0.1-0.3,0.2l-0.4,0.4L34,37.3
		c-0.2,0.2-0.5,0.2-0.7,0l-0.1-0.1c-0.1-0.1-0.2-0.2-0.2-0.4v-0.3c0-0.2,0-0.3-0.1-0.4l-0.1-0.3C32.8,35.8,32.8,35.7,32.7,35.7
		 M38.8,31.2L38,30.4c-0.2-0.2-0.3-0.4-0.3-0.7v0c0-0.5-0.1-0.9-0.4-1.3l0,0c-0.2-0.2-0.3-0.4-0.6-0.6l-0.8-0.5
		c-0.1,0-0.1-0.1-0.2-0.1l-1.4-0.8c-0.1-0.1-0.2-0.1-0.4-0.2l-2-0.7l1.6-1.4c0.2-0.2,0.4-0.4,0.5-0.6l0.3-0.5
		c0.2-0.3,0.3-0.6,0.4-0.9l0,0c0.1-0.2,0.1-0.5,0.1-0.7l0-1.1c0-0.2,0-0.3,0-0.5l0-0.2c0-0.2-0.1-0.5-0.2-0.7l-0.3-0.7
		c-0.1-0.3-0.3-0.6-0.5-0.8l0.1-0.1c0.2-0.2,0.4-0.4,0.6-0.6l1.2-1.8c0.1-0.1,0.2-0.3,0.2-0.4l0.3-0.6c0.2-0.4,0.3-0.9,0.3-1.4V7.6
		L37,9.1c0,0.1,0.1,0.3,0.1,0.4l0.5,1.7l1.4,4.8l1.5,5.2c0,0.1,0.1,0.2,0.1,0.3l0.8,3.9l0.7,4.7c0,0.1,0,0.3,0,0.4l0.1,1.5
		c0,0.5-0.1,1-0.3,1.5l-0.1,0.1c-0.3,0.2-0.7,0.4-1.1,0.4h-0.1l-0.1-0.3c-0.1-0.3-0.2-0.5-0.3-0.8L40,32.4c-0.1-0.2-0.2-0.3-0.4-0.5
		L38.8,31.2z M34,18.6l0.2,0.3c0.1,0.3,0.2,0.5,0.2,0.8l0.1,0.8c0,0.2,0,0.3,0,0.5l-0.1,0.6c-0.1,0.4-0.2,0.9-0.5,1.2l-0.8,1
		c-0.1,0.1-0.2,0.2-0.3,0.3l-1.3,1.1v-0.6c0-0.3,0-0.6,0.1-0.9l0.1-0.9c0.1-0.4,0.1-0.7,0.2-1.1l1.3-4.2l0.1,0.1
		C33.6,17.9,33.8,18.2,34,18.6 M33.4,17l0.1-0.9c0-0.1,0.1-0.3,0.1-0.4l1.4-3.4c0.1-0.2,0.1-0.4,0.2-0.6l1-3.8v4.4
		c0,0.3-0.1,0.6-0.2,0.9l-2.1,3.4c0,0.1-0.1,0.2-0.2,0.2L33.4,17z M30.4,31.4l0.3-1.6c0-0.2,0.1-0.5,0.1-0.7l0.4-3.2l1.5,0.5
		c0.1,0,0.2,0.1,0.3,0.1l1.6,0.7c0.2,0.1,0.3,0.2,0.5,0.3l1.1,0.8c0.3,0.2,0.5,0.4,0.6,0.6l0.2,0.3L36.6,29c-0.1,0-0.1,0-0.2,0h-0.6
		c-0.2,0-0.4,0.1-0.6,0.2c-0.1,0.1-0.2,0.3-0.3,0.4l0,0.1c0,0.2-0.1,0.3-0.2,0.4l-0.4,0.3c0,0-0.1,0.1-0.1,0.1l-1.3,1.6
		c0,0,0,0-0.1,0.1L32,33.5c-0.1,0.1-0.1,0.1-0.2,0.2l0,0c-0.2,0.1-0.3,0.2-0.5,0.1c-0.2,0-0.4-0.1-0.6-0.3l-0.1-0.1
		c-0.1-0.1-0.1-0.2-0.1-0.3l-0.1-0.6c0-0.1,0-0.2,0-0.3L30.4,31.4C30.4,31.4,30.4,31.4,30.4,31.4 M66.8,48.1
		c-0.6,1.6-1.4,3.2-2.3,4.7h-6.9l0,0c-0.1-0.2-0.2-0.3-0.4-0.4l-0.3-0.2c-0.6-0.3-1.1-0.5-1.8-0.6l-0.1,0c-0.3-0.1-0.7-0.1-1-0.1
		h-1.1c-0.3,0-0.6,0-0.9,0.1c-0.8,0.1-1.5,0.4-2.2,0.8l-0.2,0.1c-0.1,0.1-0.2,0.1-0.3,0.2l0,0H30.9c0.1-0.1,0.3-0.2,0.4-0.2h8
		c-0.2-0.4-0.5-0.7-0.8-1l0,0c-0.3-0.2-0.6-0.4-0.9-0.6L37,50.6c-0.4-0.2-0.8-0.3-1.3-0.3L34,50.1c-0.2,0-0.4,0-0.7,0l-1,0.1
		c-0.4,0-0.9,0.2-1.3,0.3l-0.8,0.4c-0.4,0.2-0.8,0.4-1.1,0.8L29,52c-0.2,0.2-0.3,0.4-0.4,0.6l-0.1,0.2H14.5c0.2-0.2,0.4-0.3,0.7-0.3
		h2.6h1.6c-0.3-0.4-0.7-0.7-1.1-0.8l-0.3-0.1c-0.1,0-0.2,0-0.3,0h-1.6c-0.4,0-0.7,0-1.1,0.1L14,52c-0.3,0.1-0.6,0.2-0.8,0.4
		l-0.4,0.4H8c-0.9-1.5-1.7-3.1-2.3-4.7H66.8z M55.7,52.8h-4.5c0.2-0.1,0.4-0.2,0.6-0.2h3.2c0.2,0,0.3,0,0.5,0.1L55.7,52.8z
		 M52.1,61.1c0,0.1-0.1,0.2-0.2,0.2c-0.1,0-0.3-0.1-0.3-0.2c0-0.1,0.1-0.3,0.3-0.3C52,60.9,52.1,61,52.1,61.1 M69.1,36
		c0,3.7-0.6,7.3-1.8,10.6H43V3.9C57.9,7,69.1,20.2,69.1,36 M29.5,3.9v42.8H5.2C4,43.3,3.4,39.7,3.4,36C3.4,20.2,14.6,7,29.5,3.9"/>
	<path class="st1" d="M37.5,34.6c0.3,0,0.6-0.3,0.6-0.6c0-0.3-0.2-0.6-0.6-0.6c-0.3,0-0.5,0.3-0.5,0.6
		C36.9,34.4,37.2,34.6,37.5,34.6"/>
	<path class="st1" d="M35.8,30.6c0.1,0,0.2-0.1,0.2-0.2c0-0.1-0.1-0.2-0.2-0.2c-0.1,0-0.2,0.1-0.2,0.2
		C35.6,30.5,35.7,30.6,35.8,30.6"/>
	<path class="st1" d="M36.5,30.6c0.1,0,0.2-0.1,0.2-0.2c0-0.1-0.1-0.2-0.2-0.2c-0.1,0-0.2,0.1-0.2,0.2
		C36.4,30.5,36.4,30.6,36.5,30.6"/>
	<path class="st1" d="M34.9,34.6c0.3,0,0.6-0.3,0.6-0.6c0-0.3-0.2-0.6-0.6-0.6s-0.6,0.3-0.6,0.6C34.3,34.4,34.6,34.6,34.9,34.6"/>
	<polygon class="st1" points="19.6,44.2 18.6,44.1 17.6,44 17.6,37.1 16.3,37.5 16.3,44 15.9,44.5 15,44.9 14.2,45.4 15,45.4 
		16.1,45 17.2,44.7 17.7,44.7 18.8,45.3 19.2,45.9 19.2,46.1 19.6,45.9 19.6,45.5 19.3,45 18.8,44.6 19.7,44.9 20.6,45.2 20.9,45.5 
		20.6,44.8 	"/>
	<path class="st1" d="M7.3,36.8l2.5-1.3c0.5-0.2,0.9-0.4,1.5-0.5l0.1,0c0.4-0.1,0.8-0.2,1.1-0.3l2.9-1.2l-1.2,2.7
		c0,0.1,0,0.1-0.1,0.2l0,0.5c0,0.2,0,0.3,0.2,0.5l0,0c0.1,0.1,0.3,0.2,0.4,0.2c0.2,0,0.5,0,0.8,0c0.2,0,0.5,0,0.7-0.1l1.9-0.7
		l2.1-0.7c0.1,0,0.1,0.1,0.1,0.1l-0.3,0.3c-0.1,0.1-0.1,0.2-0.1,0.3l0,0.4c0,0.1,0.1,0.1,0.1,0.1l0.1-0.3c0.1-0.1,0.1-0.1,0.2-0.2
		l0.1-0.2c0-0.1,0.2-0.2,0.3-0.2l0.3-0.1C21,36,21.2,36,21.4,36l0.4,0c0.1,0,0.5,0,0.5,0.1l0.8,0.6c0.1,0,0.2,0.1,0.3,0l0.1,0
		l-0.1-0.1c0,0-0.1-0.1-0.1-0.1l-0.4-0.6c-0.1-0.1-0.2-0.2-0.2-0.2l-0.4-0.2l-0.1-0.1l0.1,0l0.5,0.1c0.2,0,0.5,0.1,0.7,0.2l0.4,0.2
		c0.1,0,0.1,0.1,0.2,0.1l0.4,0l-0.8-0.8c-0.2-0.2-0.4-0.3-0.6-0.3l-0.8-0.1c-0.1,0-0.1,0-0.2,0l-1.4,0c-0.1,0-0.3,0-0.4,0.1
		l-1.7,0.6l-2.3,0.6c-0.1,0-0.1,0-0.2,0l-0.5,0c-0.1,0-0.2,0-0.2-0.1c-0.1-0.1-0.1-0.2,0-0.3l1-1.7l0,1.8l1.3-0.3l0.1-3.3
		c0.6-0.3,1.2-0.7,1.7-1.2l0.6-0.7l1.3-1.5c0.1-0.2,0.2-0.3,0.3-0.5l0.8-1.6c0-0.1,0.1-0.1,0.1-0.2l0.5-1.3c0.1-0.2,0.1-0.4,0.2-0.7
		l0.1-0.7c0-0.3,0-0.5,0-0.8l0,0c-0.1-0.4-0.3-0.9-0.5-1.2c0,0,0,0,0-0.1c-0.4-0.6-0.9-1.1-1.4-1.6l-0.3-0.3
		c-0.2-0.2-0.5-0.5-0.7-0.7l-0.3-0.3c-0.1-0.1-0.2-0.2-0.3-0.4c0-0.1,0-0.2,0.1-0.1l0,0c0.3,0.1,0.6,0.2,0.9,0.2l0.2,0l4.1,3.6
		l0.2,0.2c0.1,0.1,0.3,0.2,0.5,0.1c0.1,0,0.2-0.2,0.1-0.3l-2.7-3.5l-0.9-1.2l0.1-0.6c0-0.2,0-0.4,0-0.5l0-0.5
		c-0.1-0.6-0.3-1.1-0.8-1.5c-0.3-0.2-0.6-0.4-0.9-0.5c-0.1,0-0.2-0.1-0.3-0.1c-0.3-0.1-0.7-0.1-1.1-0.1l-0.2,0
		c-0.4,0.1-0.7,0.2-1,0.5l0,0c-0.3,0.2-0.5,0.6-0.6,0.9c0,0,0,0.1,0,0.1c-0.1,0.3-0.2,0.7-0.1,1l0,0.1c0,0.6,0.2,1.2,0.5,1.8l0,0
		c0.2,0.4,0.3,0.7,0.6,1c0.3,0.4,0.8,1.1,1,1.4c0.1,0.1,0.1,0.2,0.2,0.3l0.6,0.6c0.1,0.1,0.1,0.1,0.2,0.2c0.1,0.2,0,0.4-0.3,0.5
		l-0.8,0.1c-0.4,0-0.7,0.1-1.1,0.2l-0.8,0.2c-0.6,0.2-1.1,0.4-1.6,0.8l-0.9,0.6c-0.3,0.2-0.6,0.5-0.9,0.8l-1.7,1.8
		c-0.1,0.1-0.2,0.2-0.2,0.3l-1.4,1.3c-0.3,0.2-0.5,0.5-0.7,0.8L8.3,31c-0.1,0.1-0.2,0.3-0.3,0.4L6.6,34c-0.1,0.1-0.1,0.2-0.2,0.3
		L6,35.5c-0.1,0.3-0.2,0.6-0.2,0.9L5.6,37c0,0.4,0.4,0.6,0.7,0.4L6.9,37C7.1,36.9,7.2,36.8,7.3,36.8 M20.4,15.8
		c0.3-0.1,0.6,0.2,0.5,0.5c0,0.1-0.2,0.3-0.3,0.3c-0.3,0.1-0.6-0.2-0.5-0.5C20.2,16,20.3,15.8,20.4,15.8"/>
	<path class="st1" d="M46.1,21.4l0.2,0.1c0.2,0.1,0.4,0.2,0.6,0.2l0.9,0c0.1,0,0.3,0,0.4-0.1l0.4-0.2c0,0,0.1,0,0.1,0l1.9-0.2
		c0.1,0,0.3,0,0.4,0.1c0.1,0.1,0.1,0.1,0.1,0.2l0.1,0.6c0,0,0,0,0,0.1l0,1.5c0,0.3,0,0.7,0.2,1l0.4,0.9c0,0.1,0,0.1,0.1,0.2l0.3,1.4
		c0,0,0,0.1,0,0.1l0.1,1.6c0,0.2,0,0.3-0.2,0.5l-0.2,0.2l-1.6,1.5c-0.1,0.1-0.3,0.2-0.4,0.3l-0.5,0.3c-0.1,0.1-0.2,0.1-0.2,0.3
		l0,0.2c0,0.1,0,0.2,0,0.2l0.1,0.2c0,0.1,0.2,0.2,0.3,0.2l0,0c0.1,0,0.3,0,0.4-0.1c0.3-0.3,0.7-0.8,0.7-0.8l1.3-1.3
		c0-0.1,0.1-0.1,0.2-0.1l0.7-0.4c0.2-0.1,0.4-0.3,0.5-0.5l0.3-0.6l0.8,0.8l1.2,1c0.1,0.1,0.2,0.1,0.3,0.2l0.6,0.5
		c0.2,0.2,0.4,0.3,0.7,0.5l0.9,0.5l0.2-1l0.1-0.4c0.1-0.4,0.4-0.8,0.7-1.2c0.1-0.1,0.1-0.2,0.2-0.2l1.1-0.9l-0.9,1
		c-0.4,0.5-0.7,1-0.9,1.6l-0.2,0.7l-0.2,1c0,0.1,0,0.1,0,0.2l0.2,0.8c0,0,0,0.1,0,0.1l0.3,0.7c0,0.1,0.1,0.1,0.2,0.2l0.3,0.2
		c0.1,0.1,0.2,0.3,0.2,0.4c0,0,0,0,0,0.1l0,0.9c0,0,0,0.1,0,0.1l0.3,1c0,0.1,0,0.1,0,0.2L59.6,39l-0.7,0.2l-2,0.7l-2.3,0.7
		c-0.1,0-0.2,0.1-0.3,0.1l-1,0.2c-0.1,0-0.2,0.1-0.2,0.1l0,0.1c-0.1,0.1-0.1,0.2-0.1,0.2l0,0.2c0,0.1,0,0.2,0.1,0.3
		c0.1,0.1,0.2,0.2,0.4,0.1l0.3,0c0.2,0,0.4-0.1,0.6-0.1l0.5-0.2l3.1-0.9l2.5-0.8c0.2-0.1,0.5-0.2,0.6-0.4c0.1-0.2,0.2-0.4,0.2-0.7
		l0-1.5l0.1-0.3l0.1-0.3c0.1-0.5,0.4-0.9,0.8-1.1l0.3-0.2c0.1-0.1,0.2-0.1,0.3-0.1l1-0.3l0.2,0.8c0.1,0.3,0.2,0.5,0.3,0.7l0.3,0.6
		c0.1,0.2,0.2,0.4,0.4,0.6l0.5,0.7c0.2,0.3,0.4,0.6,0.5,1l0,0c0.2,0.5,0.3,1.1,0.4,1.7c0,0.4-0.1,0.8-0.3,1.2l0,0
		c-0.2,0.4-0.5,0.7-0.8,0.9l-0.2,0.1c-0.2,0.1-0.4,0.2-0.5,0.3l-1.9,0.7c-0.4,0.2-0.9,0.3-1.3,0.3L58.9,45L58.6,45
		c-0.1,0-0.1,0.1-0.2,0.1c0,0.1,0,0.2,0.1,0.2l0,0c0,0,0.1,0.1,0.1,0.1h1.4c0.2,0,0.4,0,0.5,0l2-0.2c0.3,0,0.6-0.1,0.9-0.1l1.3-0.3
		c0.4-0.1,0.8-0.2,1.1-0.4l0.5-0.3c0.3-0.2,0.6-0.5,0.9-0.8l0.3-0.4c0.2-0.3,0.3-0.6,0.4-0.9l0-0.1c0.1-0.4,0.1-0.8,0.1-1.2
		c0-0.5-0.1-1-0.3-1.5l-0.1-0.4c-0.1-0.2-0.1-0.3-0.2-0.5l-0.2-0.5c-0.2-0.3-0.3-0.7-0.4-1L66.5,36l-0.1-1.3v-1.2
		c0-0.3,0-0.6-0.1-0.9l-0.3-2.1c-0.1-0.5-0.2-0.9-0.3-1.4l0-0.1c-0.2-0.6-0.5-1.2-0.8-1.8c-0.4-0.6-0.8-1.1-1.3-1.5l-0.3-0.3
		c-0.2-0.1-0.3-0.3-0.5-0.4l-1.3-1c-0.2-0.1-0.3-0.2-0.5-0.3l-2.2-0.7l-2.2-0.7c-0.1,0-0.1-0.1-0.2-0.1c-0.2-0.2-0.4-0.4-0.7-0.5
		l-0.5-0.2c-0.3-0.1-0.6-0.3-0.8-0.6l-0.3-0.5c-0.2-0.2-0.3-0.5-0.3-0.7l-0.2-1l-0.6-2.1c0,0,0,0,0-0.1L52.8,15
		c0-0.1-0.1-0.2-0.2-0.3c-0.2-0.2-0.5-0.2-0.7-0.1l0,0l-0.1,0.5c0,0.1-0.1,0.2-0.1,0.4l-0.5,0.8c0,0.1-0.1,0.1-0.2,0.1l-0.3,0
		c-0.1,0-0.1,0-0.2,0l-0.1-0.1c-0.1,0-0.1-0.1-0.1-0.2L49.9,15c0-0.1,0-0.1-0.1-0.1l-0.1-0.1c-0.1-0.2-0.4-0.2-0.6-0.1l-0.2,0.2v0.8
		l-0.1,0.3c0,0.1,0,0.1,0,0.2L48.7,17l-0.2,0.5c-0.1,0.2-0.1,0.3-0.2,0.5l-0.2,0.3c-0.1,0.2-0.3,0.4-0.5,0.5l-1.8,1.3l0,0.2
		c0,0.2,0,0.4,0.1,0.6C45.9,21.2,46,21.3,46.1,21.4 M49.8,18.2c0.2,0,0.3,0.1,0.3,0.3c0,0.2-0.1,0.3-0.3,0.3c-0.2,0-0.3-0.1-0.3-0.3
		C49.5,18.3,49.6,18.2,49.8,18.2"/>
	<path class="st1" d="M49.7,31l0-0.3c0-0.1,0.1-0.2,0.1-0.3l0.5-0.7l1.1-1.4c0.1-0.1,0.1-0.2,0.1-0.4l0.1-0.7c0-0.1,0-0.1,0-0.2
		l-0.1-1c0-0.1,0-0.2-0.1-0.2l-0.1-0.3c-0.1-0.1-0.2-0.1-0.3,0l-0.1,0.1c-0.2,0.2-0.3,0.5-0.3,0.9l0,0.6l0,0.4
		c0,0.2-0.1,0.4-0.2,0.6l-1.4,2l-0.3,0.4c-0.1,0.1-0.1,0.2-0.1,0.2l0.1,0.3c0,0.1,0,0.1,0.1,0.2l0.2,0.2c0.1,0.1,0.3,0.1,0.4,0
		l0.3-0.1C49.6,31.2,49.7,31.1,49.7,31"/>
	<path class="st1" d="M55.7,39.9c0.5-0.1,0.8-0.5,0.9-1.1l0,0l0.3-2l0.4-2.3c0,0,0,0,0-0.1l0.6-0.9c0,0,0-0.1,0-0.1L57.9,33
		c0,0,0,0,0,0v-0.2c0-0.1,0-0.1-0.1-0.1l-1.3-0.6c0,0,0,0,0,0l-1-0.9c-0.1,0-0.1-0.1-0.2,0c-0.1,0-0.1,0.1-0.1,0.2l0.2,0.7
		c0.1,0.3,0.1,0.6,0.1,0.9l0,5.2c0,0.2-0.1,0.5-0.2,0.6c-0.1,0.2-0.3,0.3-0.6,0.3l-2.4,0.5c-0.3,0.1-0.7,0.1-1,0.1l-1.6,0
		c0,0-0.1,0-0.1,0l-0.1,0c-0.1,0-0.2,0.1-0.3,0.2l-0.1,0.1c0,0.1-0.1,0.2-0.1,0.3c0,0.1,0.1,0.3,0.3,0.3l0.2,0.1c0.1,0,0.1,0,0.2,0
		h1.3c0.3,0,0.6,0,0.9-0.1l3.1-0.5c0,0,0,0,0,0L55.7,39.9z"/>
	<polygon class="st0" points="84.3,9.6 84.3,8 78.1,8 78.1,16.6 79.8,16.6 79.8,13.4 84.1,13.4 84.1,11.9 79.8,11.9 79.8,9.6 	"/>
	<path class="st0" d="M85.6,16.6h1.8l0.7-1.6h4.5l0.7,1.6h1.8L91.2,8h-1.8L85.6,16.6z M91.9,13.5h-3.2l1.6-3.7L91.9,13.5z"/>
	<path class="st0" d="M104,10.9c0-1.5-1.1-2.8-3.1-2.9c-1.4,0-2.7,0-4.1,0v8.6h1.6v-2.9h1.6l2.5,2.9h1.9v-0.1l-2.6-2.9
		C103.5,13.2,104,12,104,10.9 M100.9,12.3h-2.5V9.5h2.5c1,0,1.5,0.7,1.5,1.4C102.4,11.6,101.9,12.3,100.9,12.3"/>
	<polygon class="st0" points="111,8 109.7,8 109.7,16.6 111.3,16.6 111.3,10.8 115.8,16.6 115.8,16.6 116.9,16.6 116.9,8 115.2,8 
		115.2,13.3 	"/>
	<path class="st0" d="M127.9,12.4c0-2.3-1.5-4.5-4.4-4.5c-3,0-4.4,2.3-4.4,4.5c0,2.3,1.4,4.4,4.4,4.4
		C126.6,16.8,127.9,14.6,127.9,12.4 M123.5,15.3c-2,0-2.8-1.5-2.8-2.9c0-1.5,0.8-3.1,2.8-3.1c2,0,2.8,1.6,2.8,3.1
		C126.3,13.8,125.6,15.3,123.5,15.3"/>
	<path class="st0" d="M137.3,10.9c0-1.5-1.1-2.8-3.1-2.9c-1.4,0-2.7,0-4.1,0v8.6h1.6v-2.9h1.6l2.5,2.9h1.9v-0.1l-2.6-2.9
		C136.8,13.2,137.3,12,137.3,10.9 M134.2,12.3h-2.5V9.5h2.5c1,0,1.5,0.7,1.5,1.4C135.7,11.6,135.3,12.3,134.2,12.3"/>
	<polygon class="st0" points="143.7,16.6 143.7,9.5 146.4,9.5 146.4,8 139.3,8 139.3,9.5 142,9.5 142,16.6 	"/>
	<polygon class="st0" points="155.9,16.6 155.9,8 154.3,8 154.3,11.6 150,11.6 150,8 148.4,8 148.4,16.6 150,16.6 150,13.1 
		154.3,13.1 154.3,16.6 	"/>
	<path class="st0" d="M165.9,7.8c-3,0-4.4,2.3-4.4,4.5c0,2.2,1.4,4.5,4.4,4.5c1,0,1.8-0.2,2.5-0.6l1,1l1.1-1.1l-1-1
		c0.6-0.8,0.8-1.8,0.8-2.8C170.3,10,168.9,7.8,165.9,7.8 M165.9,15.3c-1.9,0-2.8-1.5-2.8-2.9c0-1.5,0.8-3.1,2.8-3.1
		c2,0,2.8,1.5,2.8,2.9C168.8,13.6,167.8,15.3,165.9,15.3"/>
	<path class="st0" d="M172.5,8V13c0,2.6,1.8,3.9,3.8,3.9c2.2,0,3.7-1.3,3.7-3.9V8h-1.6V13c0,1.5-0.8,2.4-2.1,2.4
		c-1.3,0-2.2-0.8-2.2-2.4V8H172.5z"/>
	<polygon class="st0" points="189.1,9.6 189.1,8 182.6,8 182.6,16.6 189.1,16.6 189.1,15 184.2,15 184.2,13.1 188.9,13.1 
		188.9,11.6 184.2,11.6 184.2,9.6 	"/>
	<polygon class="st0" points="197.8,9.6 197.8,8 191.3,8 191.3,16.6 197.8,16.6 197.8,15 192.9,15 192.9,13.1 197.6,13.1 
		197.6,11.6 192.9,11.6 192.9,9.6 	"/>
	<polygon class="st0" points="201.7,8 200.4,8 200.4,16.6 202,16.6 202,10.8 206.5,16.6 206.5,16.6 207.6,16.6 207.6,8 205.9,8 
		205.9,13.3 	"/>
	<path class="st0" d="M217.1,14.1c0-2.1-1.7-2.5-3.5-2.7c-1-0.1-1.9-0.3-1.9-1.1c0-0.6,0.6-1.1,1.8-1.1c0.9,0,1.8,0.5,2,1l1.3-0.7
		c-0.7-1.3-2-1.7-3.4-1.7c-1.6,0-3.3,0.7-3.3,2.5c0,1.9,1.6,2.4,3.4,2.6c1.1,0.1,2,0.5,2,1.3c0,0.9-1,1.3-2,1.3c-1,0-2-0.4-2.4-1.4
		l-1.4,0.7c0.6,1.6,2,2.1,3.8,2.1C215.4,16.8,217.1,16,217.1,14.1"/>
	<polygon class="st0" points="219.3,8 219.3,16.6 225.4,16.6 225.4,15.1 220.9,15.1 220.9,8 	"/>
	<path class="st0" d="M226.6,16.6h1.8l0.7-1.6h4.5l0.7,1.6h1.8L232.3,8h-1.8L226.6,16.6z M233,13.5h-3.2l1.6-3.7L233,13.5z"/>
	<polygon class="st0" points="239.3,8 238,8 238,16.6 239.6,16.6 239.6,10.8 244.1,16.6 244.1,16.6 245.2,16.6 245.2,8 243.5,8 
		243.5,13.3 	"/>
	<path class="st0" d="M250.9,8h-3.4v8.6h3.4c3,0,4.4-2.2,4.3-4.4C255.2,10.1,253.9,8,250.9,8 M250.9,15.1h-1.8V9.5h1.8
		c1.9,0,2.7,1.3,2.7,2.7C253.6,13.6,252.9,15.1,250.9,15.1"/>
	<polygon class="st0" points="117.9,21.5 112.2,21.5 106.1,40.8 99.4,21.5 96.2,21.5 89.7,40.8 83.4,21.5 77.7,21.5 87.5,48.3 
		91.8,48.3 95,39.9 97.8,31.4 100.7,39.9 104,48.3 108.3,48.3 	"/>
	<rect x="121" y="21.5" class="st0" width="5" height="26.7"/>
	<polygon class="st0" points="149.5,43.6 135.8,43.6 135.8,21.5 130.7,21.5 130.7,48.3 149.5,48.3 	"/>
	<path class="st0" d="M163.2,21.5h-10.5v26.7h10.5c9.4,0,13.5-6.8,13.4-13.6C176.5,28.1,172.4,21.5,163.2,21.5 M163.2,43.4h-5.5
		V26.3h5.5c5.8,0,8.2,4.2,8.4,8.3C171.7,39,169.3,43.4,163.2,43.4"/>
	<polygon class="st0" points="198.7,43.6 185,43.6 185,21.5 179.9,21.5 179.9,48.3 198.7,48.3 	"/>
	<rect x="202.3" y="21.5" class="st0" width="5" height="26.7"/>
	<polygon class="st0" points="217.1,38.4 230.5,38.4 230.5,33.7 217.1,33.7 217.1,26.4 231.2,26.4 231.2,21.6 212,21.6 212,48.3 
		217.1,48.3 	"/>
	<polygon class="st0" points="234.6,48.3 254.6,48.3 254.6,43.3 239.6,43.3 239.6,37.3 254.1,37.3 254.1,32.6 239.6,32.6 
		239.6,26.4 254.6,26.4 254.6,21.5 234.6,21.5 	"/>
	<path class="st0" d="M86.3,56.9c0-1.5-1.1-2.8-3-2.8c-1.3,0-2.7,0-4,0v8.5h1.6v-2.8h1.5l2.5,2.8h1.9v-0.1l-2.6-2.9
		C85.8,59.2,86.3,58.1,86.3,56.9 M80.9,58.3v-2.7h2.4c1,0,1.4,0.7,1.4,1.4c0,0.7-0.4,1.4-1.4,1.4H80.9z"/>
	<polygon class="st0" points="88.4,62.6 94.7,62.6 94.7,61 89.9,61 89.9,59.1 94.5,59.1 94.5,57.6 89.9,57.6 89.9,55.7 94.7,55.7 
		94.7,54.1 88.4,54.1 	"/>
	<path class="st0" d="M100.5,57.4c-1-0.1-1.9-0.3-1.9-1.1c0-0.6,0.6-1.1,1.8-1.1c0.9,0,1.7,0.5,2,0.9l1.3-0.7
		c-0.6-1.3-2-1.7-3.3-1.7c-1.6,0-3.3,0.7-3.3,2.5c0,1.9,1.6,2.4,3.3,2.6c1.1,0.1,2,0.4,2,1.2c0,0.9-0.9,1.3-1.9,1.3
		c-1,0-2-0.4-2.4-1.3l-1.3,0.7c0.6,1.5,2,2.1,3.7,2.1c1.9,0,3.6-0.8,3.6-2.7C103.9,58.1,102.2,57.6,100.5,57.4"/>
	<path class="st0" d="M110.3,61.3c-2.1,0-2.9-1.5-2.9-2.9c0-1.4,0.9-2.9,2.9-2.9c0.7,0,1.5,0.3,2,0.8l1.1-1c-0.9-0.9-2-1.3-3.1-1.3
		c-3.1,0-4.5,2.2-4.5,4.5c0,2.2,1.3,4.4,4.5,4.4c1.2,0,2.3-0.4,3.2-1.3l-1.1-1.1C111.9,61,111.1,61.3,110.3,61.3"/>
	<path class="st0" d="M121.1,59c0,1.4-0.7,2.3-2.1,2.3s-2.2-0.8-2.2-2.3v-4.8h-1.6V59c0,2.5,1.7,3.8,3.8,3.8c2.1,0,3.7-1.3,3.7-3.8
		v-4.8h-1.6V59z"/>
	<polygon class="st0" points="125.2,62.6 131.5,62.6 131.5,61 126.8,61 126.8,59.1 131.3,59.1 131.3,57.6 126.8,57.6 126.8,55.7 
		131.5,55.7 131.5,54.1 125.2,54.1 	"/>
	<path class="st0" d="M138.5,57.1c-0.9,0-1.6,0.6-1.6,1.5c0,0.9,0.7,1.5,1.6,1.5c0.9,0,1.5-0.6,1.5-1.5
		C140.1,57.7,139.4,57.1,138.5,57.1"/>
	<path class="st0" d="M150,61.3c-2.1,0-2.9-1.5-2.9-2.9c0-1.4,0.9-2.9,2.9-2.9c0.7,0,1.5,0.3,2,0.8l1.1-1c-0.9-0.9-2-1.3-3.1-1.3
		c-3.1,0-4.5,2.2-4.5,4.5c0,2.2,1.3,4.4,4.5,4.4c1.2,0,2.3-0.4,3.2-1.3l-1.1-1.1C151.6,61,150.8,61.3,150,61.3"/>
	<path class="st0" d="M157.6,54.1l-3.8,8.5h1.7l0.7-1.6h4.4l0.7,1.6h1.7l-3.8-8.5H157.6z M156.9,59.5l1.6-3.6l1.6,3.6H156.9z"/>
	<path class="st0" d="M171.9,56.9c0-1.5-1.1-2.8-3-2.8c-1.3,0-2.7,0-4,0v8.5h1.6v-2.8h1.5l2.5,2.8h1.9v-0.1l-2.6-2.9
		C171.4,59.2,171.9,58.1,171.9,56.9 M166.5,58.3v-2.7h2.4c1,0,1.4,0.7,1.4,1.4c0,0.7-0.4,1.4-1.4,1.4H166.5z"/>
	<polygon class="st0" points="173.9,62.6 180.3,62.6 180.3,61 175.5,61 175.5,59.1 180.1,59.1 180.1,57.6 175.5,57.6 175.5,55.7 
		180.3,55.7 180.3,54.1 173.9,54.1 	"/>
	<path class="st0" d="M187.3,57.1c-0.9,0-1.6,0.6-1.6,1.5c0,0.9,0.7,1.5,1.6,1.5c0.9,0,1.5-0.6,1.5-1.5
		C188.8,57.7,188.2,57.1,187.3,57.1"/>
	<path class="st0" d="M201.6,56.9c0-1.5-1-2.8-3-2.8c-1.3,0-2.7,0-4,0v8.5h1.6v-2.8h1.5l2.5,2.8h1.9v-0.1l-2.6-2.9
		C201.1,59.2,201.6,58.1,201.6,56.9 M196.2,58.3v-2.7h2.4c1,0,1.5,0.7,1.5,1.4c0,0.7-0.4,1.4-1.5,1.4H196.2z"/>
	<polygon class="st0" points="203.6,62.6 210,62.6 210,61 205.2,61 205.2,59.1 209.8,59.1 209.8,57.6 205.2,57.6 205.2,55.7 
		210,55.7 210,54.1 203.6,54.1 	"/>
	<polygon class="st0" points="213.8,54.1 212.2,54.1 212.2,62.6 218.1,62.6 218.1,61.1 213.8,61.1 	"/>
	<polygon class="st0" points="220.2,62.6 226.5,62.6 226.5,61 221.8,61 221.8,59.1 226.3,59.1 226.3,57.6 221.8,57.6 221.8,55.7 
		226.5,55.7 226.5,54.1 220.2,54.1 	"/>
	<path class="st0" d="M231.6,54.1l-3.8,8.5h1.7l0.7-1.6h4.4l0.7,1.6h1.7l-3.8-8.5H231.6z M230.9,59.5l1.6-3.6l1.6,3.6H230.9z"/>
	<path class="st0" d="M242.1,57.4c-1-0.1-1.9-0.3-1.9-1.1c0-0.6,0.6-1.1,1.8-1.1c0.9,0,1.7,0.5,2,0.9l1.3-0.7
		c-0.6-1.3-2-1.7-3.3-1.7c-1.6,0-3.3,0.7-3.3,2.5c0,1.9,1.6,2.4,3.3,2.6c1.1,0.1,2,0.4,2,1.2c0,0.9-0.9,1.3-1.9,1.3
		c-1,0-2-0.4-2.4-1.3l-1.3,0.7c0.6,1.5,2,2.1,3.7,2.1c1.9,0,3.6-0.8,3.6-2.7C245.5,58.1,243.8,57.6,242.1,57.4"/>
	<polygon class="st0" points="247.6,62.6 254,62.6 254,61 249.2,61 249.2,59.1 253.8,59.1 253.8,57.6 249.2,57.6 249.2,55.7 
		254,55.7 254,54.1 247.6,54.1 	"/>
	<g>
		<path class="st2" d="M36.1,4.4c0,0,0,0.2,0.3,0.6"/>
		<path class="st2" d="M36.8,4.4c0,0,0,0.2-0.3,0.6"/>
		<line class="st2" x1="36.4" y1="4.9" x2="36.4" y2="7.8"/>
	</g>
	<ellipse class="st3" cx="36.1" cy="36" rx="35.1" ry="35"/>
</g>
</svg>
